<svg viewBox="0 0 1294 743" xmlns="http://www.w3.org/2000/svg"><path d="m-5-6h1307v752h-1307z" fill="#fff"/><circle cx="102" cy="390.61" fill="#646e85" r="7.98"/><path d="m95.16 248.5h13.68" fill="none" stroke="#646e85" stroke-linecap="round" stroke-miterlimit="10" stroke-width="2"/><rect fill="none" height="182.51" rx="9.51" stroke="#646e85" stroke-linecap="round" stroke-miterlimit="10" stroke-width="2" width="95.82" x="54.09" y="229.79"/><path d="m60.77 142.5v12.08c0 1.68-.54 3.05-1.58 4.11-1.05 1.07-2.46 1.66-4.25 1.79l-.62.02c-1.95 0-3.5-.53-4.65-1.57-1.16-1.05-1.74-2.5-1.76-4.33v-12.11h2.32v12.04c0 1.29.35 2.29 1.06 3s1.72 1.07 3.03 1.07 2.34-.35 3.04-1.06c.71-.71 1.06-1.71 1.06-2.99v-12.05h2.36z" fill="#646e85"/><path d="m71.8 156.77c0-.61-.23-1.08-.69-1.42s-1.26-.63-2.4-.87-2.05-.54-2.72-.88-1.17-.75-1.49-1.22-.48-1.03-.48-1.68c0-1.08.46-2 1.37-2.75s2.08-1.12 3.51-1.12c1.5 0 2.71.39 3.64 1.16s1.4 1.76 1.4 2.97h-2.27c0-.62-.26-1.15-.79-1.6-.52-.45-1.19-.67-1.98-.67s-1.46.18-1.93.54c-.46.36-.7.83-.7 1.4 0 .55.21.96.65 1.23s1.21.54 2.34.79 2.04.55 2.74.9 1.22.77 1.56 1.26.51 1.09.51 1.8c0 1.18-.47 2.13-1.42 2.84-.94.71-2.17 1.07-3.67 1.07-1.06 0-1.99-.19-2.81-.56-.81-.37-1.45-.9-1.91-1.57s-.69-1.4-.69-2.18h2.26c.04.76.34 1.36.91 1.8s1.31.67 2.24.67c.86 0 1.54-.17 2.06-.52s.78-.81.78-1.39z" fill="#646e85"/><path d="m82.49 160.52c-1.79 0-3.25-.59-4.37-1.76s-1.68-2.75-1.68-4.72v-.41c0-1.31.25-2.48.75-3.51s1.2-1.83 2.1-2.42c.9-.58 1.88-.87 2.92-.87 1.72 0 3.05.57 4 1.7s1.43 2.75 1.43 4.86v.94h-8.95c.03 1.3.41 2.35 1.14 3.16.73.8 1.65 1.2 2.78 1.2.8 0 1.47-.16 2.03-.49.55-.33 1.04-.76 1.45-1.29l1.38 1.07c-1.11 1.7-2.77 2.55-4.98 2.55zm-.28-11.84c-.91 0-1.68.33-2.29 1-.62.66-1 1.59-1.15 2.79h6.62v-.17c-.06-1.15-.37-2.04-.93-2.67-.55-.63-1.3-.95-2.25-.95z" fill="#646e85"/><path d="m96.63 149.09c-.34-.06-.71-.09-1.11-.09-1.48 0-2.49.63-3.02 1.89v9.38h-2.26v-13.21h2.2l.04 1.53c.74-1.18 1.79-1.77 3.15-1.77.44 0 .77.06 1 .17z" fill="#646e85"/><path d="m58.06 182.42h-7.46v7.85h-2.34v-17.77h11.01v1.92h-8.67v6.09h7.46v1.92z" fill="#646e85"/><path d="m69.46 190.27c-.13-.26-.24-.72-.32-1.39-1.05 1.09-2.3 1.64-3.76 1.64-1.3 0-2.37-.37-3.21-1.1s-1.25-1.67-1.25-2.8c0-1.38.52-2.44 1.57-3.2 1.04-.76 2.52-1.14 4.41-1.14h2.2v-1.04c0-.79-.24-1.42-.71-1.89s-1.17-.7-2.09-.7c-.81 0-1.48.2-2.03.61-.54.41-.82.9-.82 1.48h-2.27c0-.66.23-1.3.7-1.91s1.1-1.1 1.9-1.46 1.68-.54 2.64-.54c1.52 0 2.71.38 3.58 1.14.86.76 1.31 1.81 1.34 3.14v6.08c0 1.21.15 2.18.46 2.89v.2h-2.37zm-3.75-1.72c.71 0 1.38-.18 2.01-.55s1.09-.84 1.38-1.43v-2.71h-1.77c-2.77 0-4.15.81-4.15 2.43 0 .71.24 1.26.71 1.66s1.08.6 1.82.6z" fill="#646e85"/><path d="m80.2 188.67c.81 0 1.51-.24 2.11-.73s.94-1.1 1-1.83h2.14c-.04.76-.3 1.48-.78 2.16s-1.12 1.23-1.92 1.64-1.65.61-2.54.61c-1.8 0-3.23-.6-4.29-1.8s-1.59-2.84-1.59-4.93v-.38c0-1.29.24-2.43.71-3.43s1.15-1.78 2.03-2.33 1.93-.83 3.13-.83c1.48 0 2.71.44 3.69 1.33s1.5 2.04 1.57 3.45h-2.14c-.07-.85-.39-1.56-.97-2.11s-1.3-.82-2.15-.82c-1.15 0-2.04.41-2.67 1.24s-.95 2.02-.95 3.58v.43c0 1.52.31 2.69.94 3.52s1.52 1.23 2.69 1.23z" fill="#646e85"/><path d="m88 173.56c0-.37.11-.68.34-.93.22-.25.55-.38.99-.38s.77.13 1 .38.34.56.34.93-.12.67-.34.92c-.23.24-.56.37-1 .37s-.77-.12-.99-.37c-.22-.24-.34-.55-.34-.92zm2.44 16.71h-2.26v-13.21h2.26z" fill="#646e85"/><path d="m96.2 177.07.07 1.66c1.01-1.27 2.33-1.9 3.96-1.9 2.79 0 4.2 1.58 4.22 4.72v8.73h-2.26v-8.74c0-.95-.23-1.66-.65-2.11-.43-.46-1.09-.68-2-.68-.73 0-1.38.2-1.93.59s-.99.9-1.29 1.54v9.41h-2.26v-13.21h2.14z" fill="#646e85"/><path d="m107.32 183.56c0-2.06.48-3.7 1.43-4.91.95-1.22 2.21-1.83 3.78-1.83s2.87.57 3.77 1.71l.11-1.46h2.06v12.89c0 1.71-.51 3.06-1.52 4.04-1.01.99-2.38 1.48-4.08 1.48-.95 0-1.88-.2-2.79-.61s-1.61-.96-2.09-1.67l1.17-1.36c.97 1.2 2.15 1.79 3.55 1.79 1.1 0 1.96-.31 2.57-.93s.92-1.49.92-2.61v-1.13c-.9 1.04-2.14 1.56-3.7 1.56s-2.8-.62-3.75-1.87c-.96-1.25-1.43-2.94-1.43-5.09zm2.27.26c0 1.49.3 2.66.92 3.51.61.85 1.46 1.28 2.56 1.28 1.42 0 2.47-.65 3.14-1.94v-6.03c-.69-1.26-1.73-1.89-3.11-1.89-1.1 0-1.96.43-2.58 1.28s-.93 2.12-.93 3.8z" fill="#646e85"/><path d="m138.24 185.62h-7.45l-1.67 4.65h-2.42l6.79-17.77h2.05l6.8 17.77h-2.41l-1.7-4.65zm-6.74-1.92h6.04l-3.03-8.31z" fill="#646e85"/><path d="m155.53 183.82c0 2.01-.46 3.63-1.38 4.86s-2.17 1.84-3.74 1.84-2.86-.51-3.78-1.53v6.36h-2.26v-18.29h2.06l.11 1.46c.92-1.14 2.2-1.71 3.83-1.71s2.84.6 3.77 1.79c.92 1.2 1.39 2.86 1.39 4.99v.21zm-2.26-.26c0-1.49-.32-2.67-.95-3.53s-1.51-1.29-2.61-1.29c-1.37 0-2.39.61-3.08 1.82v6.31c.67 1.21 1.71 1.81 3.1 1.81 1.08 0 1.94-.43 2.58-1.29s.96-2.13.96-3.83z" fill="#646e85"/><path d="m169.56 183.82c0 2.01-.46 3.63-1.38 4.86s-2.17 1.84-3.74 1.84-2.86-.51-3.78-1.53v6.36h-2.26v-18.29h2.06l.11 1.46c.92-1.14 2.2-1.71 3.83-1.71s2.84.6 3.77 1.79c.92 1.2 1.38 2.86 1.38 4.99v.21zm-2.26-.26c0-1.49-.32-2.67-.95-3.53s-1.51-1.29-2.61-1.29c-1.37 0-2.39.61-3.08 1.82v6.31c.68 1.21 1.71 1.81 3.1 1.81 1.08 0 1.94-.43 2.58-1.29s.96-2.13.96-3.83z" fill="#646e85"/><rect fill="#c5cddd" height="144" rx="3.81" width="24" x="371" y="248"/><path d="m327.15 425.62h-7.45l-1.67 4.65h-2.42l6.79-17.77h2.05l6.8 17.77h-2.4zm-6.74-1.92h6.04l-3.03-8.31-3.02 8.31z" fill="#646e85"/><path d="m335.99 423.32v6.96h-2.34v-17.77h6.56c1.94 0 3.47.5 4.57 1.49s1.65 2.31 1.65 3.94c0 1.73-.54 3.05-1.62 3.99-1.08.93-2.62 1.4-4.63 1.4h-4.19zm0-1.92h4.21c1.25 0 2.21-.29 2.88-.89.67-.59 1-1.45 1-2.56 0-1.06-.33-1.91-1-2.54-.67-.64-1.58-.97-2.75-.99h-4.35v6.98z" fill="#646e85"/><path d="m351.93 430.27h-2.34v-17.77h2.34z" fill="#646e85"/><path d="m375.53 427.94c-.6.86-1.44 1.51-2.52 1.94s-2.33.64-3.77.64-2.73-.34-3.86-1.02c-1.12-.68-1.99-1.65-2.61-2.9s-.93-2.71-.95-4.36v-1.55c0-2.68.62-4.75 1.87-6.23 1.25-1.47 3-2.21 5.27-2.21 1.86 0 3.35.47 4.48 1.42s1.82 2.29 2.08 4.04h-2.34c-.44-2.36-1.84-3.54-4.2-3.54-1.57 0-2.76.55-3.57 1.66-.81 1.1-1.22 2.7-1.23 4.79v1.45c0 2 .46 3.58 1.37 4.76s2.14 1.77 3.7 1.77c.88 0 1.65-.1 2.31-.29s1.2-.52 1.64-.99v-3.98h-4.11v-1.92h6.45v6.52z" fill="#646e85"/><path d="m387.24 430.27c-.13-.26-.24-.72-.32-1.39-1.05 1.09-2.3 1.64-3.76 1.64-1.3 0-2.37-.37-3.2-1.1s-1.25-1.67-1.25-2.8c0-1.38.52-2.44 1.57-3.2s2.52-1.14 4.41-1.14h2.2v-1.04c0-.79-.24-1.42-.71-1.89s-1.17-.7-2.09-.7c-.81 0-1.48.2-2.03.61-.54.41-.82.9-.82 1.48h-2.27c0-.66.23-1.3.7-1.91s1.1-1.1 1.9-1.46 1.68-.54 2.64-.54c1.52 0 2.71.38 3.58 1.14s1.31 1.81 1.34 3.14v6.08c0 1.21.15 2.18.46 2.89v.2h-2.37zm-3.75-1.72c.71 0 1.38-.18 2.01-.55s1.09-.84 1.38-1.43v-2.71h-1.77c-2.77 0-4.15.81-4.15 2.43 0 .71.24 1.26.71 1.66s1.08.6 1.82.6z" fill="#646e85"/><path d="m395.75 413.87v3.2h2.47v1.75h-2.47v8.2c0 .53.11.93.33 1.19s.59.4 1.12.4c.26 0 .62-.05 1.07-.15v1.82c-.59.16-1.17.24-1.73.24-1.01 0-1.77-.3-2.28-.92-.51-.61-.77-1.48-.77-2.6v-8.19h-2.4v-1.75h2.4v-3.2h2.26z" fill="#646e85"/><path d="m406.33 430.52c-1.79 0-3.25-.59-4.37-1.76s-1.68-2.75-1.68-4.72v-.41c0-1.31.25-2.48.75-3.51s1.2-1.83 2.1-2.42 1.87-.87 2.92-.87c1.72 0 3.05.57 4 1.7s1.43 2.75 1.43 4.86v.94h-8.95c.03 1.3.41 2.35 1.14 3.16.73.8 1.65 1.2 2.78 1.2.8 0 1.47-.16 2.03-.49.55-.33 1.04-.76 1.45-1.29l1.38 1.07c-1.11 1.7-2.77 2.55-4.98 2.55zm-.28-11.84c-.91 0-1.68.33-2.29 1-.62.66-1 1.59-1.15 2.79h6.62v-.17c-.07-1.15-.38-2.04-.93-2.67s-1.3-.95-2.25-.95z" fill="#646e85"/><path d="m425.79 427.16 2.54-10.09h2.26l-3.85 13.21h-1.83l-3.21-10.01-3.12 10.01h-1.83l-3.83-13.21h2.25l2.6 9.89 3.08-9.89h1.82l3.14 10.09z" fill="#646e85"/><path d="m441.03 430.27c-.13-.26-.24-.72-.32-1.39-1.05 1.09-2.3 1.64-3.76 1.64-1.3 0-2.37-.37-3.2-1.1-.83-.74-1.25-1.67-1.25-2.8 0-1.38.52-2.44 1.57-3.2 1.04-.76 2.52-1.14 4.41-1.14h2.2v-1.04c0-.79-.24-1.42-.71-1.89s-1.17-.7-2.09-.7c-.81 0-1.48.2-2.03.61s-.82.9-.82 1.48h-2.27c0-.66.23-1.3.7-1.91s1.1-1.1 1.9-1.46 1.68-.54 2.64-.54c1.52 0 2.71.38 3.58 1.14.86.76 1.31 1.81 1.34 3.14v6.08c0 1.21.15 2.18.46 2.89v.2h-2.37zm-3.75-1.72c.71 0 1.38-.18 2.01-.55s1.09-.84 1.38-1.43v-2.71h-1.77c-2.77 0-4.15.81-4.15 2.43 0 .71.24 1.26.71 1.66s1.08.6 1.82.6z" fill="#646e85"/><path d="m450.62 426.96 3.08-9.9h2.42l-5.31 15.25c-.82 2.2-2.13 3.29-3.92 3.29l-.43-.04-.84-.16v-1.83l.61.05c.76 0 1.36-.16 1.79-.46.43-.31.78-.87 1.06-1.7l.5-1.34-4.71-13.06h2.47l3.3 9.9z" fill="#646e85"/><path d="m359.41 318.45h-96.81-75.43-36.77" fill="none" stroke="#646e85" stroke-miterlimit="10" stroke-width="2.5"/><path d="m356.23 324.81v-12.7c0-.6.68-.95 1.16-.6l8.95 6.35c.41.29.41.91 0 1.2l-8.95 6.35c-.49.35-1.16 0-1.16-.6z" fill="#646e85"/><path d="m518.07 318.13h-96.81-25.67" fill="none" stroke="#646e85" stroke-miterlimit="10" stroke-width="2.5"/><path d="m514.89 324.48v-12.7c0-.6.68-.95 1.16-.6l8.95 6.35c.41.29.41.91 0 1.2l-8.95 6.35c-.49.35-1.16 0-1.16-.6z" fill="#646e85"/><rect fill="none" height="95.52" rx="11.74" stroke="#646e85" stroke-miterlimit="10" stroke-width="2.5" width="191.04" x="531.39" y="272"/><path d="m583.05 318.75c0 1.74-.29 3.26-.88 4.56s-1.42 2.29-2.49 2.97-2.33 1.03-3.76 1.03-2.64-.34-3.72-1.03-1.92-1.67-2.52-2.94-.91-2.75-.92-4.42v-1.28c0-1.71.3-3.22.89-4.53s1.43-2.31 2.52-3.01 2.33-1.04 3.73-1.04 2.68.34 3.77 1.03 1.92 1.68 2.51 2.99.88 2.83.88 4.56v1.12zm-2.33-1.15c0-2.11-.42-3.72-1.27-4.85s-2.03-1.69-3.55-1.69-2.65.56-3.5 1.69-1.29 2.69-1.31 4.69v1.31c0 2.04.43 3.65 1.29 4.82s2.04 1.75 3.55 1.75 2.69-.55 3.52-1.65 1.26-2.68 1.28-4.74v-1.32z" fill="#646e85"/><path d="m592.6 315.88c-.34-.06-.71-.09-1.11-.09-1.48 0-2.49.63-3.02 1.89v9.38h-2.26v-13.21h2.2l.04 1.53c.74-1.18 1.79-1.77 3.15-1.77.44 0 .77.06 1 .17z" fill="#646e85"/><path d="m593.89 320.35c0-2.03.48-3.66 1.44-4.89s2.22-1.85 3.77-1.85 2.77.53 3.67 1.59v-6.88h2.26v18.75h-2.08l-.11-1.42c-.9 1.11-2.16 1.66-3.77 1.66s-2.78-.63-3.74-1.88-1.45-2.89-1.45-4.91v-.17zm2.26.26c0 1.5.31 2.67.93 3.52s1.47 1.27 2.56 1.27c1.43 0 2.48-.64 3.14-1.93v-6.07c-.68-1.25-1.71-1.87-3.11-1.87-1.11 0-1.97.43-2.59 1.28s-.93 2.12-.93 3.8z" fill="#646e85"/><path d="m614.02 327.31c-1.79 0-3.25-.59-4.37-1.76s-1.68-2.75-1.68-4.72v-.41c0-1.31.25-2.48.75-3.51s1.2-1.83 2.1-2.42c.9-.58 1.87-.87 2.92-.87 1.72 0 3.05.57 4 1.7s1.43 2.75 1.43 4.86v.94h-8.95c.03 1.3.41 2.35 1.14 3.16.73.8 1.65 1.2 2.78 1.2.8 0 1.47-.16 2.03-.49.55-.33 1.04-.76 1.45-1.29l1.38 1.07c-1.11 1.7-2.77 2.55-4.98 2.55zm-.28-11.84c-.91 0-1.68.33-2.29 1s-1 1.59-1.15 2.79h6.62v-.17c-.07-1.15-.37-2.04-.93-2.67s-1.3-.95-2.25-.95z" fill="#646e85"/><path d="m628.17 315.88c-.34-.06-.71-.09-1.11-.09-1.48 0-2.49.63-3.02 1.89v9.38h-2.26v-13.21h2.2l.04 1.53c.74-1.18 1.79-1.77 3.15-1.77.44 0 .77.06 1 .17z" fill="#646e85"/><path d="m637.93 323.56c0-.61-.23-1.08-.69-1.42s-1.26-.63-2.41-.87c-1.14-.24-2.05-.54-2.72-.88s-1.17-.75-1.49-1.22-.48-1.03-.48-1.68c0-1.08.46-2 1.37-2.75.92-.75 2.09-1.12 3.51-1.12 1.5 0 2.71.39 3.64 1.16s1.4 1.76 1.4 2.97h-2.27c0-.62-.26-1.15-.79-1.6-.52-.45-1.19-.67-1.98-.67s-1.46.18-1.93.54-.7.83-.7 1.4c0 .55.21.96.65 1.23s1.21.54 2.34.79 2.04.55 2.74.9 1.22.77 1.56 1.26.51 1.09.51 1.8c0 1.18-.47 2.13-1.42 2.84-.94.71-2.17 1.07-3.67 1.07-1.06 0-1.99-.19-2.81-.56s-1.45-.9-1.91-1.57-.69-1.4-.69-2.18h2.26c.04.76.34 1.36.91 1.8s1.31.67 2.24.67c.85 0 1.54-.17 2.06-.52s.78-.81.78-1.39z" fill="#646e85"/><path d="m659.49 322.42h-7.45l-1.67 4.65h-2.42l6.79-17.77h2.05l6.8 17.77h-2.4zm-6.74-1.92h6.04l-3.03-8.31-3.02 8.31z" fill="#646e85"/><path d="m668.33 320.11v6.96h-2.34v-17.77h6.56c1.94 0 3.47.5 4.57 1.49s1.65 2.31 1.65 3.94c0 1.73-.54 3.05-1.62 3.99-1.08.93-2.62 1.4-4.63 1.4h-4.19zm0-1.92h4.21c1.25 0 2.21-.29 2.88-.89.67-.59 1-1.45 1-2.56 0-1.06-.33-1.91-1-2.54-.67-.64-1.58-.97-2.75-.99h-4.35v6.98z" fill="#646e85"/><path d="m684.27 327.07h-2.34v-17.77h2.34z" fill="#646e85"/><rect fill="none" height="73.23" rx="7.96" stroke="#646e85" stroke-miterlimit="10" stroke-width="2.5" width="763.76" x="54.09" y="624.71"/><path d="m361.17 668.62h-2.34v-17.77h2.34z" fill="#646e85"/><path d="m364.55 661.91c0-2.03.48-3.66 1.44-4.89s2.22-1.85 3.77-1.85 2.77.53 3.67 1.59v-6.88h2.26v18.75h-2.08l-.11-1.42c-.9 1.11-2.16 1.66-3.77 1.66s-2.78-.63-3.74-1.88-1.45-2.89-1.45-4.91v-.17zm2.26.26c0 1.5.31 2.67.93 3.52s1.47 1.27 2.56 1.27c1.43 0 2.48-.64 3.14-1.93v-6.07c-.68-1.25-1.71-1.87-3.11-1.87-1.11 0-1.97.43-2.59 1.28s-.93 2.12-.93 3.8z" fill="#646e85"/><path d="m384.68 668.87c-1.79 0-3.25-.59-4.37-1.76s-1.68-2.75-1.68-4.72v-.41c0-1.31.25-2.48.75-3.51s1.2-1.83 2.1-2.42 1.87-.87 2.92-.87c1.72 0 3.05.57 4 1.7s1.43 2.75 1.43 4.86v.94h-8.95c.03 1.3.41 2.35 1.14 3.16.73.8 1.65 1.2 2.78 1.2.8 0 1.47-.16 2.03-.49.55-.33 1.04-.76 1.45-1.29l1.38 1.07c-1.11 1.7-2.77 2.55-4.98 2.55zm-.28-11.84c-.91 0-1.68.33-2.29 1-.62.66-1 1.59-1.15 2.79h6.62v-.17c-.07-1.15-.38-2.04-.93-2.67s-1.3-.95-2.25-.95z" fill="#646e85"/><path d="m394.58 655.42.07 1.66c1.01-1.27 2.33-1.9 3.96-1.9 2.79 0 4.2 1.58 4.22 4.72v8.73h-2.26v-8.74c0-.95-.23-1.66-.65-2.11-.43-.46-1.09-.68-2-.68-.73 0-1.38.2-1.93.59s-.99.9-1.29 1.54v9.41h-2.26v-13.21h2.14z" fill="#646e85"/><path d="m409.3 652.22v3.2h2.47v1.75h-2.47v8.2c0 .53.11.93.33 1.19s.59.4 1.12.4c.26 0 .62-.05 1.07-.15v1.82c-.59.16-1.17.24-1.73.24-1.01 0-1.77-.3-2.28-.92-.51-.61-.77-1.48-.77-2.6v-8.19h-2.4v-1.75h2.4v-3.2h2.26z" fill="#646e85"/><path d="m414.41 651.91c0-.37.11-.68.34-.93.22-.25.56-.38 1-.38s.77.13 1 .38.34.56.34.93-.11.67-.34.92c-.23.24-.56.37-1 .37s-.77-.12-1-.37-.34-.55-.34-.92zm2.44 16.71h-2.26v-13.21h2.26z" fill="#646e85"/><path d="m423.53 652.22v3.2h2.47v1.75h-2.47v8.2c0 .53.11.93.33 1.19s.59.4 1.12.4c.26 0 .62-.05 1.07-.15v1.82c-.59.16-1.17.24-1.73.24-1.01 0-1.77-.3-2.28-.92-.51-.61-.77-1.48-.77-2.6v-8.19h-2.4v-1.75h2.4v-3.2h2.26z" fill="#646e85"/><path d="m432.96 665.32 3.08-9.9h2.42l-5.31 15.25c-.82 2.2-2.13 3.29-3.92 3.29l-.43-.04-.84-.16v-1.83l.61.05c.76 0 1.36-.16 1.79-.46.43-.31.78-.87 1.06-1.7l.5-1.34-4.71-13.06h2.47l3.3 9.9z" fill="#646e85"/><path d="m452.24 660.7c-2.01-.58-3.47-1.29-4.39-2.13s-1.37-1.88-1.37-3.12c0-1.4.56-2.56 1.68-3.47 1.12-.92 2.57-1.37 4.36-1.37 1.22 0 2.31.24 3.27.71s1.7 1.12 2.22 1.95c.53.83.79 1.74.79 2.72h-2.36c0-1.08-.34-1.92-1.03-2.54-.68-.62-1.65-.93-2.89-.93-1.16 0-2.06.25-2.7.76-.65.51-.97 1.22-.97 2.12 0 .73.31 1.34.92 1.84s1.66.96 3.14 1.38 2.63.87 3.47 1.38c.83.5 1.45 1.08 1.86 1.75.4.67.6 1.45.6 2.36 0 1.44-.56 2.59-1.68 3.46s-2.62 1.3-4.5 1.3c-1.22 0-2.36-.23-3.42-.7s-1.87-1.11-2.45-1.92c-.57-.81-.86-1.74-.86-2.77h2.36c0 1.07.4 1.92 1.19 2.54s1.85.93 3.18.93c1.24 0 2.19-.25 2.84-.76.66-.5.99-1.19.99-2.06s-.3-1.54-.92-2.02c-.61-.48-1.72-.95-3.32-1.41z" fill="#646e85"/><path d="m466.96 668.87c-1.79 0-3.25-.59-4.37-1.76s-1.68-2.75-1.68-4.72v-.41c0-1.31.25-2.48.75-3.51s1.2-1.83 2.1-2.42c.9-.58 1.87-.87 2.92-.87 1.72 0 3.05.57 4 1.7s1.43 2.75 1.43 4.86v.94h-8.95c.03 1.3.41 2.35 1.14 3.16.73.8 1.65 1.2 2.78 1.2.8 0 1.47-.16 2.03-.49.55-.33 1.04-.76 1.45-1.29l1.38 1.07c-1.11 1.7-2.77 2.55-4.98 2.55zm-.28-11.84c-.91 0-1.68.33-2.29 1s-1 1.59-1.15 2.79h6.62v-.17c-.07-1.15-.37-2.04-.93-2.67s-1.3-.95-2.25-.95z" fill="#646e85"/><path d="m481.11 657.44c-.34-.06-.71-.09-1.11-.09-1.48 0-2.49.63-3.02 1.89v9.38h-2.26v-13.21h2.2l.04 1.53c.74-1.18 1.79-1.77 3.15-1.77.44 0 .77.06 1 .17z" fill="#646e85"/><path d="m487.77 665.56 3.27-10.14h2.31l-4.74 13.21h-1.72l-4.79-13.21h2.31z" fill="#646e85"/><path d="m500.84 668.87c-1.79 0-3.25-.59-4.37-1.76s-1.68-2.75-1.68-4.72v-.41c0-1.31.25-2.48.75-3.51s1.2-1.83 2.1-2.42 1.87-.87 2.92-.87c1.72 0 3.05.57 4 1.7s1.43 2.75 1.43 4.86v.94h-8.95c.03 1.3.41 2.35 1.14 3.16.73.8 1.65 1.2 2.78 1.2.8 0 1.47-.16 2.03-.49.55-.33 1.04-.76 1.45-1.29l1.38 1.07c-1.11 1.7-2.77 2.55-4.98 2.55zm-.28-11.84c-.91 0-1.68.33-2.29 1-.62.66-1 1.59-1.15 2.79h6.62v-.17c-.07-1.15-.38-2.04-.93-2.67s-1.3-.95-2.25-.95z" fill="#646e85"/><path d="m514.99 657.44c-.34-.06-.71-.09-1.11-.09-1.48 0-2.49.63-3.01 1.89v9.38h-2.26v-13.21h2.2l.04 1.53c.74-1.18 1.79-1.77 3.15-1.77.44 0 .77.06 1 .17v2.1z" fill="#646e85"/><path d="m562.23 614.39v-96.8-50.7-97.88" fill="none" stroke="#646e85" stroke-miterlimit="10" stroke-width="2.5"/><path d="m555.88 611.22h12.7c.6 0 .95.68.6 1.16l-6.35 8.95c-.29.41-.91.41-1.2 0l-6.35-8.95c-.35-.49 0-1.16.6-1.16z" fill="#646e85"/><path d="m697.26 379.61v96.81 50.69 97.89" fill="none" stroke="#646e85" stroke-miterlimit="10" stroke-width="2.5"/><path d="m690.91 382.79h12.7c.6 0 .95-.68.6-1.16l-6.35-8.95c-.29-.41-.91-.41-1.2 0l-6.35 8.95c-.35.49 0 1.16.6 1.16z" fill="#646e85"/><path d="m406.91 553.1c-1.61-.46-2.78-1.03-3.51-1.7s-1.1-1.51-1.1-2.5c0-1.12.45-2.05 1.34-2.78.9-.73 2.06-1.1 3.49-1.1.98 0 1.85.19 2.61.57.77.38 1.36.9 1.78 1.56s.63 1.39.63 2.18h-1.88c0-.86-.27-1.54-.82-2.03s-1.32-.74-2.31-.74c-.92 0-1.65.2-2.16.61-.52.41-.78.97-.78 1.7 0 .58.25 1.07.74 1.47s1.33.77 2.51 1.1 2.11.7 2.77 1.1c.67.4 1.16.87 1.48 1.4s.48 1.16.48 1.88c0 1.15-.45 2.08-1.35 2.77s-2.1 1.04-3.6 1.04c-.98 0-1.89-.19-2.73-.56-.85-.37-1.5-.89-1.96-1.54s-.69-1.39-.69-2.22h1.88c0 .86.32 1.54.95 2.04s1.48.75 2.54.75c.99 0 1.75-.2 2.28-.61s.79-.95.79-1.65-.24-1.24-.73-1.62-1.37-.76-2.66-1.13z" fill="#646e85"/><path d="m416.11 550.15c.8-.98 1.84-1.47 3.12-1.47 2.23 0 3.36 1.26 3.38 3.78v6.98h-1.81v-6.99c0-.76-.18-1.33-.52-1.69s-.87-.55-1.6-.55c-.59 0-1.1.16-1.54.47s-.79.72-1.04 1.23v7.53h-1.81v-15h1.81v5.71z" fill="#646e85"/><path d="m424.84 554.06c0-1.04.2-1.97.61-2.79.41-.83.97-1.46 1.7-1.91s1.55-.67 2.49-.67c1.44 0 2.6.5 3.49 1.49s1.33 2.32 1.33 3.97v.13c0 1.03-.2 1.95-.59 2.77s-.96 1.45-1.69 1.91-1.57.68-2.52.68c-1.43 0-2.59-.5-3.48-1.49s-1.33-2.31-1.33-3.96v-.13zm1.82.21c0 1.17.27 2.11.82 2.82.54.71 1.27 1.06 2.18 1.06s1.65-.36 2.19-1.08.81-1.73.81-3.02c0-1.16-.27-2.1-.83-2.82-.55-.72-1.28-1.08-2.19-1.08s-1.61.35-2.16 1.06-.82 1.73-.82 3.05z" fill="#646e85"/><path d="m441.83 550.5c-.27-.05-.57-.07-.89-.07-1.18 0-1.99.5-2.41 1.51v7.5h-1.81v-10.57h1.76l.03 1.22c.59-.94 1.43-1.42 2.52-1.42.35 0 .62.05.8.14v1.68z" fill="#646e85"/><path d="m446.43 546.32v2.56h1.97v1.4h-1.97v6.56c0 .42.09.74.26.95s.48.32.9.32c.21 0 .5-.04.86-.12v1.46c-.47.13-.94.19-1.39.19-.81 0-1.42-.24-1.83-.73s-.62-1.18-.62-2.08v-6.55h-1.92v-1.4h1.92v-2.56h1.81z" fill="#646e85"/><path d="m457.63 557.91h6.74v1.53h-8.62v-14.22h1.88z" fill="#646e85"/><path d="m466.24 546.07c0-.29.09-.54.27-.74s.44-.3.8-.3.62.1.8.3.27.45.27.74-.09.54-.27.73c-.18.2-.45.29-.8.29s-.62-.1-.8-.29c-.18-.2-.27-.44-.27-.73zm1.95 13.37h-1.81v-10.57h1.81z" fill="#646e85"/><path d="m474.57 556.99 2.62-8.12h1.85l-3.79 10.57h-1.38l-3.83-10.57h1.85l2.69 8.12z" fill="#646e85"/><path d="m485.03 559.64c-1.43 0-2.6-.47-3.5-1.41s-1.35-2.2-1.35-3.77v-.33c0-1.05.2-1.98.6-2.81s.96-1.47 1.68-1.93c.72-.47 1.5-.7 2.34-.7 1.37 0 2.44.45 3.2 1.36s1.14 2.2 1.14 3.89v.75h-7.16c.03 1.04.33 1.88.91 2.52s1.32.96 2.22.96c.64 0 1.18-.13 1.62-.39s.83-.61 1.16-1.04l1.1.86c-.88 1.36-2.21 2.04-3.98 2.04zm-.22-9.47c-.73 0-1.34.27-1.84.8-.49.53-.8 1.27-.92 2.23h5.29v-.14c-.05-.92-.3-1.63-.74-2.13s-1.04-.76-1.8-.76z" fill="#646e85"/><path d="m490.8 554.07c0-1.62.38-2.92 1.15-3.91s1.77-1.48 3.02-1.48 2.22.42 2.94 1.27v-5.51h1.81v15h-1.66l-.09-1.13c-.72.89-1.73 1.33-3.02 1.33s-2.22-.5-2.99-1.5-1.16-2.31-1.16-3.93zm1.81.21c0 1.2.25 2.14.74 2.81.5.68 1.18 1.02 2.05 1.02 1.15 0 1.98-.51 2.51-1.54v-4.85c-.54-1-1.37-1.49-2.49-1.49-.88 0-1.58.34-2.07 1.03-.49.68-.74 1.7-.74 3.04z" fill="#646e85"/><path d="m542.11 566.1 6.35-6.35-4.52-4.52c-2.56 1.62-5.98 1.32-8.21-.91s-2.53-5.65-.91-8.21l-4.52-4.52-31.07 31.07c-.99.99-.99 2.62 0 3.61l14.56 14.56c.99.99 2.62.99 3.61 0l27.66-27.66" fill="#fff" stroke="#48a69e" stroke-miterlimit="10" stroke-width="1.54"/><circle cx="526.89" cy="555.98" fill="#48a69e" r="1.16"/><circle cx="530.37" cy="559.45" fill="#48a69e" r="1.16"/><circle cx="533.85" cy="562.93" fill="#48a69e" r="1.16"/><g fill="#646e85"><path d="m588.27 422.23h-9.32v-1.3l4.92-5.47c.73-.83 1.23-1.5 1.51-2.02s.42-1.05.42-1.61c0-.74-.22-1.35-.67-1.83-.45-.47-1.05-.71-1.8-.71-.9 0-1.6.26-2.09.77-.5.51-.75 1.22-.75 2.13h-1.81c0-1.31.42-2.37 1.26-3.17.84-.81 1.97-1.21 3.38-1.21 1.32 0 2.37.35 3.13 1.04.77.69 1.15 1.62 1.15 2.77 0 1.4-.89 3.07-2.68 5l-3.81 4.13h7.14v1.47z"/><path d="m590.41 421.28c0-.31.09-.57.28-.78s.46-.31.83-.31.65.11.84.31c.19.21.29.47.29.78s-.1.55-.29.75-.47.3-.84.3-.65-.1-.83-.3c-.19-.2-.28-.45-.28-.75z"/><path d="m610.3 409.54h-4.57v12.69h-1.87v-12.69h-4.56v-1.53h11z"/><path d="m610.69 416.85c0-1.04.2-1.96.61-2.79s.97-1.46 1.7-1.91 1.55-.67 2.49-.67c1.44 0 2.6.5 3.49 1.49s1.33 2.32 1.33 3.97v.13c0 1.03-.2 1.95-.59 2.77s-.96 1.45-1.69 1.91-1.57.68-2.52.68c-1.43 0-2.59-.5-3.48-1.49s-1.33-2.31-1.33-3.96v-.13zm1.82.21c0 1.17.27 2.11.82 2.82.54.71 1.27 1.06 2.18 1.06s1.65-.36 2.19-1.08.81-1.73.81-3.02c0-1.16-.28-2.1-.83-2.82s-1.28-1.08-2.19-1.08-1.61.36-2.16 1.06c-.55.71-.82 1.73-.82 3.05z"/><path d="m625.52 417.34-1.13 1.18v3.71h-1.81v-15h1.81v9.07l.97-1.16 3.29-3.48h2.2l-4.11 4.41 4.59 6.15h-2.12l-3.68-4.89z"/><path d="m636.9 422.43c-1.43 0-2.6-.47-3.5-1.41s-1.35-2.2-1.35-3.78v-.33c0-1.05.2-1.98.6-2.81.4-.82.96-1.47 1.68-1.93.72-.47 1.5-.7 2.34-.7 1.37 0 2.44.45 3.2 1.36s1.14 2.2 1.14 3.89v.75h-7.16c.03 1.04.33 1.88.91 2.53.58.64 1.32.96 2.22.96.64 0 1.18-.13 1.62-.39s.83-.61 1.16-1.04l1.1.86c-.89 1.36-2.21 2.04-3.98 2.04zm-.22-9.47c-.73 0-1.34.27-1.84.8s-.8 1.27-.92 2.23h5.29v-.14c-.05-.92-.3-1.63-.74-2.13-.44-.51-1.04-.76-1.8-.76z"/><path d="m644.82 411.66.06 1.33c.81-1.02 1.86-1.52 3.16-1.52 2.23 0 3.36 1.26 3.38 3.78v6.98h-1.81v-6.99c0-.76-.18-1.32-.52-1.69-.34-.36-.87-.55-1.6-.55-.59 0-1.1.16-1.54.47s-.79.72-1.04 1.23v7.53h-1.81v-10.57h1.71z"/><path d="m587.46 439.66h-6.16v5.04h7.16v1.53h-9.03v-14.22h8.94v1.53h-7.06v4.58h6.16v1.53z"/><path d="m594.05 439.52 2.34-3.86h2.11l-3.46 5.22 3.56 5.34h-2.09l-2.44-3.96-2.44 3.96h-2.1l3.56-5.34-3.46-5.22h2.09l2.31 3.86z"/><path d="m604.46 444.95c.64 0 1.21-.2 1.69-.59s.75-.88.8-1.46h1.71c-.03.61-.24 1.18-.62 1.73s-.9.98-1.54 1.31-1.32.49-2.04.49c-1.44 0-2.58-.48-3.43-1.44s-1.27-2.27-1.27-3.94v-.3c0-1.03.19-1.94.57-2.74s.92-1.42 1.63-1.87c.71-.44 1.54-.66 2.5-.66 1.18 0 2.17.36 2.95 1.06.78.71 1.2 1.63 1.25 2.76h-1.71c-.05-.68-.31-1.24-.78-1.68s-1.04-.66-1.72-.66c-.92 0-1.63.33-2.13.99s-.76 1.62-.76 2.87v.34c0 1.22.25 2.16.75 2.81.5.66 1.22.99 2.15.99z"/><path d="m612.5 436.94c.8-.98 1.84-1.47 3.12-1.47 2.23 0 3.36 1.26 3.38 3.78v6.98h-1.81v-6.99c0-.76-.18-1.32-.52-1.69-.34-.36-.87-.55-1.6-.55-.59 0-1.1.16-1.54.47s-.79.72-1.04 1.23v7.53h-1.81v-15h1.81v5.71z"/><path d="m628.23 446.23c-.1-.21-.19-.58-.25-1.11-.84.87-1.84 1.31-3.01 1.31-1.04 0-1.9-.29-2.56-.88-.67-.59-1-1.34-1-2.24 0-1.1.42-1.96 1.25-2.56.84-.61 2.01-.91 3.53-.91h1.76v-.83c0-.63-.19-1.13-.57-1.51s-.93-.56-1.67-.56c-.64 0-1.19.16-1.62.49-.44.33-.65.72-.65 1.18h-1.82c0-.53.19-1.04.56-1.53s.88-.88 1.52-1.17 1.35-.43 2.11-.43c1.22 0 2.17.3 2.86.91s1.05 1.45 1.07 2.51v4.86c0 .97.12 1.74.37 2.31v.16h-1.89zm-3-1.38c.57 0 1.1-.15 1.61-.44s.88-.67 1.1-1.14v-2.17h-1.42c-2.21 0-3.32.65-3.32 1.94 0 .57.19 1.01.57 1.33s.86.48 1.46.48z"/><path d="m634.3 435.66.06 1.33c.81-1.02 1.86-1.52 3.16-1.52 2.23 0 3.36 1.26 3.38 3.78v6.98h-1.81v-6.99c0-.76-.18-1.32-.52-1.69-.34-.36-.87-.55-1.6-.55-.59 0-1.1.16-1.54.47s-.79.72-1.04 1.23v7.53h-1.81v-10.57h1.71z"/><path d="m643.2 440.86c0-1.65.38-2.96 1.14-3.93s1.77-1.46 3.03-1.46 2.29.46 3.02 1.37l.09-1.17h1.65v10.31c0 1.37-.41 2.45-1.22 3.23-.81.79-1.9 1.18-3.27 1.18-.76 0-1.51-.16-2.24-.49-.73-.32-1.29-.77-1.67-1.34l.94-1.08c.77.96 1.72 1.44 2.84 1.44.88 0 1.56-.25 2.06-.74.49-.49.74-1.19.74-2.09v-.91c-.72.83-1.71 1.25-2.96 1.25s-2.24-.5-3-1.49c-.77-1-1.15-2.35-1.15-4.07zm1.82.21c0 1.19.24 2.13.73 2.81s1.17 1.02 2.05 1.02c1.14 0 1.98-.52 2.51-1.55v-4.82c-.55-1.01-1.38-1.51-2.49-1.51-.88 0-1.57.34-2.06 1.03-.5.68-.74 1.7-.74 3.04z"/><path d="m659.23 446.43c-1.43 0-2.6-.47-3.5-1.41s-1.35-2.2-1.35-3.78v-.33c0-1.05.2-1.98.6-2.81.4-.82.96-1.47 1.68-1.93.72-.47 1.5-.7 2.34-.7 1.37 0 2.44.45 3.2 1.36s1.14 2.2 1.14 3.89v.75h-7.16c.03 1.04.33 1.88.91 2.53.58.64 1.32.96 2.22.96.64 0 1.18-.13 1.62-.39s.83-.61 1.16-1.04l1.1.86c-.89 1.36-2.21 2.04-3.98 2.04zm-.22-9.47c-.73 0-1.34.27-1.84.8s-.8 1.27-.92 2.23h5.29v-.14c-.05-.92-.3-1.63-.74-2.13-.44-.51-1.04-.76-1.8-.76z"/><path d="m724.66 419.51h6.74v1.53h-8.62v-14.22h1.88z"/><path d="m732.77 415.67c0-1.04.2-1.97.61-2.79.41-.83.97-1.46 1.7-1.91s1.55-.67 2.49-.67c1.44 0 2.6.5 3.49 1.49s1.33 2.32 1.33 3.97v.13c0 1.03-.2 1.95-.59 2.77s-.96 1.45-1.69 1.91-1.57.68-2.52.68c-1.43 0-2.59-.5-3.48-1.49s-1.33-2.31-1.33-3.96v-.13zm1.82.21c0 1.17.27 2.11.82 2.82.54.71 1.27 1.06 2.18 1.06s1.65-.36 2.19-1.08.81-1.73.81-3.02c0-1.16-.27-2.1-.83-2.82-.55-.72-1.28-1.08-2.19-1.08s-1.61.35-2.16 1.06-.82 1.73-.82 3.05z"/><path d="m746.37 410.48.06 1.33c.81-1.02 1.86-1.52 3.16-1.52 2.23 0 3.36 1.26 3.38 3.78v6.98h-1.81v-6.99c0-.76-.18-1.33-.52-1.69s-.87-.55-1.6-.55c-.59 0-1.1.16-1.54.47s-.79.72-1.04 1.23v7.53h-1.81v-10.57h1.71z"/><path d="m755.26 415.68c0-1.65.38-2.96 1.14-3.93s1.77-1.46 3.03-1.46 2.29.46 3.02 1.37l.09-1.17h1.65v10.31c0 1.37-.41 2.44-1.22 3.23s-1.9 1.18-3.27 1.18c-.76 0-1.51-.16-2.24-.49s-1.29-.77-1.67-1.34l.94-1.08c.78.96 1.72 1.44 2.84 1.44.88 0 1.56-.25 2.06-.74.49-.5.74-1.19.74-2.09v-.91c-.72.83-1.71 1.25-2.96 1.25s-2.24-.5-3-1.49c-.76-1-1.15-2.35-1.15-4.07zm1.82.21c0 1.19.24 2.13.73 2.81s1.17 1.02 2.05 1.02c1.14 0 1.98-.52 2.51-1.55v-4.82c-.55-1.01-1.38-1.51-2.49-1.51-.88 0-1.57.34-2.06 1.03-.49.68-.74 1.7-.74 3.04z"/><path d="m774.03 419.51h6.74v1.53h-8.62v-14.22h1.88z"/><path d="m782.63 407.68c0-.29.09-.54.27-.74s.44-.3.8-.3.62.1.8.3.27.45.27.74-.09.54-.27.73c-.18.2-.45.29-.8.29s-.62-.1-.8-.29c-.18-.2-.27-.44-.27-.73zm1.95 13.37h-1.81v-10.57h1.81z"/><path d="m790.96 418.6 2.62-8.12h1.85l-3.79 10.57h-1.38l-3.83-10.57h1.85l2.69 8.12z"/><path d="m801.42 421.24c-1.43 0-2.6-.47-3.5-1.41s-1.35-2.2-1.35-3.77v-.33c0-1.05.2-1.98.6-2.81s.96-1.47 1.68-1.93c.72-.47 1.5-.7 2.34-.7 1.37 0 2.44.45 3.2 1.36s1.14 2.2 1.14 3.89v.75h-7.16c.03 1.04.33 1.88.91 2.52s1.32.96 2.22.96c.64 0 1.18-.13 1.62-.39s.83-.61 1.16-1.04l1.1.86c-.88 1.36-2.21 2.04-3.98 2.04zm-.22-9.47c-.73 0-1.34.27-1.84.8-.49.53-.8 1.27-.92 2.23h5.29v-.14c-.05-.92-.3-1.63-.74-2.13s-1.04-.76-1.8-.76z"/><path d="m807.2 415.68c0-1.62.38-2.92 1.15-3.91s1.77-1.48 3.02-1.48 2.22.42 2.94 1.27v-5.51h1.81v15h-1.66l-.09-1.13c-.72.89-1.73 1.33-3.02 1.33s-2.22-.5-2.99-1.5-1.16-2.31-1.16-3.93zm1.81.21c0 1.2.25 2.14.74 2.81.5.68 1.18 1.02 2.05 1.02 1.15 0 1.98-.51 2.51-1.54v-4.85c-.54-1-1.37-1.49-2.49-1.49-.88 0-1.58.34-2.07 1.03-.49.68-.74 1.7-.74 3.04z"/><path d="m727.66 437.42h3.96v1.71h-3.96v4.49h-1.82v-4.49h-3.96v-1.71h3.96v-4.15h1.82z"/><path d="m743.88 436.1c-.27-.05-.57-.07-.89-.07-1.18 0-1.99.5-2.41 1.51v7.5h-1.81v-10.57h1.76l.03 1.22c.59-.94 1.43-1.42 2.52-1.42.35 0 .62.05.8.14v1.68z"/><path d="m749.74 445.24c-1.43 0-2.6-.47-3.5-1.41s-1.35-2.2-1.35-3.77v-.33c0-1.05.2-1.98.6-2.81s.96-1.47 1.68-1.93c.72-.47 1.5-.7 2.34-.7 1.37 0 2.44.45 3.2 1.36s1.14 2.2 1.14 3.89v.75h-7.16c.03 1.04.33 1.88.91 2.52s1.32.96 2.22.96c.64 0 1.18-.13 1.62-.39s.83-.61 1.16-1.04l1.1.86c-.88 1.36-2.21 2.04-3.98 2.04zm-.22-9.47c-.73 0-1.34.27-1.84.8-.49.53-.8 1.27-.92 2.23h5.29v-.14c-.05-.92-.3-1.63-.74-2.13s-1.04-.76-1.8-.76z"/><path d="m755.52 439.68c0-1.62.38-2.92 1.15-3.91s1.77-1.48 3.02-1.48 2.22.42 2.94 1.27v-5.51h1.81v15h-1.66l-.09-1.13c-.72.89-1.73 1.33-3.02 1.33s-2.22-.5-2.99-1.5-1.16-2.31-1.16-3.93zm1.81.21c0 1.2.25 2.14.74 2.81.5.68 1.18 1.02 2.05 1.02 1.15 0 1.98-.51 2.51-1.54v-4.85c-.54-1-1.37-1.49-2.49-1.49-.88 0-1.58.34-2.07 1.03-.49.68-.74 1.7-.74 3.04z"/><path d="m773.76 444c-.7.83-1.73 1.24-3.1 1.24-1.13 0-1.98-.33-2.57-.98s-.89-1.62-.89-2.91v-6.88h1.81v6.83c0 1.6.65 2.4 1.95 2.4 1.38 0 2.3-.51 2.75-1.54v-7.69h1.81v10.57h-1.72z"/><path d="m782.5 443.77c.64 0 1.21-.2 1.69-.59s.75-.88.8-1.46h1.71c-.03.61-.24 1.18-.62 1.73s-.9.98-1.54 1.31-1.32.49-2.04.49c-1.44 0-2.58-.48-3.43-1.44s-1.27-2.27-1.27-3.94v-.3c0-1.03.19-1.94.57-2.74s.92-1.42 1.63-1.87c.71-.44 1.54-.66 2.5-.66 1.19 0 2.17.35 2.95 1.06.79.71 1.2 1.63 1.25 2.76h-1.71c-.05-.68-.31-1.25-.78-1.68-.46-.44-1.04-.66-1.72-.66-.92 0-1.63.33-2.13.99s-.76 1.62-.76 2.87v.34c0 1.22.25 2.16.75 2.81.5.66 1.22.99 2.15.99z"/><path d="m793.11 445.24c-1.43 0-2.6-.47-3.5-1.41s-1.35-2.2-1.35-3.77v-.33c0-1.05.2-1.98.6-2.81s.96-1.47 1.68-1.93c.72-.47 1.5-.7 2.34-.7 1.37 0 2.44.45 3.2 1.36s1.14 2.2 1.14 3.89v.75h-7.16c.03 1.04.33 1.88.91 2.52s1.32.96 2.22.96c.64 0 1.18-.13 1.62-.39s.83-.61 1.16-1.04l1.1.86c-.88 1.36-2.21 2.04-3.98 2.04zm-.22-9.47c-.73 0-1.34.27-1.84.8-.49.53-.8 1.27-.92 2.23h5.29v-.14c-.05-.92-.3-1.63-.74-2.13s-1.04-.76-1.8-.76z"/><path d="m798.88 439.68c0-1.62.38-2.92 1.15-3.91s1.77-1.48 3.02-1.48 2.22.42 2.94 1.27v-5.51h1.81v15h-1.66l-.09-1.13c-.72.89-1.73 1.33-3.02 1.33s-2.22-.5-2.99-1.5-1.16-2.31-1.16-3.93zm1.81.21c0 1.2.25 2.14.74 2.81.5.68 1.18 1.02 2.05 1.02 1.15 0 1.98-.51 2.51-1.54v-4.85c-.54-1-1.37-1.49-2.49-1.49-.88 0-1.58.34-2.07 1.03-.49.68-.74 1.7-.74 3.04z"/><path d="m731.41 463.88c0 1.61-.37 2.9-1.1 3.89-.74.98-1.73 1.47-2.99 1.47s-2.29-.41-3.03-1.22v5.09h-1.81v-14.63h1.65l.09 1.17c.74-.91 1.76-1.37 3.07-1.37s2.27.48 3.01 1.44 1.11 2.29 1.11 3.99zm-1.81-.21c0-1.19-.25-2.13-.76-2.82s-1.2-1.04-2.09-1.04c-1.09 0-1.91.49-2.46 1.46v5.05c.54.96 1.37 1.45 2.48 1.45.87 0 1.55-.34 2.07-1.03.51-.69.77-1.71.77-3.06z"/><path d="m738.82 460.1c-.27-.05-.57-.07-.89-.07-1.18 0-1.99.5-2.41 1.51v7.5h-1.81v-10.57h1.76l.03 1.22c.59-.94 1.43-1.42 2.52-1.42.35 0 .62.05.8.14v1.68z"/><path d="m740.49 455.68c0-.29.09-.54.27-.74s.44-.3.8-.3.62.1.8.3.27.45.27.74-.09.54-.27.73c-.18.2-.45.29-.8.29s-.62-.1-.8-.29c-.18-.2-.27-.44-.27-.73zm1.95 13.37h-1.81v-10.57h1.81z"/><path d="m748.82 466.6 2.62-8.12h1.85l-3.79 10.57h-1.38l-3.83-10.57h1.85l2.69 8.12z"/><path d="m755.03 455.68c0-.29.09-.54.27-.74s.44-.3.8-.3.62.1.8.3.27.45.27.74-.09.54-.27.73c-.18.2-.45.29-.8.29s-.62-.1-.8-.29c-.18-.2-.27-.44-.27-.73zm1.95 13.37h-1.81v-10.57h1.81z"/><path d="m761.83 469.05h-1.81v-15h1.81z"/><path d="m769.11 469.24c-1.43 0-2.6-.47-3.5-1.41s-1.35-2.2-1.35-3.77v-.33c0-1.05.2-1.98.6-2.81s.96-1.47 1.68-1.93c.72-.47 1.5-.7 2.34-.7 1.37 0 2.44.45 3.2 1.36s1.14 2.2 1.14 3.89v.75h-7.16c.03 1.04.33 1.88.91 2.52s1.32.96 2.22.96c.64 0 1.18-.13 1.62-.39s.83-.61 1.16-1.04l1.1.86c-.88 1.36-2.21 2.04-3.98 2.04zm-.22-9.47c-.73 0-1.34.27-1.84.8-.49.53-.8 1.27-.92 2.23h5.29v-.14c-.05-.92-.3-1.63-.74-2.13s-1.04-.76-1.8-.76z"/><path d="m774.89 463.68c0-1.65.38-2.96 1.14-3.93s1.77-1.46 3.03-1.46 2.29.46 3.02 1.37l.09-1.17h1.65v10.31c0 1.37-.41 2.44-1.22 3.23s-1.9 1.18-3.27 1.18c-.76 0-1.51-.16-2.24-.49s-1.29-.77-1.67-1.34l.94-1.08c.78.96 1.72 1.44 2.84 1.44.88 0 1.56-.25 2.06-.74.49-.5.74-1.19.74-2.09v-.91c-.72.83-1.71 1.25-2.96 1.25s-2.24-.5-3-1.49c-.76-1-1.15-2.35-1.15-4.07zm1.82.21c0 1.19.24 2.13.73 2.81s1.17 1.02 2.05 1.02c1.14 0 1.98-.52 2.51-1.55v-4.82c-.55-1.01-1.38-1.51-2.49-1.51-.88 0-1.57.34-2.06 1.03-.49.68-.74 1.7-.74 3.04z"/><path d="m790.93 469.24c-1.43 0-2.6-.47-3.5-1.41s-1.35-2.2-1.35-3.77v-.33c0-1.05.2-1.98.6-2.81s.96-1.47 1.68-1.93c.72-.47 1.5-.7 2.34-.7 1.37 0 2.44.45 3.2 1.36s1.14 2.2 1.14 3.89v.75h-7.16c.03 1.04.33 1.88.91 2.52s1.32.96 2.22.96c.64 0 1.18-.13 1.62-.39s.83-.61 1.16-1.04l1.1.86c-.88 1.36-2.21 2.04-3.98 2.04zm-.22-9.47c-.73 0-1.34.27-1.84.8-.49.53-.8 1.27-.92 2.23h5.29v-.14c-.05-.92-.3-1.63-.74-2.13s-1.04-.76-1.8-.76z"/><path d="m803.29 466.25c0-.49-.18-.87-.55-1.14s-1.01-.5-1.92-.7-1.64-.43-2.18-.7-.93-.6-1.19-.98-.39-.83-.39-1.35c0-.87.37-1.6 1.1-2.2s1.67-.9 2.81-.9c1.2 0 2.17.31 2.92.93s1.12 1.41 1.12 2.37h-1.82c0-.5-.21-.92-.63-1.28s-.95-.54-1.59-.54-1.17.14-1.54.43-.56.66-.56 1.12c0 .44.17.76.52.99.35.22.97.43 1.87.63s1.63.44 2.19.72.98.62 1.25 1.01.41.87.41 1.44c0 .94-.38 1.7-1.13 2.27s-1.73.85-2.94.85c-.85 0-1.59-.15-2.25-.45-.65-.3-1.16-.72-1.53-1.25-.37-.54-.55-1.12-.55-1.74h1.81c.03.61.28 1.09.73 1.44s1.05.53 1.79.53c.68 0 1.23-.14 1.65-.42.41-.28.62-.65.62-1.11z"/></g><path d="m862.24 445.97 6.35-6.35-4.52-4.52c-2.56 1.62-5.98 1.32-8.21-.91s-2.53-5.65-.91-8.21l-4.52-4.52-31.07 31.07c-.99.99-.99 2.62 0 3.61l14.56 14.56c.99.99 2.62.99 3.61 0l27.66-27.66" fill="#fff" stroke="#48a69e" stroke-miterlimit="10" stroke-width="1.54"/><circle cx="847.02" cy="435.84" fill="#48a69e" r="1.16"/><circle cx="850.5" cy="439.32" fill="#48a69e" r="1.16"/><circle cx="853.98" cy="442.8" fill="#48a69e" r="1.16"/><path d="m124.32 544.4h-1.82v-12.04l-3.64 1.34v-1.64l5.18-1.94h.28v14.29z" fill="#646e85"/><path d="m129.84 543.46c0-.31.09-.57.28-.78s.46-.31.83-.31.65.1.84.31.29.47.29.78-.1.55-.29.75-.47.3-.84.3-.65-.1-.83-.3-.28-.45-.28-.75z" fill="#646e85"/><path d="m148.15 540.68h-5.96l-1.34 3.72h-1.93l5.43-14.22h1.64l5.44 14.22h-1.92zm-5.39-1.53h4.83l-2.42-6.65z" fill="#646e85"/><path d="m159.47 543.36c-.7.83-1.73 1.24-3.1 1.24-1.13 0-1.98-.33-2.57-.98s-.89-1.62-.89-2.91v-6.88h1.81v6.83c0 1.6.65 2.4 1.95 2.4 1.38 0 2.3-.51 2.75-1.54v-7.69h1.81v10.57h-1.72z" fill="#646e85"/><path d="m166.43 531.28v2.56h1.97v1.4h-1.97v6.56c0 .42.09.74.26.95s.48.32.9.32c.21 0 .5-.04.86-.12v1.46c-.47.13-.94.19-1.39.19-.81 0-1.42-.24-1.83-.73s-.62-1.18-.62-2.08v-6.55h-1.92v-1.4h1.92v-2.56h1.81z" fill="#646e85"/><path d="m172.32 535.12c.8-.98 1.84-1.47 3.12-1.47 2.23 0 3.36 1.26 3.38 3.78v6.98h-1.81v-6.99c0-.76-.18-1.33-.52-1.69s-.87-.55-1.6-.55c-.59 0-1.1.16-1.54.47s-.79.72-1.04 1.23v7.53h-1.81v-15h1.81v5.71z" fill="#646e85"/><path d="m185.91 544.6c-1.43 0-2.6-.47-3.5-1.41s-1.35-2.2-1.35-3.77v-.33c0-1.05.2-1.98.6-2.81s.96-1.47 1.68-1.93c.72-.47 1.5-.7 2.34-.7 1.37 0 2.44.45 3.2 1.36s1.14 2.2 1.14 3.89v.75h-7.16c.03 1.04.33 1.88.91 2.52s1.32.96 2.22.96c.64 0 1.18-.13 1.62-.39s.83-.61 1.16-1.04l1.1.86c-.88 1.36-2.21 2.04-3.98 2.04zm-.22-9.47c-.73 0-1.34.27-1.84.8-.49.53-.8 1.27-.92 2.23h5.29v-.14c-.05-.92-.3-1.63-.74-2.13s-1.04-.76-1.8-.76z" fill="#646e85"/><path d="m193.83 533.84.06 1.33c.81-1.02 1.86-1.52 3.16-1.52 2.23 0 3.36 1.26 3.38 3.78v6.98h-1.81v-6.99c0-.76-.18-1.33-.52-1.69s-.87-.55-1.6-.55c-.59 0-1.1.16-1.54.47s-.79.72-1.04 1.23v7.53h-1.81v-10.57h1.71z" fill="#646e85"/><path d="m205.61 531.28v2.56h1.97v1.4h-1.97v6.56c0 .42.09.74.26.95s.48.32.9.32c.21 0 .5-.04.86-.12v1.46c-.47.13-.94.19-1.39.19-.81 0-1.42-.24-1.83-.73s-.62-1.18-.62-2.08v-6.55h-1.92v-1.4h1.92v-2.56h1.81z" fill="#646e85"/><path d="m209.7 531.03c0-.29.09-.54.27-.74s.44-.3.8-.3.62.1.8.3.27.45.27.74-.09.54-.27.73c-.18.2-.45.29-.8.29s-.62-.1-.8-.29c-.18-.2-.27-.44-.27-.73zm1.95 13.37h-1.81v-10.57h1.81z" fill="#646e85"/><path d="m218.78 543.12c.64 0 1.21-.2 1.69-.59s.75-.88.8-1.46h1.71c-.03.61-.24 1.18-.62 1.73s-.9.98-1.54 1.31-1.32.49-2.04.49c-1.44 0-2.58-.48-3.43-1.44s-1.27-2.27-1.27-3.94v-.3c0-1.03.19-1.94.57-2.74s.92-1.42 1.63-1.87c.71-.44 1.54-.66 2.5-.66 1.19 0 2.17.35 2.95 1.06.79.71 1.2 1.63 1.25 2.76h-1.71c-.05-.68-.31-1.25-.78-1.68-.46-.44-1.04-.66-1.72-.66-.92 0-1.63.33-2.13.99s-.76 1.62-.76 2.87v.34c0 1.22.25 2.16.75 2.81.5.66 1.22.99 2.15.99z" fill="#646e85"/><path d="m231.54 544.4c-.1-.21-.19-.58-.25-1.11-.84.87-1.84 1.31-3.01 1.31-1.04 0-1.9-.29-2.56-.88-.67-.59-1-1.34-1-2.24 0-1.1.42-1.96 1.25-2.56.84-.61 2.01-.91 3.53-.91h1.76v-.83c0-.63-.19-1.13-.57-1.51-.38-.37-.93-.56-1.67-.56-.64 0-1.18.16-1.62.49s-.65.72-.65 1.18h-1.82c0-.53.19-1.04.56-1.53.38-.49.88-.88 1.52-1.17s1.35-.43 2.11-.43c1.22 0 2.17.3 2.86.91s1.05 1.45 1.07 2.51v4.86c0 .97.12 1.74.37 2.31v.16h-1.89zm-3-1.38c.57 0 1.1-.15 1.61-.44s.88-.67 1.1-1.14v-2.17h-1.42c-2.21 0-3.32.65-3.32 1.94 0 .57.19 1.01.57 1.33s.86.48 1.46.48z" fill="#646e85"/><path d="m238.34 531.28v2.56h1.97v1.4h-1.97v6.56c0 .42.09.74.26.95s.48.32.9.32c.21 0 .5-.04.86-.12v1.46c-.47.13-.94.19-1.39.19-.81 0-1.42-.24-1.83-.73s-.62-1.18-.62-2.08v-6.55h-1.92v-1.4h1.92v-2.56h1.81z" fill="#646e85"/><path d="m246.81 544.6c-1.43 0-2.6-.47-3.5-1.41s-1.35-2.2-1.35-3.77v-.33c0-1.05.2-1.98.6-2.81s.96-1.47 1.68-1.93c.72-.47 1.5-.7 2.34-.7 1.37 0 2.44.45 3.2 1.36s1.14 2.2 1.14 3.89v.75h-7.16c.03 1.04.33 1.88.91 2.52s1.32.96 2.22.96c.64 0 1.18-.13 1.62-.39s.83-.61 1.16-1.04l1.1.86c-.88 1.36-2.21 2.04-3.98 2.04zm-.22-9.47c-.73 0-1.34.27-1.84.8-.49.53-.8 1.27-.92 2.23h5.29v-.14c-.05-.92-.3-1.63-.74-2.13s-1.04-.76-1.8-.76z" fill="#646e85"/><path d="m128.86 554.18v9.67c0 1.34-.43 2.44-1.26 3.29-.84.85-1.97 1.33-3.4 1.44l-.5.02c-1.56 0-2.8-.42-3.72-1.26s-1.39-2-1.41-3.47v-9.69h1.86v9.63c0 1.03.28 1.83.85 2.4s1.37.85 2.42.85 1.87-.28 2.44-.85c.56-.57.84-1.36.84-2.39v-9.64z" fill="#646e85"/><path d="m137.69 565.6c0-.49-.18-.87-.55-1.14s-1.01-.5-1.92-.7-1.64-.43-2.18-.7-.93-.6-1.19-.98-.39-.83-.39-1.35c0-.87.37-1.6 1.1-2.2s1.67-.9 2.81-.9c1.2 0 2.17.31 2.92.93s1.12 1.41 1.12 2.37h-1.82c0-.5-.21-.92-.63-1.28s-.95-.54-1.59-.54-1.17.14-1.54.43-.56.66-.56 1.12c0 .44.17.76.52.99.35.22.97.43 1.87.63s1.63.44 2.19.72.98.62 1.25 1.01.41.87.41 1.44c0 .94-.38 1.7-1.13 2.27s-1.73.85-2.94.85c-.85 0-1.59-.15-2.25-.45-.65-.3-1.16-.72-1.53-1.25-.37-.54-.55-1.12-.55-1.74h1.81c.03.61.28 1.09.73 1.44s1.05.53 1.79.53c.68 0 1.23-.14 1.65-.42.41-.28.62-.65.62-1.11z" fill="#646e85"/><path d="m146.23 568.6c-1.43 0-2.6-.47-3.5-1.41s-1.35-2.2-1.35-3.77v-.33c0-1.05.2-1.98.6-2.81s.96-1.47 1.68-1.93c.72-.47 1.5-.7 2.34-.7 1.37 0 2.44.45 3.2 1.36s1.14 2.2 1.14 3.89v.75h-7.16c.03 1.04.33 1.88.91 2.52s1.32.96 2.22.96c.64 0 1.18-.13 1.62-.39s.83-.61 1.16-1.04l1.1.86c-.88 1.36-2.21 2.04-3.98 2.04zm-.22-9.47c-.73 0-1.34.27-1.84.8-.49.53-.8 1.27-.92 2.23h5.29v-.14c-.05-.92-.3-1.63-.74-2.13s-1.04-.76-1.8-.76z" fill="#646e85"/><path d="m157.55 559.46c-.27-.05-.57-.07-.89-.07-1.18 0-1.99.5-2.41 1.51v7.5h-1.81v-10.57h1.76l.03 1.22c.59-.94 1.43-1.42 2.52-1.42.35 0 .62.05.8.14v1.68z" fill="#646e85"/><path d="m100.96 614.57v-96.8-50.69-54.66" fill="none" stroke="#646e85" stroke-miterlimit="10" stroke-width="2.5"/><path d="m94.61 611.4h12.7c.6 0 .95.68.6 1.16l-6.35 8.95c-.29.41-.91.41-1.2 0l-6.35-8.95c-.35-.49 0-1.16.6-1.16z" fill="#646e85"/><path d="m487.55 283.32 6.35-6.35-4.52-4.52c-2.56 1.62-5.98 1.32-8.21-.91s-2.53-5.65-.91-8.21l-4.52-4.52-31.07 31.07c-.99.99-.99 2.62 0 3.61l14.56 14.56c.99.99 2.62.99 3.61 0l27.66-27.66" fill="#fff" stroke="#48a69e" stroke-miterlimit="10" stroke-width="1.54"/><circle cx="472.33" cy="273.2" fill="#48a69e" r="1.16"/><circle cx="475.8" cy="276.67" fill="#48a69e" r="1.16"/><circle cx="479.28" cy="280.15" fill="#48a69e" r="1.16"/><rect fill="none" height="73.23" rx="6.4" stroke="#646e85" stroke-miterlimit="10" stroke-width="2.5" width="460.98" x="528.16" y="36.84"/><path d="m673.7 62.98 5.81 14.5 5.81-14.5h3.04v17.77h-2.34v-6.92l.22-7.47-5.83 14.39h-1.79l-5.82-14.36.23 7.43v6.92h-2.34v-17.77h3.03z" fill="#646e85"/><path d="m697.63 81c-1.79 0-3.25-.59-4.37-1.76s-1.68-2.75-1.68-4.72v-.41c0-1.31.25-2.48.75-3.51s1.2-1.83 2.1-2.42 1.87-.87 2.92-.87c1.72 0 3.05.57 4 1.7s1.43 2.75 1.43 4.86v.94h-8.95c.03 1.3.41 2.35 1.14 3.16.73.8 1.65 1.2 2.78 1.2.8 0 1.47-.16 2.03-.49.55-.33 1.04-.76 1.45-1.29l1.38 1.07c-1.11 1.7-2.77 2.55-4.98 2.55zm-.28-11.84c-.91 0-1.68.33-2.29 1-.62.66-1 1.59-1.15 2.79h6.62v-.17c-.07-1.15-.38-2.04-.93-2.67s-1.3-.95-2.25-.95z" fill="#646e85"/><path d="m713.08 77.25c0-.61-.23-1.08-.69-1.42s-1.26-.63-2.41-.87c-1.14-.24-2.05-.54-2.72-.88s-1.17-.75-1.49-1.22-.48-1.03-.48-1.68c0-1.08.46-2 1.37-2.75.92-.75 2.09-1.12 3.51-1.12 1.5 0 2.71.39 3.64 1.16s1.4 1.76 1.4 2.97h-2.27c0-.62-.26-1.15-.79-1.6-.52-.45-1.19-.67-1.98-.67s-1.46.18-1.93.54-.7.83-.7 1.4c0 .55.21.96.65 1.23s1.21.54 2.34.79 2.04.55 2.74.9 1.22.77 1.56 1.26.51 1.09.51 1.8c0 1.18-.47 2.13-1.42 2.84-.94.71-2.17 1.07-3.67 1.07-1.06 0-1.99-.19-2.81-.56s-1.45-.9-1.91-1.57-.69-1.4-.69-2.18h2.26c.04.76.34 1.36.91 1.8s1.31.67 2.24.67c.85 0 1.54-.17 2.06-.52s.78-.81.78-1.39z" fill="#646e85"/><path d="m725.97 77.25c0-.61-.23-1.08-.69-1.42s-1.26-.63-2.41-.87c-1.14-.24-2.05-.54-2.72-.88s-1.17-.75-1.49-1.22-.48-1.03-.48-1.68c0-1.08.46-2 1.37-2.75.92-.75 2.09-1.12 3.51-1.12 1.5 0 2.71.39 3.64 1.16s1.4 1.76 1.4 2.97h-2.27c0-.62-.26-1.15-.79-1.6-.52-.45-1.19-.67-1.98-.67s-1.46.18-1.93.54-.7.83-.7 1.4c0 .55.21.96.65 1.23s1.21.54 2.34.79 2.04.55 2.74.9 1.22.77 1.56 1.26.51 1.09.51 1.8c0 1.18-.47 2.13-1.42 2.84-.94.71-2.17 1.07-3.67 1.07-1.06 0-1.99-.19-2.81-.56s-1.45-.9-1.91-1.57-.69-1.4-.69-2.18h2.26c.04.76.34 1.36.91 1.8s1.31.67 2.24.67c.85 0 1.54-.17 2.06-.52s.78-.81.78-1.39z" fill="#646e85"/><path d="m739.33 80.76c-.13-.26-.24-.72-.32-1.39-1.05 1.09-2.3 1.64-3.76 1.64-1.3 0-2.37-.37-3.2-1.1s-1.25-1.67-1.25-2.8c0-1.38.52-2.44 1.57-3.2s2.52-1.14 4.41-1.14h2.2v-1.04c0-.79-.24-1.42-.71-1.89s-1.17-.7-2.09-.7c-.81 0-1.48.2-2.03.61-.54.41-.82.9-.82 1.48h-2.27c0-.66.23-1.3.7-1.91s1.1-1.1 1.9-1.46 1.68-.54 2.64-.54c1.52 0 2.71.38 3.58 1.14s1.31 1.81 1.34 3.14v6.08c0 1.21.15 2.18.46 2.89v.2h-2.37zm-3.75-1.72c.71 0 1.38-.18 2.01-.55s1.09-.84 1.38-1.43v-2.71h-1.77c-2.77 0-4.15.81-4.15 2.43 0 .71.24 1.26.71 1.66s1.08.6 1.82.6z" fill="#646e85"/><path d="m744.23 74.04c0-2.06.48-3.7 1.43-4.91s2.21-1.83 3.78-1.83 2.87.57 3.77 1.71l.11-1.46h2.06v12.89c0 1.71-.51 3.06-1.52 4.04-1.01.99-2.37 1.48-4.08 1.48-.95 0-1.88-.2-2.8-.61s-1.61-.96-2.09-1.67l1.17-1.36c.97 1.2 2.15 1.79 3.55 1.79 1.1 0 1.96-.31 2.57-.93.62-.62.92-1.49.92-2.61v-1.13c-.9 1.04-2.14 1.56-3.7 1.56s-2.8-.62-3.75-1.87c-.96-1.25-1.43-2.94-1.43-5.09zm2.27.26c0 1.49.31 2.66.92 3.51s1.46 1.28 2.56 1.28c1.42 0 2.47-.65 3.14-1.94v-6.03c-.69-1.26-1.73-1.89-3.11-1.89-1.1 0-1.96.43-2.58 1.28s-.93 2.12-.93 3.8z" fill="#646e85"/><path d="m764.28 81c-1.79 0-3.25-.59-4.37-1.76s-1.68-2.75-1.68-4.72v-.41c0-1.31.25-2.48.75-3.51s1.2-1.83 2.1-2.42 1.87-.87 2.92-.87c1.72 0 3.05.57 4 1.7s1.43 2.75 1.43 4.86v.94h-8.95c.03 1.3.41 2.35 1.14 3.16.73.8 1.65 1.2 2.78 1.2.8 0 1.47-.16 2.03-.49.55-.33 1.04-.76 1.45-1.29l1.38 1.07c-1.11 1.7-2.77 2.55-4.98 2.55zm-.28-11.84c-.91 0-1.68.33-2.29 1-.62.66-1 1.59-1.15 2.79h6.62v-.17c-.07-1.15-.38-2.04-.93-2.67s-1.3-.95-2.25-.95z" fill="#646e85"/><path d="m778.58 80.76v-17.77h5.81c1.93 0 3.38.4 4.35 1.2s1.46 1.98 1.46 3.54c0 .83-.24 1.56-.71 2.2s-1.12 1.13-1.93 1.48c.96.27 1.72.78 2.28 1.53s.84 1.65.84 2.69c0 1.59-.52 2.85-1.55 3.76s-2.49 1.37-4.38 1.37zm2.34-10.19h3.54c1.03 0 1.85-.26 2.46-.77s.92-1.21.92-2.09c0-.98-.29-1.69-.85-2.13-.57-.44-1.44-.67-2.6-.67h-3.47zm0 1.88v6.4h3.87c1.09 0 1.95-.28 2.58-.85s.95-1.34.95-2.34c0-2.14-1.16-3.21-3.49-3.21z" fill="#646e85"/><path d="m800.18 69.58c-.34-.06-.71-.09-1.11-.09-1.48 0-2.49.63-3.01 1.89v9.38h-2.26v-13.21h2.2l.04 1.53c.74-1.18 1.79-1.77 3.15-1.77.44 0 .77.06 1 .17v2.1z" fill="#646e85"/><path d="m801.41 74.03c0-1.29.25-2.46.76-3.49s1.22-1.83 2.12-2.39c.91-.56 1.94-.84 3.11-.84 1.8 0 3.25.62 4.36 1.87 1.11 1.24 1.67 2.9 1.67 4.97v.16c0 1.29-.25 2.44-.74 3.46s-1.2 1.82-2.11 2.39c-.92.57-1.97.85-3.16.85-1.79 0-3.24-.62-4.35-1.87s-1.67-2.89-1.67-4.94v-.16zm2.27.27c0 1.46.34 2.64 1.02 3.53s1.59 1.33 2.73 1.33 2.06-.45 2.73-1.35 1.01-2.16 1.01-3.78c0-1.45-.34-2.62-1.03-3.52s-1.6-1.35-2.74-1.35-2.01.44-2.7 1.33c-.68.89-1.03 2.16-1.03 3.81z" fill="#646e85"/><path d="m819.96 74.64-1.42 1.48v4.64h-2.26v-18.75h2.26v11.34l1.21-1.45 4.11-4.35h2.75l-5.14 5.52 5.74 7.69h-2.65z" fill="#646e85"/><path d="m834.18 81c-1.79 0-3.25-.59-4.37-1.76s-1.68-2.75-1.68-4.72v-.41c0-1.31.25-2.48.75-3.51s1.2-1.83 2.1-2.42 1.87-.87 2.92-.87c1.72 0 3.05.57 4 1.7s1.43 2.75 1.43 4.86v.94h-8.95c.03 1.3.41 2.35 1.14 3.16.73.8 1.65 1.2 2.78 1.2.8 0 1.47-.16 2.03-.49.55-.33 1.04-.76 1.45-1.29l1.38 1.07c-1.11 1.7-2.77 2.55-4.98 2.55zm-.28-11.84c-.91 0-1.68.33-2.29 1-.62.66-1 1.59-1.15 2.79h6.62v-.17c-.07-1.15-.38-2.04-.93-2.67s-1.3-.95-2.25-.95z" fill="#646e85"/><path d="m848.32 69.58c-.34-.06-.71-.09-1.11-.09-1.48 0-2.49.63-3.01 1.89v9.38h-2.26v-13.21h2.2l.04 1.53c.74-1.18 1.79-1.77 3.15-1.77.44 0 .77.06 1 .17v2.1z" fill="#646e85"/><path d="m625.44 125.46v96.8 50.69" fill="none" stroke="#646e85" stroke-miterlimit="10" stroke-width="2.5"/><path d="m619.09 128.63h12.7c.6 0 .95-.68.6-1.16l-6.35-8.95c-.29-.41-.91-.41-1.2 0l-6.35 8.95c-.35.49 0 1.16.6 1.16z" fill="#646e85"/><path d="m689.93 159.64 6.35-6.35-4.52-4.52c-2.56 1.62-5.98 1.32-8.21-.91s-2.53-5.65-.91-8.21l-4.52-4.52-31.07 31.07c-.99.99-.99 2.62 0 3.61l14.56 14.56c.99.99 2.62.99 3.61 0l27.66-27.66" fill="#fff" stroke="#48a69e" stroke-miterlimit="10" stroke-width="1.54"/><circle cx="674.71" cy="149.51" fill="#48a69e" r="1.16"/><circle cx="678.18" cy="152.99" fill="#48a69e" r="1.16"/><circle cx="681.66" cy="156.47" fill="#48a69e" r="1.16"/><path d="m724.49 145.96h1.36c.85-.01 1.52-.24 2.01-.67s.73-1.03.73-1.77c0-1.67-.83-2.5-2.49-2.5-.78 0-1.41.22-1.87.67s-.7 1.04-.7 1.77h-1.81c0-1.13.41-2.06 1.24-2.81s1.87-1.12 3.14-1.12c1.34 0 2.39.35 3.15 1.06s1.14 1.7 1.14 2.96c0 .62-.2 1.22-.6 1.8s-.95 1.01-1.64 1.3c.78.25 1.39.66 1.81 1.23s.64 1.27.64 2.1c0 1.28-.42 2.29-1.25 3.04s-1.92 1.12-3.25 1.12-2.42-.36-3.26-1.08-1.25-1.68-1.25-2.86h1.82c0 .75.24 1.35.73 1.8s1.14.67 1.96.67c.87 0 1.54-.23 2-.68s.69-1.11.69-1.96-.25-1.46-.76-1.9-1.24-.67-2.2-.68h-1.36v-1.47z" fill="#646e85"/><path d="m733.32 153.01c0-.31.09-.57.28-.78s.46-.31.83-.31.65.1.84.31.29.47.29.78-.1.55-.29.75-.47.3-.84.3-.65-.1-.83-.3-.28-.45-.28-.75z" fill="#646e85"/><path d="m745.66 148.39v5.57h-1.88v-14.22h5.24c1.56 0 2.77.4 3.66 1.19s1.32 1.85 1.32 3.15c0 1.38-.43 2.44-1.29 3.19s-2.1 1.12-3.71 1.12h-3.35zm0-1.53h3.37c1 0 1.77-.24 2.3-.71s.8-1.16.8-2.05c0-.85-.27-1.53-.8-2.04s-1.27-.77-2.2-.79h-3.48v5.59z" fill="#646e85"/><path d="m762.64 152.91c-.7.83-1.74 1.24-3.1 1.24-1.13 0-1.98-.33-2.57-.98s-.89-1.62-.89-2.91v-6.88h1.81v6.83c0 1.6.65 2.4 1.95 2.4 1.38 0 2.3-.51 2.75-1.54v-7.69h1.81v10.57h-1.72z" fill="#646e85"/><path d="m776.08 148.79c0 1.61-.37 2.91-1.11 3.89s-1.74 1.47-2.99 1.47c-1.33 0-2.37-.47-3.1-1.42l-.09 1.22h-1.66v-15h1.81v5.6c.73-.91 1.74-1.36 3.02-1.36s2.29.49 3.02 1.46 1.1 2.3 1.1 3.98zm-1.81-.21c0-1.23-.24-2.18-.71-2.85s-1.16-1.01-2.05-1.01c-1.19 0-2.05.55-2.57 1.66v4.57c.55 1.11 1.42 1.66 2.59 1.66.87 0 1.54-.33 2.02-1.01s.72-1.68.72-3.03z" fill="#646e85"/><path d="m780.32 153.95h-1.81v-15h1.81z" fill="#646e85"/><path d="m783.22 140.58c0-.29.09-.54.27-.74s.44-.3.8-.3.62.1.8.3.27.45.27.74-.09.54-.27.73-.45.29-.8.29-.62-.1-.8-.29-.27-.44-.27-.73zm1.95 13.37h-1.81v-10.57h1.81z" fill="#646e85"/><path d="m794.22 151.15c0-.49-.18-.87-.55-1.14s-1.01-.5-1.92-.7-1.64-.43-2.18-.7-.93-.6-1.19-.98-.39-.83-.39-1.35c0-.87.37-1.6 1.1-2.2s1.67-.9 2.81-.9c1.2 0 2.17.31 2.92.93s1.12 1.41 1.12 2.37h-1.82c0-.5-.21-.92-.63-1.28s-.95-.54-1.59-.54-1.17.14-1.54.43-.56.66-.56 1.12c0 .44.17.76.52.99s.97.43 1.87.63 1.63.44 2.19.72.98.62 1.25 1.01.41.87.41 1.44c0 .94-.38 1.7-1.13 2.27s-1.74.85-2.94.85c-.85 0-1.59-.15-2.25-.45s-1.16-.72-1.53-1.25-.55-1.12-.55-1.74h1.81c.03.61.27 1.09.73 1.44s1.05.53 1.79.53c.68 0 1.23-.14 1.65-.42s.62-.65.62-1.11z" fill="#646e85"/><path d="m800.19 144.67c.8-.98 1.84-1.47 3.12-1.47 2.23 0 3.36 1.26 3.38 3.78v6.98h-1.81v-6.99c0-.76-.18-1.33-.52-1.69s-.87-.55-1.6-.55c-.59 0-1.1.16-1.54.47s-.79.72-1.04 1.23v7.53h-1.81v-15h1.81v5.71z" fill="#646e85"/><path d="m733.27 171.3c0 1.39-.23 2.61-.7 3.65s-1.13 1.83-1.99 2.38-1.86.82-3.01.82-2.11-.28-2.98-.83-1.54-1.33-2.02-2.35-.72-2.2-.74-3.54v-1.03c0-1.37.24-2.58.71-3.62s1.15-1.85 2.02-2.41 1.86-.83 2.98-.83 2.14.28 3.01.83 1.54 1.35 2.01 2.39.7 2.26.7 3.65v.9zm-1.87-.92c0-1.69-.34-2.98-1.02-3.88s-1.62-1.35-2.84-1.35-2.12.45-2.8 1.35-1.03 2.15-1.05 3.75v1.04c0 1.63.34 2.92 1.03 3.85s1.63 1.4 2.84 1.4 2.15-.44 2.81-1.32 1.01-2.15 1.03-3.79z" fill="#646e85"/><path d="m740.91 169.01c-.27-.05-.57-.07-.89-.07-1.18 0-1.99.5-2.41 1.51v7.5h-1.81v-10.57h1.76l.03 1.22c.59-.94 1.43-1.42 2.52-1.42.35 0 .62.05.8.14v1.68z" fill="#646e85"/><path d="m741.94 172.58c0-1.62.38-2.92 1.15-3.91s1.77-1.48 3.02-1.48 2.22.42 2.94 1.27v-5.51h1.81v15h-1.66l-.09-1.13c-.72.89-1.73 1.33-3.02 1.33s-2.22-.5-2.99-1.5-1.16-2.31-1.16-3.93zm1.81.21c0 1.2.25 2.14.74 2.81s1.18 1.02 2.05 1.02c1.15 0 1.98-.51 2.51-1.54v-4.85c-.54-1-1.37-1.49-2.49-1.49-.89 0-1.58.34-2.07 1.03s-.74 1.7-.74 3.04z" fill="#646e85"/><path d="m758.05 178.15c-1.43 0-2.6-.47-3.5-1.41s-1.35-2.2-1.35-3.77v-.33c0-1.05.2-1.98.6-2.81s.96-1.47 1.68-1.93 1.5-.7 2.34-.7c1.37 0 2.44.45 3.2 1.36s1.14 2.2 1.14 3.89v.75h-7.16c.03 1.04.33 1.88.91 2.52s1.32.96 2.22.96c.64 0 1.18-.13 1.62-.39s.83-.61 1.16-1.04l1.1.86c-.89 1.36-2.21 2.04-3.98 2.04zm-.22-9.47c-.73 0-1.34.27-1.84.8s-.8 1.27-.92 2.23h5.29v-.14c-.05-.92-.3-1.63-.74-2.13s-1.04-.76-1.8-.76z" fill="#646e85"/><path d="m769.37 169.01c-.27-.05-.57-.07-.89-.07-1.18 0-1.99.5-2.41 1.51v7.5h-1.81v-10.57h1.76l.03 1.22c.59-.94 1.43-1.42 2.52-1.42.35 0 .62.05.8.14v1.68z" fill="#646e85"/><path d="m781.77 173.44c-.18 1.5-.73 2.66-1.67 3.48s-2.18 1.23-3.73 1.23c-1.68 0-3.03-.6-4.04-1.81s-1.52-2.82-1.52-4.83v-1.37c0-1.32.24-2.48.71-3.49s1.14-1.77 2.01-2.31 1.87-.81 3.01-.81c1.51 0 2.72.42 3.63 1.26s1.44 2.01 1.59 3.5h-1.88c-.16-1.14-.52-1.96-1.06-2.47s-1.3-.76-2.28-.76c-1.2 0-2.14.44-2.82 1.33s-1.02 2.15-1.02 3.78v1.38c0 1.54.32 2.77.97 3.68s1.55 1.37 2.71 1.37c1.04 0 1.84-.24 2.4-.71s.93-1.29 1.11-2.47h1.88z" fill="#646e85"/><path d="m789.15 169.01c-.27-.05-.57-.07-.89-.07-1.18 0-1.99.5-2.41 1.51v7.5h-1.81v-10.57h1.76l.03 1.22c.59-.94 1.43-1.42 2.52-1.42.35 0 .62.05.8.14v1.68z" fill="#646e85"/><path d="m795.01 178.15c-1.43 0-2.6-.47-3.5-1.41s-1.35-2.2-1.35-3.77v-.33c0-1.05.2-1.98.6-2.81s.96-1.47 1.68-1.93 1.5-.7 2.34-.7c1.37 0 2.44.45 3.2 1.36s1.14 2.2 1.14 3.89v.75h-7.16c.03 1.04.33 1.88.91 2.52s1.32.96 2.22.96c.64 0 1.18-.13 1.62-.39s.83-.61 1.16-1.04l1.1.86c-.89 1.36-2.21 2.04-3.98 2.04zm-.22-9.47c-.73 0-1.34.27-1.84.8s-.8 1.27-.92 2.23h5.29v-.14c-.05-.92-.3-1.63-.74-2.13s-1.04-.76-1.8-.76z" fill="#646e85"/><path d="m807.75 177.95c-.1-.21-.19-.58-.25-1.11-.84.87-1.84 1.31-3.01 1.31-1.04 0-1.9-.29-2.56-.88s-1-1.34-1-2.24c0-1.1.42-1.96 1.25-2.56s2.01-.91 3.53-.91h1.76v-.83c0-.63-.19-1.13-.57-1.51s-.93-.56-1.67-.56c-.64 0-1.18.16-1.62.49s-.65.72-.65 1.18h-1.82c0-.53.19-1.04.56-1.53s.88-.88 1.52-1.17 1.35-.43 2.11-.43c1.22 0 2.17.3 2.86.91s1.05 1.45 1.07 2.51v4.86c0 .97.12 1.74.37 2.31v.16h-1.89zm-3-1.38c.57 0 1.1-.15 1.61-.44s.88-.67 1.1-1.14v-2.17h-1.42c-2.21 0-3.32.65-3.32 1.94 0 .57.19 1.01.57 1.33s.86.48 1.46.48z" fill="#646e85"/><path d="m814.55 164.83v2.56h1.97v1.4h-1.97v6.56c0 .42.09.74.26.95s.48.32.9.32c.21 0 .5-.04.86-.12v1.46c-.48.13-.94.19-1.39.19-.81 0-1.42-.24-1.83-.73s-.62-1.18-.62-2.08v-6.55h-1.92v-1.4h1.92v-2.56h1.81z" fill="#646e85"/><path d="m823.02 178.15c-1.43 0-2.6-.47-3.5-1.41s-1.35-2.2-1.35-3.77v-.33c0-1.05.2-1.98.6-2.81s.96-1.47 1.68-1.93 1.5-.7 2.34-.7c1.37 0 2.44.45 3.2 1.36s1.14 2.2 1.14 3.89v.75h-7.16c.03 1.04.33 1.88.91 2.52s1.32.96 2.22.96c.64 0 1.18-.13 1.62-.39s.83-.61 1.16-1.04l1.1.86c-.89 1.36-2.21 2.04-3.98 2.04zm-.22-9.47c-.73 0-1.34.27-1.84.8s-.8 1.27-.92 2.23h5.29v-.14c-.05-.92-.3-1.63-.74-2.13s-1.04-.76-1.8-.76z" fill="#646e85"/><path d="m828.79 172.58c0-1.62.38-2.92 1.15-3.91s1.77-1.48 3.02-1.48 2.22.42 2.94 1.27v-5.51h1.81v15h-1.66l-.09-1.13c-.72.89-1.73 1.33-3.02 1.33s-2.22-.5-2.99-1.5-1.16-2.31-1.16-3.93zm1.81.21c0 1.2.25 2.14.74 2.81s1.18 1.02 2.05 1.02c1.15 0 1.98-.51 2.51-1.54v-4.85c-.54-1-1.37-1.49-2.49-1.49-.89 0-1.58.34-2.07 1.03s-.74 1.7-.74 3.04z" fill="#646e85"/><path d="m952.66 257.32v-96.81-50.69" fill="none" stroke="#646e85" stroke-miterlimit="10" stroke-width="2.5"/><path d="m946.31 254.15h12.7c.6 0 .95.68.6 1.16l-6.35 8.95c-.29.41-.91.41-1.2 0l-6.35-8.95c-.35-.49 0-1.16.6-1.16z" fill="#646e85"/><rect fill="none" height="95.52" rx="11.74" stroke="#646e85" stroke-miterlimit="10" stroke-width="2.5" width="191.04" x="881.14" y="272"/><path d="m903.09 320.11v6.96h-2.34v-17.77h6.56c1.94 0 3.47.5 4.57 1.49s1.65 2.31 1.65 3.94c0 1.73-.54 3.05-1.62 3.99s-2.62 1.4-4.63 1.4h-4.19zm0-1.92h4.21c1.25 0 2.21-.29 2.88-.89s1-1.45 1-2.56c0-1.06-.33-1.91-1-2.54s-1.58-.97-2.75-.99h-4.35v6.98z" fill="#646e85"/><path d="m924.18 327.07c-.13-.26-.24-.72-.32-1.39-1.05 1.09-2.3 1.64-3.76 1.64-1.3 0-2.37-.37-3.21-1.1s-1.25-1.67-1.25-2.8c0-1.38.52-2.44 1.57-3.2 1.04-.76 2.52-1.14 4.41-1.14h2.2v-1.04c0-.79-.24-1.42-.71-1.89s-1.17-.7-2.09-.7c-.81 0-1.48.2-2.03.61-.54.41-.82.9-.82 1.48h-2.27c0-.66.23-1.3.7-1.91s1.1-1.1 1.9-1.46 1.68-.54 2.64-.54c1.52 0 2.71.38 3.58 1.14.86.76 1.31 1.81 1.34 3.14v6.08c0 1.21.15 2.18.46 2.89v.2h-2.37zm-3.75-1.72c.71 0 1.38-.18 2.01-.55s1.09-.84 1.38-1.43v-2.71h-1.77c-2.77 0-4.15.81-4.15 2.43 0 .71.24 1.26.71 1.66s1.08.6 1.82.6z" fill="#646e85"/><path d="m933.76 323.76 3.08-9.9h2.42l-5.31 15.25c-.82 2.2-2.13 3.29-3.92 3.29l-.43-.04-.84-.16v-1.83l.61.05c.76 0 1.36-.16 1.79-.46.43-.31.78-.87 1.06-1.7l.5-1.34-4.71-13.06h2.47l3.3 9.9z" fill="#646e85"/><path d="m943.4 313.86.06 1.46c.97-1.14 2.27-1.71 3.92-1.71 1.85 0 3.11.71 3.77 2.12.44-.63 1.01-1.15 1.72-1.54.7-.39 1.54-.59 2.5-.59 2.9 0 4.37 1.53 4.42 4.6v8.85h-2.26v-8.72c0-.94-.22-1.65-.65-2.12s-1.16-.7-2.17-.7c-.84 0-1.53.25-2.09.75-.55.5-.88 1.17-.96 2.02v8.76h-2.27v-8.65c0-1.92-.94-2.88-2.82-2.88-1.48 0-2.5.63-3.04 1.89v9.64h-2.26v-13.21h2.14z" fill="#646e85"/><path d="m968.66 327.31c-1.79 0-3.25-.59-4.37-1.76s-1.69-2.75-1.69-4.72v-.41c0-1.31.25-2.48.75-3.51s1.2-1.83 2.1-2.42 1.87-.87 2.92-.87c1.72 0 3.05.57 4 1.7s1.43 2.75 1.43 4.86v.94h-8.95c.03 1.3.41 2.35 1.14 3.16.73.8 1.65 1.2 2.78 1.2.8 0 1.47-.16 2.03-.49.55-.33 1.04-.76 1.45-1.29l1.38 1.07c-1.11 1.7-2.77 2.55-4.98 2.55zm-.28-11.84c-.91 0-1.68.33-2.29 1s-1 1.59-1.15 2.79h6.62v-.17c-.07-1.15-.37-2.04-.93-2.67s-1.3-.95-2.25-.95z" fill="#646e85"/><path d="m978.56 313.86.07 1.66c1.01-1.27 2.33-1.9 3.96-1.9 2.79 0 4.2 1.58 4.22 4.72v8.73h-2.26v-8.74c0-.95-.23-1.66-.65-2.11-.43-.46-1.09-.68-2-.68-.73 0-1.38.2-1.93.59s-.98.9-1.29 1.54v9.41h-2.26v-13.21h2.14z" fill="#646e85"/><path d="m993.29 310.66v3.2h2.47v1.75h-2.47v8.2c0 .53.11.93.33 1.19s.59.4 1.12.4c.26 0 .62-.05 1.07-.15v1.82c-.59.16-1.17.24-1.73.24-1.01 0-1.77-.3-2.28-.92-.51-.61-.77-1.48-.77-2.6v-8.19h-2.4v-1.75h2.4v-3.2h2.26z" fill="#646e85"/><path d="m1006.08 323.56c0-.61-.23-1.08-.69-1.42s-1.26-.63-2.41-.87c-1.14-.24-2.05-.54-2.72-.88s-1.17-.75-1.49-1.22-.48-1.03-.48-1.68c0-1.08.46-2 1.37-2.75.92-.75 2.09-1.12 3.51-1.12 1.5 0 2.71.39 3.64 1.16s1.4 1.76 1.4 2.97h-2.27c0-.62-.26-1.15-.79-1.6-.52-.45-1.19-.67-1.98-.67s-1.46.18-1.93.54-.7.83-.7 1.4c0 .55.22.96.65 1.23.43.28 1.21.54 2.34.79s2.04.55 2.74.9 1.22.77 1.56 1.26.51 1.09.51 1.8c0 1.18-.47 2.13-1.42 2.84s-2.17 1.07-3.67 1.07c-1.06 0-1.99-.19-2.81-.56-.81-.37-1.45-.9-1.91-1.57s-.69-1.4-.69-2.18h2.26c.04.76.34 1.36.91 1.8s1.31.67 2.24.67c.85 0 1.54-.17 2.06-.52s.78-.81.78-1.39z" fill="#646e85"/><path d="m1027.64 322.42h-7.45l-1.67 4.65h-2.42l6.79-17.77h2.05l6.8 17.77h-2.4zm-6.74-1.92h6.04l-3.03-8.31-3.02 8.31z" fill="#646e85"/><path d="m1036.47 320.11v6.96h-2.34v-17.77h6.55c1.95 0 3.47.5 4.57 1.49s1.65 2.31 1.65 3.94c0 1.73-.54 3.05-1.62 3.99-1.08.93-2.62 1.4-4.63 1.4h-4.19zm0-1.92h4.21c1.25 0 2.21-.29 2.88-.89.67-.59 1-1.45 1-2.56 0-1.06-.33-1.91-1-2.54-.67-.64-1.58-.97-2.75-.99h-4.35v6.98z" fill="#646e85"/><path d="m1052.42 327.07h-2.34v-17.77h2.34z" fill="#646e85"/><path d="m1049.96 147.79h1.97v1.47h-1.97v3.31h-1.8v-3.29l-6.49.02v-1.06l6.33-9.88h1.92l.04 9.44zm-6.24.02 4.42-.02-.03-6.97-.21.39z" fill="#646e85"/><path d="m1053.8 151.6c0-.31.09-.57.28-.78s.46-.31.83-.32c.37 0 .65.1.85.31.19.21.29.47.29.78 0 .3-.09.55-.29.75-.19.2-.47.3-.84.31-.37 0-.65-.1-.84-.3s-.28-.45-.28-.75z" fill="#646e85"/><path d="m1074.7 147.96c-.17 1.5-.72 2.67-1.65 3.49s-2.17 1.23-3.72 1.24c-1.68 0-3.03-.59-4.04-1.79s-1.53-2.81-1.54-4.83v-1.37c-.01-1.32.22-2.48.69-3.49.47-1 1.13-1.78 2-2.32.86-.54 1.87-.81 3-.82 1.51 0 2.72.41 3.64 1.25s1.45 2 1.6 3.5h-1.88c-.17-1.13-.52-1.95-1.07-2.46-.54-.51-1.31-.76-2.28-.76-1.2 0-2.14.45-2.81 1.34-.68.89-1.01 2.15-1.01 3.79v1.38c.01 1.54.34 2.77.99 3.68s1.55 1.36 2.71 1.36c1.04 0 1.84-.24 2.39-.72s.92-1.3 1.1-2.47z" fill="#646e85"/><path d="m1076.5 147.08c0-1.04.2-1.97.6-2.8s.97-1.47 1.69-1.92 1.55-.68 2.48-.68c1.44 0 2.6.49 3.5 1.48.89.99 1.34 2.32 1.35 3.97v.13c0 1.03-.19 1.95-.58 2.77s-.95 1.46-1.68 1.92-1.57.69-2.52.69c-1.43 0-2.59-.49-3.49-1.48-.89-.99-1.34-2.31-1.35-3.95zm1.82.21c0 1.17.28 2.11.83 2.82s1.28 1.06 2.19 1.06c.92 0 1.65-.37 2.18-1.09s.8-1.73.8-3.03c0-1.16-.28-2.1-.84-2.81s-1.29-1.07-2.2-1.07c-.89 0-1.61.36-2.15 1.07s-.81 1.73-.81 3.05z" fill="#646e85"/><path d="m1090.07 141.85.06 1.33c.8-1.02 1.86-1.53 3.16-1.54 2.23 0 3.36 1.25 3.39 3.77l.03 6.98h-1.81l-.03-6.99c0-.76-.19-1.32-.53-1.69-.34-.36-.88-.54-1.6-.54-.59 0-1.1.16-1.54.47s-.78.73-1.03 1.23l.03 7.53h-1.81l-.04-10.56h1.71z" fill="#646e85"/><path d="m1105.58 149.55c0-.49-.19-.87-.56-1.13-.37-.27-1.01-.5-1.93-.69s-1.64-.42-2.18-.7-.94-.59-1.19-.97c-.26-.38-.39-.83-.39-1.35 0-.87.36-1.6 1.09-2.2s1.67-.9 2.8-.91c1.2 0 2.17.3 2.92.92s1.12 1.41 1.13 2.37h-1.82c0-.49-.21-.91-.63-1.27s-.95-.53-1.59-.53c-.66 0-1.17.15-1.54.44s-.55.66-.55 1.12c0 .44.18.76.52.98.35.22.97.43 1.87.63s1.63.44 2.2.71c.56.28.98.61 1.25 1.01s.41.87.41 1.44c0 .94-.37 1.7-1.12 2.27s-1.73.86-2.94.87c-.85 0-1.6-.14-2.25-.44s-1.16-.71-1.53-1.25-.56-1.12-.56-1.74h1.81c.04.6.28 1.08.73 1.43s1.05.53 1.79.53c.68 0 1.23-.14 1.64-.42s.62-.65.62-1.11z" fill="#646e85"/><path d="m1116.27 151.27c-.7.83-1.73 1.25-3.09 1.25-1.13 0-1.98-.32-2.58-.97-.59-.65-.89-1.62-.9-2.9l-.03-6.88h1.81l.03 6.82c0 1.6.66 2.4 1.96 2.4 1.38 0 2.3-.52 2.75-1.55l-.03-7.69h1.81l.04 10.56h-1.72l-.04-1.04z" fill="#646e85"/><path d="m1122.43 141.73.05 1.17c.77-.91 1.81-1.37 3.13-1.38 1.48 0 2.49.56 3.02 1.69.35-.51.81-.92 1.37-1.24.56-.31 1.23-.47 2-.48 2.32 0 3.5 1.21 3.55 3.67l.03 7.08h-1.81l-.03-6.97c0-.75-.18-1.32-.52-1.69-.35-.37-.93-.56-1.74-.56-.67 0-1.23.21-1.67.61s-.7.94-.77 1.62l.03 7.01h-1.82l-.03-6.92c0-1.54-.76-2.3-2.26-2.3-1.19 0-1.99.51-2.43 1.52l.03 7.71h-1.81l-.04-10.56h1.71z" fill="#646e85"/><path d="m1142.69 152.42c-1.43 0-2.6-.46-3.5-1.4s-1.36-2.19-1.36-3.77v-.33c0-1.05.19-1.99.59-2.81.4-.83.96-1.47 1.67-1.94.72-.47 1.5-.7 2.34-.71 1.37 0 2.44.44 3.21 1.35.76.9 1.15 2.2 1.16 3.88v.75l-7.16.03c.03 1.04.34 1.88.92 2.52s1.33.96 2.23.95c.64 0 1.18-.13 1.62-.4.44-.26.83-.61 1.16-1.04l1.11.86c-.88 1.36-2.21 2.05-3.98 2.06zm-.26-9.47c-.73 0-1.34.27-1.83.8s-.8 1.28-.91 2.23l5.29-.02v-.14c-.06-.92-.31-1.63-.75-2.13s-1.04-.75-1.8-.75z" fill="#646e85"/><path d="m1053.82 169.9c0 1.39-.22 2.61-.69 3.65-.46 1.04-1.13 1.83-1.98 2.38s-1.86.83-3 .83c-1.12 0-2.11-.27-2.98-.81-.87-.55-1.54-1.33-2.03-2.35-.48-1.02-.73-2.2-.75-3.54v-1.03c0-1.37.22-2.58.7-3.62.47-1.05 1.14-1.86 2.01-2.42s1.86-.84 2.98-.85c1.14 0 2.14.27 3.02.81.87.55 1.54 1.34 2.02 2.39.47 1.04.71 2.26.72 3.64v.9zm-1.87-.91c0-1.69-.35-2.98-1.03-3.88s-1.63-1.35-2.85-1.34c-1.18 0-2.12.46-2.79 1.36-.68.9-1.02 2.16-1.04 3.76v1.04c0 1.63.36 2.92 1.05 3.85s1.64 1.4 2.84 1.39c1.21 0 2.15-.45 2.81-1.33s1-2.15 1.01-3.8z" fill="#646e85"/><path d="m1061.45 167.58c-.27-.04-.57-.07-.89-.07-1.19 0-1.99.51-2.41 1.52l.03 7.5h-1.81l-.04-10.56h1.76l.03 1.21c.59-.95 1.43-1.42 2.51-1.43.35 0 .62.04.8.13v1.68z" fill="#646e85"/><path d="m1062.5 171.15c0-1.62.37-2.93 1.14-3.92s1.77-1.49 3.01-1.49 2.22.42 2.94 1.26l-.02-5.51h1.81l.06 14.99h-1.66l-.09-1.13c-.72.89-1.72 1.33-3.01 1.34-1.22 0-2.22-.49-3-1.49s-1.17-2.31-1.17-3.92v-.14zm1.81.2c0 1.2.26 2.13.75 2.81.5.68 1.18 1.01 2.05 1.01 1.15 0 1.98-.52 2.5-1.55l-.02-4.85c-.54-.99-1.38-1.49-2.5-1.48-.88 0-1.57.35-2.07 1.03-.49.69-.74 1.7-.73 3.04z" fill="#646e85"/><path d="m1078.62 176.65c-1.43 0-2.6-.46-3.5-1.4s-1.36-2.19-1.36-3.77v-.33c0-1.05.19-1.98.59-2.81.4-.82.96-1.47 1.67-1.94s1.5-.7 2.34-.71c1.37 0 2.44.44 3.21 1.35.77.9 1.15 2.2 1.16 3.88v.75l-7.16.03c.03 1.04.34 1.88.92 2.52s1.33.96 2.22.95c.64 0 1.18-.13 1.62-.4.44-.26.83-.61 1.16-1.04l1.11.86c-.88 1.36-2.21 2.05-3.98 2.06zm-.26-9.47c-.73 0-1.34.27-1.83.8s-.8 1.28-.91 2.23l5.29-.02v-.14c-.06-.92-.31-1.63-.75-2.13-.45-.5-1.04-.75-1.8-.75z" fill="#646e85"/><path d="m1089.9 167.47c-.27-.04-.57-.07-.89-.06-1.19 0-1.99.51-2.41 1.52l.03 7.5h-1.81l-.04-10.56h1.76l.03 1.21c.59-.95 1.43-1.42 2.51-1.43.35 0 .62.04.8.13v1.68z" fill="#646e85"/><path d="m1102.32 171.86c-.17 1.5-.72 2.67-1.65 3.49s-2.17 1.23-3.72 1.24c-1.68 0-3.03-.59-4.04-1.79s-1.53-2.81-1.54-4.83v-1.37c0-1.32.22-2.48.69-3.49.47-1 1.13-1.78 2-2.32.86-.54 1.87-.81 3-.82 1.51 0 2.72.41 3.64 1.25.91.84 1.45 2 1.6 3.5h-1.88c-.17-1.13-.52-1.95-1.07-2.46s-1.31-.76-2.28-.75c-1.2 0-2.14.45-2.81 1.34s-1.01 2.15-1.01 3.79v1.38c.01 1.54.34 2.77.99 3.68s1.55 1.36 2.71 1.36c1.04 0 1.84-.24 2.4-.72.55-.47.92-1.3 1.1-2.47h1.88z" fill="#646e85"/><path d="m1109.69 167.4c-.27-.04-.57-.07-.89-.06-1.18 0-1.99.51-2.41 1.52l.03 7.5h-1.81l-.04-10.56h1.76l.03 1.21c.59-.95 1.43-1.42 2.51-1.43.35 0 .62.04.8.13v1.68z" fill="#646e85"/><path d="m1115.58 176.52c-1.43 0-2.6-.46-3.5-1.4s-1.36-2.19-1.36-3.77v-.33c0-1.05.19-1.98.59-2.81s.96-1.47 1.67-1.94c.72-.47 1.5-.7 2.34-.71 1.37 0 2.44.44 3.21 1.35.76.9 1.15 2.2 1.16 3.88v.75l-7.16.03c.03 1.04.34 1.88.92 2.52s1.33.96 2.23.95c.64 0 1.18-.13 1.62-.4.44-.26.83-.61 1.16-1.04l1.11.86c-.88 1.36-2.21 2.05-3.98 2.06zm-.26-9.47c-.73 0-1.34.27-1.83.8s-.8 1.28-.91 2.23l5.29-.02v-.14c-.06-.92-.31-1.63-.75-2.13s-1.04-.75-1.8-.75z" fill="#646e85"/><path d="m1128.32 176.27c-.11-.21-.19-.58-.26-1.11-.84.88-1.84 1.32-3 1.32-1.04 0-1.9-.29-2.57-.87-.67-.59-1.01-1.33-1.01-2.24 0-1.1.41-1.96 1.25-2.57.83-.61 2.01-.92 3.53-.93h1.76v-.84c0-.63-.2-1.13-.58-1.51-.38-.37-.94-.56-1.67-.56-.64 0-1.18.17-1.62.49-.43.33-.65.72-.65 1.18h-1.82c0-.52.18-1.03.56-1.52.37-.49.88-.88 1.52-1.17s1.34-.43 2.11-.44c1.22 0 2.17.3 2.86.9s1.05 1.44 1.08 2.51l.02 4.86c0 .97.13 1.74.38 2.31v.16h-1.89zm-3-1.36c.57 0 1.1-.15 1.61-.45s.87-.68 1.1-1.15v-2.17h-1.42c-2.21.01-3.32.67-3.31 1.96 0 .57.19 1.01.57 1.33s.87.47 1.46.47z" fill="#646e85"/><path d="m1135.07 163.12v2.56h1.98v1.39h-1.97l.02 6.57c0 .42.09.74.27.95s.48.32.9.31c.21 0 .5-.04.86-.12v1.46c-.47.13-.93.2-1.38.2-.81 0-1.42-.24-1.83-.73s-.62-1.18-.62-2.08l-.02-6.55h-1.92v-1.39h1.92v-2.57h1.8z" fill="#646e85"/><path d="m1143.59 176.41c-1.43 0-2.6-.46-3.5-1.4s-1.36-2.19-1.36-3.77v-.33c0-1.05.19-1.99.59-2.81.4-.83.96-1.47 1.67-1.94.72-.47 1.5-.7 2.34-.71 1.37 0 2.44.44 3.21 1.34.76.9 1.15 2.2 1.16 3.88v.75l-7.16.03c.03 1.04.34 1.88.92 2.52s1.33.96 2.23.95c.64 0 1.18-.13 1.62-.4.44-.26.83-.61 1.16-1.04l1.11.86c-.88 1.36-2.21 2.05-3.98 2.06zm-.26-9.47c-.73 0-1.34.27-1.83.8s-.8 1.28-.91 2.23l5.29-.02v-.14c-.06-.92-.31-1.63-.75-2.13s-1.04-.75-1.8-.75z" fill="#646e85"/><path d="m1149.34 170.82c0-1.62.37-2.93 1.14-3.92.76-.99 1.77-1.49 3.01-1.49s2.22.42 2.94 1.26l-.02-5.51h1.81l.06 14.99h-1.66l-.09-1.13c-.72.89-1.72 1.33-3.01 1.34-1.22 0-2.22-.49-3-1.49s-1.17-2.31-1.17-3.92v-.14zm1.81.2c0 1.2.26 2.13.75 2.81s1.18 1.01 2.05 1.01c1.15 0 1.98-.52 2.5-1.55l-.02-4.85c-.54-.99-1.38-1.49-2.5-1.49-.89 0-1.58.35-2.07 1.03-.49.69-.74 1.7-.73 3.04z" fill="#646e85"/><path d="m1016.51 158.06 6.35-6.35-4.52-4.52c-2.56 1.62-5.98 1.32-8.21-.91s-2.53-5.65-.91-8.21l-4.52-4.52-31.07 31.07c-.99.99-.99 2.62 0 3.61l14.56 14.56c.99.99 2.62.99 3.61 0l27.66-27.66" fill="#fff" stroke="#48a69e" stroke-miterlimit="10" stroke-width="1.54"/><circle cx="1001.29" cy="147.94" fill="#48a69e" r="1.16"/><circle cx="1004.77" cy="151.41" fill="#48a69e" r="1.16"/><circle cx="1008.24" cy="154.89" fill="#48a69e" r="1.16"/><path d="m1073 293h29.05c4.39 0 7.95 3.56 7.95 7.95v47.1c0 4.39-3.56 7.95-7.95 7.95h-24.05" fill="none" stroke="#646e85" stroke-miterlimit="10" stroke-width="2.5"/><path d="m1086 362.53v-12.7c0-.6-.68-.95-1.16-.6l-8.95 6.35c-.41.29-.41.91 0 1.2l8.95 6.35c.49.35 1.16 0 1.16-.6z" fill="#646e85"/><path d="m1132.87 300.57.7-7.09 7.29-.03v1.67l-5.75.02-.42 3.88c.7-.41 1.49-.62 2.37-.62 1.29 0 2.33.42 3.09 1.27s1.15 2.01 1.16 3.47c0 1.46-.39 2.62-1.17 3.47s-1.89 1.27-3.31 1.28c-1.26 0-2.28-.34-3.08-1.03s-1.25-1.66-1.37-2.89h1.71c.11.81.41 1.42.88 1.83s1.09.62 1.86.61c.84 0 1.5-.29 1.97-.87s.71-1.37.71-2.38c0-.95-.27-1.71-.79-2.29s-1.21-.86-2.07-.86c-.79 0-1.41.18-1.85.52l-.48.39-1.45-.37z" fill="#646e85"/><path d="m1143.52 306.71c0-.31.09-.57.28-.78s.46-.31.83-.32c.37 0 .65.1.85.31.19.21.29.47.29.78 0 .3-.09.55-.29.75-.19.2-.47.3-.84.31-.37 0-.65-.1-.84-.3s-.28-.45-.28-.75z" fill="#646e85"/><path d="m1158.68 305.11 4.02-11.74h2.05l-5.22 14.23h-1.66l-5.32-14.19h2.04l4.09 11.71z" fill="#646e85"/><path d="m1172.5 307.55c-.1-.21-.19-.58-.26-1.11-.84.88-1.84 1.32-3 1.32-1.04 0-1.9-.29-2.57-.87-.67-.59-1.01-1.33-1.01-2.24 0-1.1.41-1.96 1.25-2.57s2.01-.92 3.53-.93h1.76v-.84c0-.63-.2-1.13-.58-1.51-.38-.37-.94-.56-1.67-.55-.64 0-1.18.17-1.62.49-.44.33-.65.72-.65 1.18h-1.82c0-.52.18-1.03.56-1.52.37-.49.88-.88 1.52-1.17s1.34-.43 2.11-.44c1.22 0 2.17.3 2.87.9.69.61 1.05 1.44 1.08 2.51l.02 4.86c0 .97.13 1.74.38 2.31v.16h-1.89zm-3-1.36c.57 0 1.1-.15 1.61-.45s.87-.68 1.1-1.15v-2.17h-1.42c-2.21.01-3.32.67-3.31 1.96 0 .57.19 1.01.57 1.33s.86.48 1.46.47z" fill="#646e85"/><path d="m1178.82 307.53h-1.81l-.06-14.99h1.81z" fill="#646e85"/><path d="m1181.67 294.15c0-.29.09-.54.27-.74s.44-.3.79-.31.62.1.8.3.28.45.28.74-.09.54-.27.73c-.18.2-.45.29-.8.3s-.62-.1-.8-.29-.27-.44-.27-.73zm2 13.36h-1.81l-.04-10.56h1.81z" fill="#646e85"/><path d="m1186.1 302.13c0-1.62.37-2.93 1.14-3.92.76-.99 1.77-1.49 3.01-1.49s2.22.42 2.94 1.26l-.02-5.51h1.81l.06 14.99h-1.66l-.09-1.13c-.72.89-1.72 1.33-3.01 1.34-1.22 0-2.22-.49-3-1.49s-1.17-2.31-1.17-3.92v-.14zm1.81.2c0 1.2.26 2.14.75 2.81s1.18 1.01 2.05 1.01c1.15 0 1.98-.52 2.5-1.55l-.02-4.85c-.54-.99-1.38-1.49-2.5-1.48-.89 0-1.58.35-2.07 1.03-.49.69-.74 1.7-.73 3.04z" fill="#646e85"/><path d="m1204.36 307.43c-.11-.21-.19-.58-.26-1.11-.84.88-1.84 1.32-3 1.32-1.04 0-1.9-.29-2.57-.88s-1.01-1.33-1.01-2.24c0-1.1.41-1.96 1.25-2.57s2.01-.92 3.53-.93h1.76v-.84c0-.63-.2-1.13-.58-1.51-.38-.37-.94-.56-1.67-.55-.64 0-1.18.17-1.62.49-.43.33-.65.72-.65 1.18h-1.82c0-.52.18-1.03.56-1.52.37-.49.88-.88 1.52-1.17s1.34-.43 2.11-.44c1.22 0 2.17.3 2.86.9.69.61 1.05 1.44 1.08 2.51l.02 4.86c0 .97.13 1.74.38 2.31v.16h-1.89zm-3-1.36c.57 0 1.1-.15 1.61-.45s.87-.68 1.1-1.15v-2.17h-1.42c-2.21.01-3.32.67-3.31 1.96 0 .57.19 1.01.57 1.33s.87.48 1.46.47z" fill="#646e85"/><path d="m1211.12 294.28v2.56h1.98v1.39h-1.97l.02 6.57c0 .42.09.74.27.95s.48.32.9.31c.21 0 .5-.04.86-.12v1.46c-.47.13-.93.2-1.38.2-.81 0-1.42-.24-1.83-.73s-.62-1.18-.62-2.08l-.02-6.55h-1.92v-1.39h1.92v-2.57h1.8z" fill="#646e85"/><path d="m1219.64 307.57c-1.43 0-2.6-.46-3.5-1.4s-1.36-2.19-1.36-3.77v-.33c0-1.05.19-1.99.59-2.81s.96-1.47 1.67-1.94c.72-.47 1.5-.7 2.34-.71 1.37 0 2.44.44 3.21 1.35.76.9 1.15 2.2 1.16 3.88v.75l-7.16.03c.03 1.04.34 1.88.92 2.52s1.33.96 2.23.95c.64 0 1.18-.13 1.62-.4.44-.26.83-.61 1.16-1.04l1.11.86c-.88 1.36-2.21 2.05-3.98 2.06zm-.26-9.47c-.73 0-1.34.27-1.83.8s-.8 1.28-.91 2.24l5.29-.02v-.14c-.06-.92-.31-1.63-.75-2.13s-1.04-.75-1.8-.75z" fill="#646e85"/><path d="m1140.46 327.95-5.96.02-1.32 3.73h-1.93l5.38-14.23h1.64l5.49 14.19h-1.92l-1.37-3.71zm-5.4-1.51 4.83-.02-2.45-6.64-2.39 6.66z" fill="#646e85"/><path d="m1149.62 330.36c.64 0 1.21-.2 1.69-.59s.75-.88.79-1.47h1.71c-.03.6-.24 1.18-.62 1.72-.38.55-.89.99-1.53 1.31-.64.33-1.32.49-2.03.5-1.44 0-2.58-.47-3.44-1.43-.85-.96-1.28-2.27-1.29-3.94v-.3c0-1.03.18-1.94.56-2.75.37-.8.91-1.43 1.62-1.87.71-.45 1.54-.67 2.5-.67 1.19 0 2.17.35 2.96 1.05s1.21 1.63 1.27 2.76h-1.71c-.05-.68-.32-1.24-.78-1.67-.47-.44-1.04-.66-1.73-.65-.92 0-1.63.34-2.13 1s-.75 1.62-.75 2.87v.34c0 1.22.26 2.15.76 2.81s1.22.98 2.15.98z" fill="#646e85"/><path d="m1160.24 331.79c-1.43 0-2.6-.46-3.5-1.4s-1.36-2.19-1.36-3.77v-.33c0-1.05.19-1.99.59-2.81.4-.83.96-1.47 1.67-1.94.72-.47 1.5-.7 2.34-.71 1.37 0 2.44.44 3.21 1.34s1.15 2.2 1.16 3.88v.75l-7.16.03c.03 1.04.34 1.88.92 2.52s1.33.96 2.22.95c.64 0 1.18-.13 1.62-.4.44-.26.83-.61 1.16-1.04l1.11.86c-.88 1.36-2.21 2.05-3.98 2.06zm-.26-9.47c-.73 0-1.34.27-1.83.8s-.8 1.28-.91 2.23l5.29-.02v-.14c-.06-.92-.31-1.63-.75-2.13-.45-.5-1.04-.75-1.8-.75z" fill="#646e85"/><path d="m1172.59 328.75c0-.49-.19-.87-.56-1.14s-1.01-.5-1.93-.69-1.64-.42-2.18-.69-.94-.6-1.2-.97-.39-.83-.39-1.35c0-.87.36-1.6 1.09-2.2s1.67-.9 2.8-.91c1.2 0 2.17.3 2.92.92s1.12 1.4 1.13 2.37h-1.82c0-.49-.21-.91-.63-1.27s-.95-.53-1.59-.53c-.66 0-1.17.15-1.54.44s-.55.66-.55 1.12c0 .44.17.76.52.98s.97.43 1.87.63 1.63.44 2.2.71c.56.28.98.61 1.25 1.01s.41.87.41 1.44c0 .94-.37 1.7-1.12 2.27s-1.73.86-2.94.87c-.85 0-1.6-.14-2.25-.44s-1.16-.71-1.53-1.25-.56-1.12-.56-1.74h1.81c.03.6.28 1.08.73 1.43s1.05.53 1.79.53c.68 0 1.23-.14 1.64-.42s.62-.65.62-1.11z" fill="#646e85"/><path d="m1182.91 328.71c0-.49-.19-.87-.56-1.14s-1.01-.5-1.93-.69-1.64-.42-2.18-.7-.94-.59-1.2-.97-.39-.83-.39-1.35c0-.87.36-1.6 1.09-2.2s1.66-.9 2.8-.91c1.2 0 2.17.3 2.92.92s1.12 1.4 1.13 2.37h-1.82c0-.49-.21-.91-.63-1.27s-.95-.53-1.59-.53c-.66 0-1.17.15-1.54.43-.37.29-.55.66-.55 1.13 0 .44.17.76.52.98s.97.43 1.87.63 1.63.44 2.2.71c.56.28.98.61 1.25 1.01s.41.87.41 1.44c0 .94-.37 1.7-1.12 2.27s-1.73.86-2.94.87c-.85 0-1.59-.14-2.25-.44-.65-.3-1.16-.71-1.53-1.25s-.56-1.12-.56-1.74h1.81c.03.6.28 1.08.73 1.43s1.05.53 1.79.53c.68 0 1.23-.14 1.64-.42s.62-.65.62-1.11z" fill="#646e85"/><path d="m1201.7 318.76-4.57.02.05 12.69h-1.87l-.05-12.68-4.56.02v-1.53l10.99-.04v1.53z" fill="#646e85"/><path d="m1202.11 326.06c0-1.04.2-1.97.6-2.79.4-.83.97-1.47 1.69-1.92s1.55-.68 2.48-.68c1.44 0 2.6.49 3.5 1.48.89.99 1.34 2.32 1.35 3.97v.13c0 1.03-.19 1.95-.58 2.77s-.95 1.46-1.68 1.92-1.57.69-2.52.69c-1.43 0-2.59-.49-3.49-1.48-.89-.99-1.34-2.31-1.35-3.95v-.13zm1.82.21c0 1.17.28 2.11.83 2.82s1.27 1.06 2.19 1.06 1.65-.37 2.18-1.09c.54-.72.8-1.73.8-3.03 0-1.16-.28-2.1-.84-2.81-.55-.72-1.28-1.07-2.2-1.07-.89 0-1.61.36-2.15 1.07s-.81 1.73-.81 3.05z" fill="#646e85"/><path d="m1216.94 326.49-1.13 1.19v3.71h-1.79l-.06-14.99h1.81l.03 9.07.96-1.17 3.28-3.49h2.2l-4.09 4.42 4.61 6.14h-2.12l-3.7-4.87z" fill="#646e85"/><path d="m1228.34 331.54c-1.43 0-2.6-.46-3.5-1.4s-1.36-2.19-1.36-3.77v-.33c0-1.05.19-1.99.59-2.81.4-.83.96-1.47 1.67-1.94.72-.47 1.5-.7 2.34-.71 1.37 0 2.44.44 3.21 1.35.76.9 1.15 2.2 1.16 3.88v.75l-7.16.03c.03 1.04.34 1.88.92 2.52s1.33.96 2.23.95c.64 0 1.18-.13 1.62-.4.44-.26.83-.61 1.16-1.04l1.11.85c-.88 1.36-2.21 2.05-3.98 2.06zm-.26-9.47c-.73 0-1.34.27-1.83.8s-.8 1.28-.91 2.24l5.29-.02v-.14c-.06-.92-.31-1.63-.75-2.13s-1.04-.75-1.8-.75z" fill="#646e85"/><path d="m1236.22 320.75.06 1.33c.8-1.02 1.86-1.53 3.16-1.54 2.23 0 3.36 1.25 3.39 3.77l.03 6.98h-1.81l-.03-6.99c0-.76-.19-1.32-.53-1.69-.34-.36-.88-.54-1.6-.54-.59 0-1.1.16-1.54.47s-.78.73-1.03 1.23l.03 7.53h-1.81l-.04-10.56h1.71z" fill="#646e85"/><path d="m1138.95 355.68c-.1-.21-.19-.58-.26-1.11-.84.88-1.84 1.32-3 1.32-1.04 0-1.9-.29-2.57-.87-.67-.59-1.01-1.33-1.01-2.24 0-1.1.41-1.96 1.25-2.57s2.01-.92 3.53-.93h1.76v-.84c0-.63-.2-1.13-.58-1.51s-.94-.56-1.67-.56c-.64 0-1.18.17-1.62.5s-.65.72-.65 1.18h-1.82c0-.52.18-1.03.56-1.52.37-.49.88-.88 1.52-1.17s1.34-.43 2.11-.44c1.22 0 2.17.3 2.87.9.69.61 1.05 1.44 1.08 2.51l.02 4.86c0 .97.13 1.74.38 2.31v.16h-1.89zm-3-1.36c.57 0 1.1-.15 1.61-.45s.87-.68 1.1-1.15v-2.17h-1.42c-2.21.01-3.32.67-3.31 1.96 0 .57.19 1.01.57 1.33s.86.47 1.46.47z" fill="#646e85"/><path d="m1144.98 345.09.06 1.33c.8-1.02 1.86-1.53 3.16-1.54 2.23 0 3.36 1.25 3.39 3.77l.03 6.98h-1.81l-.03-6.99c0-.76-.19-1.33-.53-1.69s-.88-.54-1.6-.54c-.59 0-1.1.16-1.54.47s-.79.73-1.03 1.23l.03 7.53h-1.81l-.04-10.56h1.71z" fill="#646e85"/><path d="m1153.89 350.25c0-1.62.37-2.93 1.14-3.92s1.77-1.49 3.01-1.49 2.22.42 2.94 1.26l-.02-5.51h1.81l.06 14.99h-1.66l-.09-1.13c-.72.89-1.72 1.33-3.01 1.34-1.22 0-2.22-.49-3-1.49s-1.17-2.31-1.17-3.92v-.14zm1.81.2c0 1.2.26 2.13.75 2.81.5.68 1.18 1.01 2.05 1.01 1.15 0 1.98-.52 2.5-1.55l-.02-4.85c-.54-.99-1.38-1.49-2.5-1.48-.88 0-1.57.35-2.07 1.03-.49.69-.74 1.7-.73 3.04z" fill="#646e85"/><path d="m1178.87 348.96-6.16.02.02 5.04 7.16-.03v1.53l-9.03.03-.05-14.22 8.94-.03v1.53l-7.05.03.02 4.58 6.16-.02v1.53z" fill="#646e85"/><path d="m1185.17 353.05 2.59-8.12h1.85l-3.75 10.57h-1.38l-3.87-10.55h1.85l2.72 8.1z" fill="#646e85"/><path d="m1195.63 355.66c-1.43 0-2.6-.46-3.5-1.4s-1.36-2.19-1.36-3.77v-.33c0-1.05.19-1.98.59-2.81s.96-1.47 1.67-1.94c.72-.47 1.5-.7 2.34-.71 1.37 0 2.44.44 3.21 1.35.76.9 1.15 2.2 1.16 3.88v.75l-7.16.03c.03 1.04.34 1.88.92 2.52s1.33.96 2.23.95c.64 0 1.18-.13 1.62-.4.44-.26.83-.61 1.16-1.04l1.11.86c-.88 1.36-2.21 2.05-3.98 2.06zm-.26-9.47c-.73 0-1.34.27-1.83.8s-.8 1.28-.91 2.23l5.29-.02v-.14c-.06-.92-.31-1.63-.75-2.13s-1.04-.75-1.8-.75z" fill="#646e85"/><path d="m1203.51 344.87.06 1.33c.8-1.02 1.86-1.53 3.16-1.54 2.23 0 3.36 1.25 3.39 3.77l.03 6.98h-1.81l-.03-6.99c0-.76-.19-1.33-.53-1.69s-.88-.54-1.6-.54c-.59 0-1.1.16-1.54.47s-.78.73-1.03 1.23l.03 7.53h-1.81l-.04-10.56h1.71z" fill="#646e85"/><path d="m1215.28 342.27v2.56h1.98v1.39h-1.97l.02 6.57c0 .42.09.74.27.95s.48.32.9.31c.21 0 .5-.04.86-.12v1.46c-.47.13-.93.2-1.38.2-.81 0-1.42-.24-1.83-.73s-.62-1.18-.62-2.08l-.02-6.55h-1.92v-1.39h1.92v-2.57h1.8z" fill="#646e85"/><path d="m1224.65 355.36-.05-14.22h4.01c1.24-.02 2.33.25 3.28.79s1.69 1.32 2.21 2.33.79 2.17.8 3.47v.91c0 1.34-.25 2.52-.76 3.53s-1.25 1.79-2.21 2.33-2.08.83-3.35.84h-3.94zm1.83-12.68.04 11.15h1.97c1.45-.01 2.57-.47 3.37-1.37s1.2-2.18 1.19-3.85v-.83c0-1.62-.39-2.87-1.15-3.76s-1.84-1.34-3.23-1.35h-2.19z" fill="#646e85"/><path d="m1244 355.29c-.11-.21-.19-.58-.26-1.11-.84.88-1.84 1.32-3 1.32-1.04 0-1.9-.29-2.57-.87-.67-.59-1.01-1.33-1.01-2.24 0-1.1.41-1.96 1.25-2.57.83-.61 2.01-.92 3.53-.93h1.76v-.84c0-.63-.2-1.13-.58-1.51-.38-.37-.94-.56-1.67-.56-.64 0-1.18.17-1.62.49-.43.33-.65.72-.65 1.18h-1.82c0-.52.18-1.03.56-1.52.37-.49.88-.88 1.52-1.17s1.34-.43 2.11-.44c1.22 0 2.17.3 2.86.9.69.61 1.05 1.44 1.08 2.51l.02 4.86c0 .97.13 1.74.38 2.31v.16h-1.89zm-3-1.36c.57 0 1.1-.15 1.61-.45s.87-.68 1.1-1.15v-2.17h-1.42c-2.21.01-3.32.67-3.31 1.96 0 .57.19 1.01.57 1.33s.87.48 1.46.47z" fill="#646e85"/><path d="m1250.76 342.14v2.56h1.98v1.39h-1.97l.02 6.57c0 .42.09.74.27.95s.48.32.9.31c.21 0 .49-.04.86-.12v1.46c-.47.13-.93.2-1.38.2-.81 0-1.42-.24-1.83-.73s-.62-1.18-.62-2.08l-.02-6.55h-1.92v-1.39h1.92v-2.57h1.8z" fill="#646e85"/><path d="m1261.41 355.22c-.1-.21-.19-.58-.26-1.11-.84.88-1.84 1.32-3 1.32-1.04 0-1.9-.29-2.57-.87-.67-.59-1.01-1.33-1.01-2.24 0-1.1.41-1.96 1.25-2.57.83-.61 2.01-.92 3.53-.93h1.76v-.84c0-.63-.2-1.13-.58-1.51-.38-.37-.94-.56-1.67-.56-.64 0-1.18.17-1.62.49-.44.33-.65.72-.65 1.18h-1.82c0-.52.18-1.03.56-1.52.37-.49.88-.88 1.52-1.17s1.34-.43 2.11-.44c1.22 0 2.17.3 2.87.9.69.61 1.05 1.44 1.08 2.51l.02 4.86c0 .97.13 1.74.38 2.31v.16h-1.89zm-3-1.36c.57 0 1.1-.15 1.61-.45s.87-.68 1.1-1.15v-2.17h-1.42c-2.21.01-3.32.67-3.31 1.96 0 .57.19 1.01.57 1.33s.86.48 1.46.47z" fill="#646e85"/></svg>