<?xml version="1.0" encoding="UTF-8"?>
<svg id="Layer_1" data-name="Layer 1" xmlns="http://www.w3.org/2000/svg" viewBox="0 0 1294 743">
  <defs>
    <style>
      .cls-1 {
        stroke-linecap: round;
        stroke-width: 2px;
      }

      .cls-1, .cls-2 {
        fill: none;
        stroke: #646e85;
      }

      .cls-1, .cls-2, .cls-3 {
        stroke-miterlimit: 10;
      }

      .cls-4, .cls-3 {
        fill: #fff;
      }

      .cls-2 {
        stroke-width: 2.5px;
      }

      .cls-5 {
        fill: #646e85;
      }

      .cls-6 {
        fill: #c5cddd;
      }

      .cls-7 {
        fill: #48a69e;
      }

      .cls-3 {
        stroke: #48a69e;
        stroke-width: 1.54px;
      }
    </style>
  </defs>
  <rect class="cls-4" x="-5" y="-6" width="1307" height="752"/>
  <g id="Artwork_434" data-name="Artwork 434">
    <g>
      <g>
        <circle class="cls-5" cx="102" cy="390.61" r="7.98"/>
        <line class="cls-1" x1="95.16" y1="248.5" x2="108.84" y2="248.5"/>
      </g>
      <rect class="cls-1" x="54.09" y="229.79" width="95.82" height="182.51" rx="9.51" ry="9.51"/>
    </g>
  </g>
  <g>
    <path class="cls-5" d="M60.77,142.5v12.08c0,1.68-.54,3.05-1.58,4.11-1.05,1.07-2.46,1.66-4.25,1.79l-.62.02c-1.95,0-3.5-.53-4.65-1.57-1.16-1.05-1.74-2.5-1.76-4.33v-12.11h2.32v12.04c0,1.29.35,2.29,1.06,3s1.72,1.07,3.03,1.07,2.34-.35,3.04-1.06c.71-.71,1.06-1.71,1.06-2.99v-12.05h2.36-.01Z"/>
    <path class="cls-5" d="M71.8,156.77c0-.61-.23-1.08-.69-1.42s-1.26-.63-2.4-.87c-1.14-.24-2.05-.54-2.72-.88s-1.17-.75-1.49-1.22-.48-1.03-.48-1.68c0-1.08.46-2,1.37-2.75s2.08-1.12,3.51-1.12c1.5,0,2.71.39,3.64,1.16s1.4,1.76,1.4,2.97h-2.27c0-.62-.26-1.15-.79-1.6-.52-.45-1.19-.67-1.98-.67s-1.46.18-1.93.54c-.46.36-.7.83-.7,1.4s.21.96.65,1.23,1.21.54,2.34.79,2.04.55,2.74.9c.7.35,1.22.77,1.56,1.26.34.49.51,1.09.51,1.8,0,1.18-.47,2.13-1.42,2.84-.94.71-2.17,1.07-3.67,1.07-1.06,0-1.99-.19-2.81-.56-.81-.37-1.45-.9-1.91-1.57-.46-.67-.69-1.4-.69-2.18h2.26c.04.76.34,1.36.91,1.8.57.44,1.31.67,2.24.67.86,0,1.54-.17,2.06-.52s.78-.81.78-1.39h-.02Z"/>
    <path class="cls-5" d="M82.49,160.52c-1.79,0-3.25-.59-4.37-1.76s-1.68-2.75-1.68-4.72v-.41c0-1.31.25-2.48.75-3.51s1.2-1.83,2.1-2.42c.9-.58,1.88-.87,2.92-.87,1.72,0,3.05.57,4,1.7.95,1.13,1.43,2.75,1.43,4.86v.94h-8.95c.03,1.3.41,2.35,1.14,3.16.73.8,1.65,1.2,2.78,1.2.8,0,1.47-.16,2.03-.49.55-.33,1.04-.76,1.45-1.29l1.38,1.07c-1.11,1.7-2.77,2.55-4.98,2.55h0ZM82.21,148.68c-.91,0-1.68.33-2.29,1-.62.66-1,1.59-1.15,2.79h6.62v-.17c-.06-1.15-.37-2.04-.93-2.67-.55-.63-1.3-.95-2.25-.95Z"/>
    <path class="cls-5" d="M96.63,149.09c-.34-.06-.71-.09-1.11-.09-1.48,0-2.49.63-3.02,1.89v9.38h-2.26v-13.21h2.2l.04,1.53c.74-1.18,1.79-1.77,3.15-1.77.44,0,.77.06,1,.17v2.1Z"/>
    <path class="cls-5" d="M58.06,182.42h-7.46v7.85h-2.34v-17.77h11.01v1.92h-8.67v6.09h7.46v1.92h0Z"/>
    <path class="cls-5" d="M69.46,190.27c-.13-.26-.24-.72-.32-1.39-1.05,1.09-2.3,1.64-3.76,1.64-1.3,0-2.37-.37-3.21-1.1s-1.25-1.67-1.25-2.8c0-1.38.52-2.44,1.57-3.2,1.04-.76,2.52-1.14,4.41-1.14h2.2v-1.04c0-.79-.24-1.42-.71-1.89s-1.17-.7-2.09-.7c-.81,0-1.48.2-2.03.61-.54.41-.82.9-.82,1.48h-2.27c0-.66.23-1.3.7-1.91s1.1-1.1,1.9-1.46,1.68-.54,2.64-.54c1.52,0,2.71.38,3.58,1.14.86.76,1.31,1.81,1.34,3.14v6.08c0,1.21.15,2.18.46,2.89v.2h-2.37.03ZM65.71,188.55c.71,0,1.38-.18,2.01-.55s1.09-.84,1.38-1.43v-2.71h-1.77c-2.77,0-4.15.81-4.15,2.43,0,.71.24,1.26.71,1.66.47.4,1.08.6,1.82.6Z"/>
    <path class="cls-5" d="M80.2,188.67c.81,0,1.51-.24,2.11-.73s.94-1.1,1-1.83h2.14c-.04.76-.3,1.48-.78,2.16-.48.68-1.12,1.23-1.92,1.64-.8.41-1.65.61-2.54.61-1.8,0-3.23-.6-4.29-1.8s-1.59-2.84-1.59-4.93v-.38c0-1.29.24-2.43.71-3.43s1.15-1.78,2.03-2.33,1.93-.83,3.13-.83c1.48,0,2.71.44,3.69,1.33s1.5,2.04,1.57,3.45h-2.14c-.07-.85-.39-1.56-.97-2.11s-1.3-.82-2.15-.82c-1.15,0-2.04.41-2.67,1.24s-.95,2.02-.95,3.58v.43c0,1.52.31,2.69.94,3.52s1.52,1.23,2.69,1.23h-.01Z"/>
    <path class="cls-5" d="M88,173.56c0-.37.11-.68.34-.93.22-.25.55-.38.99-.38s.77.13,1,.38.34.56.34.93-.12.67-.34.92c-.23.24-.56.37-1,.37s-.77-.12-.99-.37c-.22-.24-.34-.55-.34-.92ZM90.44,190.27h-2.26v-13.21h2.26v13.21Z"/>
    <path class="cls-5" d="M96.2,177.07l.07,1.66c1.01-1.27,2.33-1.9,3.96-1.9,2.79,0,4.2,1.58,4.22,4.72v8.73h-2.26v-8.74c0-.95-.23-1.66-.65-2.11-.43-.46-1.09-.68-2-.68-.73,0-1.38.2-1.93.59s-.99.9-1.29,1.54v9.41h-2.26v-13.21h2.14Z"/>
    <path class="cls-5" d="M107.32,183.56c0-2.06.48-3.7,1.43-4.91.95-1.22,2.21-1.83,3.78-1.83s2.87.57,3.77,1.71l.11-1.46h2.06v12.89c0,1.71-.51,3.06-1.52,4.04-1.01.99-2.38,1.48-4.08,1.48-.95,0-1.88-.2-2.79-.61s-1.61-.96-2.09-1.67l1.17-1.36c.97,1.2,2.15,1.79,3.55,1.79,1.1,0,1.96-.31,2.57-.93s.92-1.49.92-2.61v-1.13c-.9,1.04-2.14,1.56-3.7,1.56s-2.8-.62-3.75-1.87c-.96-1.25-1.43-2.94-1.43-5.09h0ZM109.59,183.82c0,1.49.3,2.66.92,3.51.61.85,1.46,1.28,2.56,1.28,1.42,0,2.47-.65,3.14-1.94v-6.03c-.69-1.26-1.73-1.89-3.11-1.89-1.1,0-1.96.43-2.58,1.28s-.93,2.12-.93,3.8h0Z"/>
    <path class="cls-5" d="M138.24,185.62h-7.45l-1.67,4.65h-2.42l6.79-17.77h2.05l6.8,17.77h-2.41l-1.7-4.65h0ZM131.5,183.7h6.04l-3.03-8.31-3.01,8.31Z"/>
    <path class="cls-5" d="M155.53,183.82c0,2.01-.46,3.63-1.38,4.86s-2.17,1.84-3.74,1.84-2.86-.51-3.78-1.53v6.36h-2.26v-18.29h2.06l.11,1.46c.92-1.14,2.2-1.71,3.83-1.71s2.84.6,3.77,1.79c.92,1.2,1.39,2.86,1.39,4.99v.23ZM153.27,183.56c0-1.49-.32-2.67-.95-3.53-.63-.86-1.51-1.29-2.61-1.29-1.37,0-2.39.61-3.08,1.82v6.31c.67,1.21,1.71,1.81,3.1,1.81,1.08,0,1.94-.43,2.58-1.29s.96-2.13.96-3.83h0Z"/>
    <path class="cls-5" d="M169.56,183.82c0,2.01-.46,3.63-1.38,4.86s-2.17,1.84-3.74,1.84-2.86-.51-3.78-1.53v6.36h-2.26v-18.29h2.06l.11,1.46c.92-1.14,2.2-1.71,3.83-1.71s2.84.6,3.77,1.79c.92,1.2,1.38,2.86,1.38,4.99v.23ZM167.3,183.56c0-1.49-.32-2.67-.95-3.53-.63-.86-1.51-1.29-2.61-1.29-1.37,0-2.39.61-3.08,1.82v6.31c.68,1.21,1.71,1.81,3.1,1.81,1.08,0,1.94-.43,2.58-1.29s.96-2.13.96-3.83h0Z"/>
  </g>
  <rect class="cls-6" x="371" y="248" width="24" height="144" rx="3.81" ry="3.81"/>
  <g>
    <path class="cls-5" d="M327.15,425.62h-7.45l-1.67,4.65h-2.42l6.79-17.77h2.05l6.8,17.77h-2.4l-1.7-4.65h0ZM320.41,423.7h6.04l-3.03-8.31-3.02,8.31h0Z"/>
    <path class="cls-5" d="M335.99,423.32v6.96h-2.34v-17.77h6.56c1.94,0,3.47.5,4.57,1.49s1.65,2.31,1.65,3.94c0,1.73-.54,3.05-1.62,3.99-1.08.93-2.62,1.4-4.63,1.4h-4.19ZM335.99,421.4h4.21c1.25,0,2.21-.29,2.88-.89.67-.59,1-1.45,1-2.56s-.33-1.91-1-2.54c-.67-.64-1.58-.97-2.75-.99h-4.35v6.98h.01Z"/>
    <path class="cls-5" d="M351.93,430.27h-2.34v-17.77h2.34v17.77Z"/>
    <path class="cls-5" d="M375.53,427.94c-.6.86-1.44,1.51-2.52,1.94s-2.33.64-3.77.64-2.73-.34-3.86-1.02c-1.12-.68-1.99-1.65-2.61-2.9s-.93-2.71-.95-4.36v-1.55c0-2.68.62-4.75,1.87-6.23,1.25-1.47,3-2.21,5.27-2.21,1.86,0,3.35.47,4.48,1.42s1.82,2.29,2.08,4.04h-2.34c-.44-2.36-1.84-3.54-4.2-3.54-1.57,0-2.76.55-3.57,1.66-.81,1.1-1.22,2.7-1.23,4.79v1.45c0,2,.46,3.58,1.37,4.76s2.14,1.77,3.7,1.77c.88,0,1.65-.1,2.31-.29s1.2-.52,1.64-.99v-3.98h-4.11v-1.92h6.45v6.52h-.01Z"/>
    <path class="cls-5" d="M387.24,430.27c-.13-.26-.24-.72-.32-1.39-1.05,1.09-2.3,1.64-3.76,1.64-1.3,0-2.37-.37-3.2-1.1s-1.25-1.67-1.25-2.8c0-1.38.52-2.44,1.57-3.2s2.52-1.14,4.41-1.14h2.2v-1.04c0-.79-.24-1.42-.71-1.89s-1.17-.7-2.09-.7c-.81,0-1.48.2-2.03.61-.54.41-.82.9-.82,1.48h-2.27c0-.66.23-1.3.7-1.91.47-.61,1.1-1.1,1.9-1.46s1.68-.54,2.64-.54c1.52,0,2.71.38,3.58,1.14s1.31,1.81,1.34,3.14v6.08c0,1.21.15,2.18.46,2.89v.2h-2.37.02ZM383.49,428.55c.71,0,1.38-.18,2.01-.55s1.09-.84,1.38-1.43v-2.71h-1.77c-2.77,0-4.15.81-4.15,2.43,0,.71.24,1.26.71,1.66s1.08.6,1.82.6h0Z"/>
    <path class="cls-5" d="M395.75,413.87v3.2h2.47v1.75h-2.47v8.2c0,.53.11.93.33,1.19s.59.4,1.12.4c.26,0,.62-.05,1.07-.15v1.82c-.59.16-1.17.24-1.73.24-1.01,0-1.77-.3-2.28-.92-.51-.61-.77-1.48-.77-2.6v-8.19h-2.4v-1.75h2.4v-3.2h2.26Z"/>
    <path class="cls-5" d="M406.33,430.52c-1.79,0-3.25-.59-4.37-1.76s-1.68-2.75-1.68-4.72v-.41c0-1.31.25-2.48.75-3.51s1.2-1.83,2.1-2.42,1.87-.87,2.92-.87c1.72,0,3.05.57,4,1.7s1.43,2.75,1.43,4.86v.94h-8.95c.03,1.3.41,2.35,1.14,3.16.73.8,1.65,1.2,2.78,1.2.8,0,1.47-.16,2.03-.49.55-.33,1.04-.76,1.45-1.29l1.38,1.07c-1.11,1.7-2.77,2.55-4.98,2.55h0ZM406.05,418.68c-.91,0-1.68.33-2.29,1-.62.66-1,1.59-1.15,2.79h6.62v-.17c-.07-1.15-.38-2.04-.93-2.67s-1.3-.95-2.25-.95h0Z"/>
    <path class="cls-5" d="M425.79,427.16l2.54-10.09h2.26l-3.85,13.21h-1.83l-3.21-10.01-3.12,10.01h-1.83l-3.83-13.21h2.25l2.6,9.89,3.08-9.89h1.82l3.14,10.09h-.02Z"/>
    <path class="cls-5" d="M441.03,430.27c-.13-.26-.24-.72-.32-1.39-1.05,1.09-2.3,1.64-3.76,1.64-1.3,0-2.37-.37-3.2-1.1-.83-.74-1.25-1.67-1.25-2.8,0-1.38.52-2.44,1.57-3.2,1.04-.76,2.52-1.14,4.41-1.14h2.2v-1.04c0-.79-.24-1.42-.71-1.89s-1.17-.7-2.09-.7c-.81,0-1.48.2-2.03.61-.55.41-.82.9-.82,1.48h-2.27c0-.66.23-1.3.7-1.91s1.1-1.1,1.9-1.46,1.68-.54,2.64-.54c1.52,0,2.71.38,3.58,1.14.86.76,1.31,1.81,1.34,3.14v6.08c0,1.21.15,2.18.46,2.89v.2h-2.37.02ZM437.28,428.55c.71,0,1.38-.18,2.01-.55s1.09-.84,1.38-1.43v-2.71h-1.77c-2.77,0-4.15.81-4.15,2.43,0,.71.24,1.26.71,1.66s1.08.6,1.82.6h0Z"/>
    <path class="cls-5" d="M450.62,426.96l3.08-9.9h2.42l-5.31,15.25c-.82,2.2-2.13,3.29-3.92,3.29l-.43-.04-.84-.16v-1.83l.61.05c.76,0,1.36-.16,1.79-.46.43-.31.78-.87,1.06-1.7l.5-1.34-4.71-13.06h2.47l3.3,9.9h-.02Z"/>
  </g>
  <g>
    <polyline class="cls-2" points="359.41 318.45 262.6 318.45 187.17 318.45 150.4 318.45"/>
    <path class="cls-5" d="M356.23,324.81v-12.7c0-.6.68-.95,1.16-.6l8.95,6.35c.41.29.41.91,0,1.2l-8.95,6.35c-.49.35-1.16,0-1.16-.6Z"/>
  </g>
  <g>
    <polyline class="cls-2" points="518.07 318.13 421.26 318.13 395.59 318.13"/>
    <path class="cls-5" d="M514.89,324.48v-12.7c0-.6.68-.95,1.16-.6l8.95,6.35c.41.29.41.91,0,1.2l-8.95,6.35c-.49.35-1.16,0-1.16-.6Z"/>
  </g>
  <g>
    <rect class="cls-2" x="531.39" y="272" width="191.04" height="95.52" rx="11.74" ry="11.74"/>
    <g>
      <path class="cls-5" d="M583.05,318.75c0,1.74-.29,3.26-.88,4.56s-1.42,2.29-2.49,2.97-2.33,1.03-3.76,1.03-2.64-.34-3.72-1.03c-1.08-.69-1.92-1.67-2.52-2.94-.6-1.27-.91-2.75-.92-4.42v-1.28c0-1.71.3-3.22.89-4.53s1.43-2.31,2.52-3.01,2.33-1.04,3.73-1.04,2.68.34,3.77,1.03,1.92,1.68,2.51,2.99.88,2.83.88,4.56v1.12h-.01ZM580.72,317.6c0-2.11-.42-3.72-1.27-4.85-.85-1.13-2.03-1.69-3.55-1.69s-2.65.56-3.5,1.69-1.29,2.69-1.31,4.69v1.31c0,2.04.43,3.65,1.29,4.82s2.04,1.75,3.55,1.75,2.69-.55,3.52-1.65,1.26-2.68,1.28-4.74v-1.32h-.01Z"/>
      <path class="cls-5" d="M592.6,315.88c-.34-.06-.71-.09-1.11-.09-1.48,0-2.49.63-3.02,1.89v9.38h-2.26v-13.21h2.2l.04,1.53c.74-1.18,1.79-1.77,3.15-1.77.44,0,.77.06,1,.17v2.1h0Z"/>
      <path class="cls-5" d="M593.89,320.35c0-2.03.48-3.66,1.44-4.89s2.22-1.85,3.77-1.85,2.77.53,3.67,1.59v-6.88h2.26v18.75h-2.08l-.11-1.42c-.9,1.11-2.16,1.66-3.77,1.66s-2.78-.63-3.74-1.88c-.96-1.25-1.45-2.89-1.45-4.91v-.17h.01ZM596.15,320.61c0,1.5.31,2.67.93,3.52.62.85,1.47,1.27,2.56,1.27,1.43,0,2.48-.64,3.14-1.93v-6.07c-.68-1.25-1.71-1.87-3.11-1.87-1.11,0-1.97.43-2.59,1.28-.62.85-.93,2.12-.93,3.8h0Z"/>
      <path class="cls-5" d="M614.02,327.31c-1.79,0-3.25-.59-4.37-1.76s-1.68-2.75-1.68-4.72v-.41c0-1.31.25-2.48.75-3.51s1.2-1.83,2.1-2.42c.9-.58,1.87-.87,2.92-.87,1.72,0,3.05.57,4,1.7s1.43,2.75,1.43,4.86v.94h-8.95c.03,1.3.41,2.35,1.14,3.16.73.8,1.65,1.2,2.78,1.2.8,0,1.47-.16,2.03-.49.55-.33,1.04-.76,1.45-1.29l1.38,1.07c-1.11,1.7-2.77,2.55-4.98,2.55h0ZM613.74,315.47c-.91,0-1.68.33-2.29,1s-1,1.59-1.15,2.79h6.62v-.17c-.07-1.15-.37-2.04-.93-2.67s-1.3-.95-2.25-.95h0Z"/>
      <path class="cls-5" d="M628.17,315.88c-.34-.06-.71-.09-1.11-.09-1.48,0-2.49.63-3.02,1.89v9.38h-2.26v-13.21h2.2l.04,1.53c.74-1.18,1.79-1.77,3.15-1.77.44,0,.77.06,1,.17v2.1h0Z"/>
      <path class="cls-5" d="M637.93,323.56c0-.61-.23-1.08-.69-1.42-.46-.34-1.26-.63-2.41-.87-1.14-.24-2.05-.54-2.72-.88s-1.17-.75-1.49-1.22-.48-1.03-.48-1.68c0-1.08.46-2,1.37-2.75.92-.75,2.09-1.12,3.51-1.12,1.5,0,2.71.39,3.64,1.16s1.4,1.76,1.4,2.97h-2.27c0-.62-.26-1.15-.79-1.6-.52-.45-1.19-.67-1.98-.67s-1.46.18-1.93.54-.7.83-.7,1.4.21.96.65,1.23,1.21.54,2.34.79,2.04.55,2.74.9,1.22.77,1.56,1.26c.34.49.51,1.09.51,1.8,0,1.18-.47,2.13-1.42,2.84-.94.71-2.17,1.07-3.67,1.07-1.06,0-1.99-.19-2.81-.56s-1.45-.9-1.91-1.57c-.46-.67-.69-1.4-.69-2.18h2.26c.04.76.34,1.36.91,1.8.57.44,1.31.67,2.24.67.85,0,1.54-.17,2.06-.52.52-.35.78-.81.78-1.39h-.01Z"/>
      <path class="cls-5" d="M659.49,322.42h-7.45l-1.67,4.65h-2.42l6.79-17.77h2.05l6.8,17.77h-2.4l-1.7-4.65h0ZM652.75,320.5h6.04l-3.03-8.31-3.02,8.31h.01Z"/>
      <path class="cls-5" d="M668.33,320.11v6.96h-2.34v-17.77h6.56c1.94,0,3.47.5,4.57,1.49s1.65,2.31,1.65,3.94c0,1.73-.54,3.05-1.62,3.99-1.08.93-2.62,1.4-4.63,1.4h-4.19ZM668.33,318.19h4.21c1.25,0,2.21-.29,2.88-.89.67-.59,1-1.45,1-2.56s-.33-1.91-1-2.54c-.67-.64-1.58-.97-2.75-.99h-4.35v6.98h0Z"/>
      <path class="cls-5" d="M684.27,327.07h-2.34v-17.77h2.34v17.77Z"/>
    </g>
  </g>
  <g>
    <rect class="cls-2" x="54.09" y="624.71" width="763.76" height="73.23" rx="7.96" ry="7.96"/>
    <g>
      <path class="cls-5" d="M361.17,668.62h-2.34v-17.77h2.34v17.77Z"/>
      <path class="cls-5" d="M364.55,661.91c0-2.03.48-3.66,1.44-4.89.96-1.23,2.22-1.85,3.77-1.85s2.77.53,3.67,1.59v-6.88h2.26v18.75h-2.08l-.11-1.42c-.9,1.11-2.16,1.66-3.77,1.66s-2.78-.63-3.74-1.88-1.45-2.89-1.45-4.91v-.17h0ZM366.81,662.17c0,1.5.31,2.67.93,3.52.62.85,1.47,1.27,2.56,1.27,1.43,0,2.48-.64,3.14-1.93v-6.07c-.68-1.25-1.71-1.87-3.11-1.87-1.11,0-1.97.43-2.59,1.28s-.93,2.12-.93,3.8h0Z"/>
      <path class="cls-5" d="M384.68,668.87c-1.79,0-3.25-.59-4.37-1.76s-1.68-2.75-1.68-4.72v-.41c0-1.31.25-2.48.75-3.51s1.2-1.83,2.1-2.42,1.87-.87,2.92-.87c1.72,0,3.05.57,4,1.7s1.43,2.75,1.43,4.86v.94h-8.95c.03,1.3.41,2.35,1.14,3.16.73.8,1.65,1.2,2.78,1.2.8,0,1.47-.16,2.03-.49.55-.33,1.04-.76,1.45-1.29l1.38,1.07c-1.11,1.7-2.77,2.55-4.98,2.55h0ZM384.4,657.03c-.91,0-1.68.33-2.29,1-.62.66-1,1.59-1.15,2.79h6.62v-.17c-.07-1.15-.38-2.04-.93-2.67s-1.3-.95-2.25-.95Z"/>
      <path class="cls-5" d="M394.58,655.42l.07,1.66c1.01-1.27,2.33-1.9,3.96-1.9,2.79,0,4.2,1.58,4.22,4.72v8.73h-2.26v-8.74c0-.95-.23-1.66-.65-2.11-.43-.46-1.09-.68-2-.68-.73,0-1.38.2-1.93.59s-.99.9-1.29,1.54v9.41h-2.26v-13.21h2.14Z"/>
      <path class="cls-5" d="M409.3,652.22v3.2h2.47v1.75h-2.47v8.2c0,.53.11.93.33,1.19s.59.4,1.12.4c.26,0,.62-.05,1.07-.15v1.82c-.59.16-1.17.24-1.73.24-1.01,0-1.77-.3-2.28-.92-.51-.61-.77-1.48-.77-2.6v-8.19h-2.4v-1.75h2.4v-3.2h2.26Z"/>
      <path class="cls-5" d="M414.41,651.91c0-.37.11-.68.34-.93.22-.25.56-.38,1-.38s.77.13,1,.38.34.56.34.93-.11.67-.34.92c-.23.24-.56.37-1,.37s-.77-.12-1-.37-.34-.55-.34-.92ZM416.85,668.62h-2.26v-13.21h2.26v13.21Z"/>
      <path class="cls-5" d="M423.53,652.22v3.2h2.47v1.75h-2.47v8.2c0,.53.11.93.33,1.19s.59.4,1.12.4c.26,0,.62-.05,1.07-.15v1.82c-.59.16-1.17.24-1.73.24-1.01,0-1.77-.3-2.28-.92-.51-.61-.77-1.48-.77-2.6v-8.19h-2.4v-1.75h2.4v-3.2h2.26Z"/>
      <path class="cls-5" d="M432.96,665.32l3.08-9.9h2.42l-5.31,15.25c-.82,2.2-2.13,3.29-3.92,3.29l-.43-.04-.84-.16v-1.83l.61.05c.76,0,1.36-.16,1.79-.46.43-.31.78-.87,1.06-1.7l.5-1.34-4.71-13.06h2.47l3.3,9.9h-.02Z"/>
      <path class="cls-5" d="M452.24,660.7c-2.01-.58-3.47-1.29-4.39-2.13s-1.37-1.88-1.37-3.12c0-1.4.56-2.56,1.68-3.47,1.12-.92,2.57-1.37,4.36-1.37,1.22,0,2.31.24,3.27.71s1.7,1.12,2.22,1.95c.53.83.79,1.74.79,2.72h-2.36c0-1.08-.34-1.92-1.03-2.54-.68-.62-1.65-.93-2.89-.93-1.16,0-2.06.25-2.7.76-.65.51-.97,1.22-.97,2.12,0,.73.31,1.34.92,1.84.61.5,1.66.96,3.14,1.38s2.63.87,3.47,1.38c.83.5,1.45,1.08,1.86,1.75.4.67.6,1.45.6,2.36,0,1.44-.56,2.59-1.68,3.46s-2.62,1.3-4.5,1.3c-1.22,0-2.36-.23-3.42-.7s-1.87-1.11-2.45-1.92c-.57-.81-.86-1.74-.86-2.77h2.36c0,1.07.4,1.92,1.19,2.54s1.85.93,3.18.93c1.24,0,2.19-.25,2.84-.76.66-.5.99-1.19.99-2.06s-.3-1.54-.92-2.02c-.61-.48-1.72-.95-3.32-1.41h0Z"/>
      <path class="cls-5" d="M466.96,668.87c-1.79,0-3.25-.59-4.37-1.76s-1.68-2.75-1.68-4.72v-.41c0-1.31.25-2.48.75-3.51s1.2-1.83,2.1-2.42c.9-.58,1.87-.87,2.92-.87,1.72,0,3.05.57,4,1.7s1.43,2.75,1.43,4.86v.94h-8.95c.03,1.3.41,2.35,1.14,3.16.73.8,1.65,1.2,2.78,1.2.8,0,1.47-.16,2.03-.49.55-.33,1.04-.76,1.45-1.29l1.38,1.07c-1.11,1.7-2.77,2.55-4.98,2.55h0ZM466.68,657.03c-.91,0-1.68.33-2.29,1s-1,1.59-1.15,2.79h6.62v-.17c-.07-1.15-.37-2.04-.93-2.67s-1.3-.95-2.25-.95Z"/>
      <path class="cls-5" d="M481.11,657.44c-.34-.06-.71-.09-1.11-.09-1.48,0-2.49.63-3.02,1.89v9.38h-2.26v-13.21h2.2l.04,1.53c.74-1.18,1.79-1.77,3.15-1.77.44,0,.77.06,1,.17v2.1h0Z"/>
      <path class="cls-5" d="M487.77,665.56l3.27-10.14h2.31l-4.74,13.21h-1.72l-4.79-13.21h2.31l3.36,10.14h0Z"/>
      <path class="cls-5" d="M500.84,668.87c-1.79,0-3.25-.59-4.37-1.76s-1.68-2.75-1.68-4.72v-.41c0-1.31.25-2.48.75-3.51s1.2-1.83,2.1-2.42,1.87-.87,2.92-.87c1.72,0,3.05.57,4,1.7s1.43,2.75,1.43,4.86v.94h-8.95c.03,1.3.41,2.35,1.14,3.16.73.8,1.65,1.2,2.78,1.2.8,0,1.47-.16,2.03-.49.55-.33,1.04-.76,1.45-1.29l1.38,1.07c-1.11,1.7-2.77,2.55-4.98,2.55h0ZM500.56,657.03c-.91,0-1.68.33-2.29,1-.62.66-1,1.59-1.15,2.79h6.62v-.17c-.07-1.15-.38-2.04-.93-2.67s-1.3-.95-2.25-.95Z"/>
      <path class="cls-5" d="M514.99,657.44c-.34-.06-.71-.09-1.11-.09-1.48,0-2.49.63-3.01,1.89v9.38h-2.26v-13.21h2.2l.04,1.53c.74-1.18,1.79-1.77,3.15-1.77.44,0,.77.06,1,.17v2.1h-.01Z"/>
    </g>
  </g>
  <g>
    <polyline class="cls-2" points="562.23 614.39 562.23 517.59 562.23 466.89 562.23 369.01"/>
    <path class="cls-5" d="M555.88,611.22h12.7c.6,0,.95.68.6,1.16l-6.35,8.95c-.29.41-.91.41-1.2,0l-6.35-8.95c-.35-.49,0-1.16.6-1.16Z"/>
  </g>
  <g>
    <polyline class="cls-2" points="697.26 379.61 697.26 476.42 697.26 527.11 697.26 625"/>
    <path class="cls-5" d="M690.91,382.79h12.7c.6,0,.95-.68.6-1.16l-6.35-8.95c-.29-.41-.91-.41-1.2,0l-6.35,8.95c-.35.49,0,1.16.6,1.16Z"/>
  </g>
  <g>
    <path class="cls-5" d="M406.91,553.1c-1.61-.46-2.78-1.03-3.51-1.7s-1.1-1.51-1.1-2.5c0-1.12.45-2.05,1.34-2.78.9-.73,2.06-1.1,3.49-1.1.98,0,1.85.19,2.61.57.77.38,1.36.9,1.78,1.56s.63,1.39.63,2.18h-1.88c0-.86-.27-1.54-.82-2.03s-1.32-.74-2.31-.74c-.92,0-1.65.2-2.16.61-.52.41-.78.97-.78,1.7,0,.58.25,1.07.74,1.47.49.4,1.33.77,2.51,1.1s2.11.7,2.77,1.1c.67.4,1.16.87,1.48,1.4s.48,1.16.48,1.88c0,1.15-.45,2.08-1.35,2.77s-2.1,1.04-3.6,1.04c-.98,0-1.89-.19-2.73-.56-.85-.37-1.5-.89-1.96-1.54s-.69-1.39-.69-2.22h1.88c0,.86.32,1.54.95,2.04s1.48.75,2.54.75c.99,0,1.75-.2,2.28-.61s.79-.95.79-1.65-.24-1.24-.73-1.62-1.37-.76-2.66-1.13h.01Z"/>
    <path class="cls-5" d="M416.11,550.15c.8-.98,1.84-1.47,3.12-1.47,2.23,0,3.36,1.26,3.38,3.78v6.98h-1.81v-6.99c0-.76-.18-1.33-.52-1.69s-.87-.55-1.6-.55c-.59,0-1.1.16-1.54.47s-.79.72-1.04,1.23v7.53h-1.81v-15h1.81v5.71h.01Z"/>
    <path class="cls-5" d="M424.84,554.06c0-1.04.2-1.97.61-2.79.41-.83.97-1.46,1.7-1.91.73-.45,1.55-.67,2.49-.67,1.44,0,2.6.5,3.49,1.49s1.33,2.32,1.33,3.97v.13c0,1.03-.2,1.95-.59,2.77-.39.82-.96,1.45-1.69,1.91s-1.57.68-2.52.68c-1.43,0-2.59-.5-3.48-1.49s-1.33-2.31-1.33-3.96v-.13h0ZM426.66,554.27c0,1.17.27,2.11.82,2.82.54.71,1.27,1.06,2.18,1.06s1.65-.36,2.19-1.08c.54-.72.81-1.73.81-3.02,0-1.16-.27-2.1-.83-2.82-.55-.72-1.28-1.08-2.19-1.08s-1.61.35-2.16,1.06-.82,1.73-.82,3.05h0Z"/>
    <path class="cls-5" d="M441.83,550.5c-.27-.05-.57-.07-.89-.07-1.18,0-1.99.5-2.41,1.51v7.5h-1.81v-10.57h1.76l.03,1.22c.59-.94,1.43-1.42,2.52-1.42.35,0,.62.05.8.14v1.68h0Z"/>
    <path class="cls-5" d="M446.43,546.32v2.56h1.97v1.4h-1.97v6.56c0,.42.09.74.26.95s.48.32.9.32c.21,0,.5-.04.86-.12v1.46c-.47.13-.94.19-1.39.19-.81,0-1.42-.24-1.83-.73s-.62-1.18-.62-2.08v-6.55h-1.92v-1.4h1.92v-2.56h1.82Z"/>
    <path class="cls-5" d="M457.63,557.91h6.74v1.53h-8.62v-14.22h1.88v12.69h0Z"/>
    <path class="cls-5" d="M466.24,546.07c0-.29.09-.54.27-.74s.44-.3.8-.3.62.1.8.3.27.45.27.74-.09.54-.27.73c-.18.2-.45.29-.8.29s-.62-.1-.8-.29c-.18-.2-.27-.44-.27-.73ZM468.19,559.44h-1.81v-10.57h1.81v10.57Z"/>
    <path class="cls-5" d="M474.57,556.99l2.62-8.12h1.85l-3.79,10.57h-1.38l-3.83-10.57h1.85l2.69,8.12h-.01Z"/>
    <path class="cls-5" d="M485.03,559.64c-1.43,0-2.6-.47-3.5-1.41s-1.35-2.2-1.35-3.77v-.33c0-1.05.2-1.98.6-2.81s.96-1.47,1.68-1.93c.72-.47,1.5-.7,2.34-.7,1.37,0,2.44.45,3.2,1.36s1.14,2.2,1.14,3.89v.75h-7.16c.03,1.04.33,1.88.91,2.52.58.64,1.32.96,2.22.96.64,0,1.18-.13,1.62-.39s.83-.61,1.16-1.04l1.1.86c-.88,1.36-2.21,2.04-3.98,2.04h.02ZM484.81,550.17c-.73,0-1.34.27-1.84.8-.49.53-.8,1.27-.92,2.23h5.29v-.14c-.05-.92-.3-1.63-.74-2.13s-1.04-.76-1.8-.76h0Z"/>
    <path class="cls-5" d="M490.8,554.07c0-1.62.38-2.92,1.15-3.91s1.77-1.48,3.02-1.48,2.22.42,2.94,1.27v-5.51h1.81v15h-1.66l-.09-1.13c-.72.89-1.73,1.33-3.02,1.33s-2.22-.5-2.99-1.5-1.16-2.31-1.16-3.93v-.14h0ZM492.61,554.28c0,1.2.25,2.14.74,2.81.5.68,1.18,1.02,2.05,1.02,1.15,0,1.98-.51,2.51-1.54v-4.85c-.54-1-1.37-1.49-2.49-1.49-.88,0-1.58.34-2.07,1.03-.49.68-.74,1.7-.74,3.04v-.02Z"/>
  </g>
  <g>
    <path class="cls-3" d="M542.11,566.1l6.35-6.35-4.52-4.52c-2.56,1.62-5.98,1.32-8.21-.91-2.23-2.23-2.53-5.65-.91-8.21l-4.52-4.52-31.07,31.07c-.99.99-.99,2.62,0,3.61l14.56,14.56c.99.99,2.62.99,3.61,0l27.66-27.66"/>
    <g>
      <circle class="cls-7" cx="526.89" cy="555.98" r="1.16"/>
      <circle class="cls-7" cx="530.37" cy="559.45" r="1.16"/>
      <circle class="cls-7" cx="533.85" cy="562.93" r="1.16"/>
    </g>
  </g>
  <g>
    <path class="cls-5" d="M588.27,422.23h-9.32v-1.3l4.92-5.47c.73-.83,1.23-1.5,1.51-2.02s.42-1.05.42-1.61c0-.74-.22-1.35-.67-1.83-.45-.47-1.05-.71-1.8-.71-.9,0-1.6.26-2.09.77-.5.51-.75,1.22-.75,2.13h-1.81c0-1.31.42-2.37,1.26-3.17.84-.81,1.97-1.21,3.38-1.21,1.32,0,2.37.35,3.13,1.04.77.69,1.15,1.62,1.15,2.77,0,1.4-.89,3.07-2.68,5l-3.81,4.13h7.14v1.47h.02Z"/>
    <path class="cls-5" d="M590.41,421.28c0-.31.09-.57.28-.78s.46-.31.83-.31.65.11.84.31c.19.21.29.47.29.78s-.1.55-.29.75-.47.3-.84.3-.65-.1-.83-.3c-.19-.2-.28-.45-.28-.75Z"/>
    <path class="cls-5" d="M610.3,409.54h-4.57v12.69h-1.87v-12.69h-4.56v-1.53h11v1.53Z"/>
    <path class="cls-5" d="M610.69,416.85c0-1.04.2-1.96.61-2.79.41-.83.97-1.46,1.7-1.91.73-.45,1.55-.67,2.49-.67,1.44,0,2.6.5,3.49,1.49s1.33,2.32,1.33,3.97v.13c0,1.03-.2,1.95-.59,2.77-.39.82-.96,1.45-1.69,1.91s-1.57.68-2.52.68c-1.43,0-2.59-.5-3.48-1.49s-1.33-2.31-1.33-3.96v-.13h0ZM612.51,417.06c0,1.17.27,2.11.82,2.82.54.71,1.27,1.06,2.18,1.06s1.65-.36,2.19-1.08.81-1.73.81-3.02c0-1.16-.28-2.1-.83-2.82s-1.28-1.08-2.19-1.08-1.61.36-2.16,1.06c-.55.71-.82,1.73-.82,3.05h0Z"/>
    <path class="cls-5" d="M625.52,417.34l-1.13,1.18v3.71h-1.81v-15h1.81v9.07l.97-1.16,3.29-3.48h2.2l-4.11,4.41,4.59,6.15h-2.12l-3.68-4.89h-.01Z"/>
    <path class="cls-5" d="M636.9,422.43c-1.43,0-2.6-.47-3.5-1.41s-1.35-2.2-1.35-3.78v-.33c0-1.05.2-1.98.6-2.81.4-.82.96-1.47,1.68-1.93.72-.47,1.5-.7,2.34-.7,1.37,0,2.44.45,3.2,1.36.76.91,1.14,2.2,1.14,3.89v.75h-7.16c.03,1.04.33,1.88.91,2.53.58.64,1.32.96,2.22.96.64,0,1.18-.13,1.62-.39s.83-.61,1.16-1.04l1.1.86c-.89,1.36-2.21,2.04-3.98,2.04h.02ZM636.68,412.96c-.73,0-1.34.27-1.84.8s-.8,1.27-.92,2.23h5.29v-.14c-.05-.92-.3-1.63-.74-2.13-.44-.51-1.04-.76-1.8-.76h.01Z"/>
    <path class="cls-5" d="M644.82,411.66l.06,1.33c.81-1.02,1.86-1.52,3.16-1.52,2.23,0,3.36,1.26,3.38,3.78v6.98h-1.81v-6.99c0-.76-.18-1.32-.52-1.69-.34-.36-.87-.55-1.6-.55-.59,0-1.1.16-1.54.47s-.79.72-1.04,1.23v7.53h-1.81v-10.57h1.72Z"/>
    <path class="cls-5" d="M587.46,439.66h-6.16v5.04h7.16v1.53h-9.03v-14.22h8.94v1.53h-7.06v4.58h6.16v1.53h0Z"/>
    <path class="cls-5" d="M594.05,439.52l2.34-3.86h2.11l-3.46,5.22,3.56,5.34h-2.09l-2.44-3.96-2.44,3.96h-2.1l3.56-5.34-3.46-5.22h2.09l2.31,3.86h.02Z"/>
    <path class="cls-5" d="M604.46,444.95c.64,0,1.21-.2,1.69-.59.48-.39.75-.88.8-1.46h1.71c-.03.61-.24,1.18-.62,1.73-.38.55-.9.98-1.54,1.31-.64.33-1.32.49-2.04.49-1.44,0-2.58-.48-3.43-1.44s-1.27-2.27-1.27-3.94v-.3c0-1.03.19-1.94.57-2.74s.92-1.42,1.63-1.87c.71-.44,1.54-.66,2.5-.66,1.18,0,2.17.36,2.95,1.06.78.71,1.2,1.63,1.25,2.76h-1.71c-.05-.68-.31-1.24-.78-1.68-.47-.44-1.04-.66-1.72-.66-.92,0-1.63.33-2.13.99s-.76,1.62-.76,2.87v.34c0,1.22.25,2.16.75,2.81.5.66,1.22.99,2.15.99h0Z"/>
    <path class="cls-5" d="M612.5,436.94c.8-.98,1.84-1.47,3.12-1.47,2.23,0,3.36,1.26,3.38,3.78v6.98h-1.81v-6.99c0-.76-.18-1.32-.52-1.69-.34-.36-.87-.55-1.6-.55-.59,0-1.1.16-1.54.47s-.79.72-1.04,1.23v7.53h-1.81v-15h1.81v5.71h0Z"/>
    <path class="cls-5" d="M628.23,446.23c-.1-.21-.19-.58-.25-1.11-.84.87-1.84,1.31-3.01,1.31-1.04,0-1.9-.29-2.56-.88-.67-.59-1-1.34-1-2.24,0-1.1.42-1.96,1.25-2.56.84-.61,2.01-.91,3.53-.91h1.76v-.83c0-.63-.19-1.13-.57-1.51s-.93-.56-1.67-.56c-.64,0-1.19.16-1.62.49-.44.33-.65.72-.65,1.18h-1.82c0-.53.19-1.04.56-1.53s.88-.88,1.52-1.17,1.35-.43,2.11-.43c1.22,0,2.17.3,2.86.91.69.61,1.05,1.45,1.07,2.51v4.86c0,.97.12,1.74.37,2.31v.16h-1.89.01ZM625.23,444.85c.57,0,1.1-.15,1.61-.44s.88-.67,1.1-1.14v-2.17h-1.42c-2.21,0-3.32.65-3.32,1.94,0,.57.19,1.01.57,1.33.38.32.86.48,1.46.48h0Z"/>
    <path class="cls-5" d="M634.3,435.66l.06,1.33c.81-1.02,1.86-1.52,3.16-1.52,2.23,0,3.36,1.26,3.38,3.78v6.98h-1.81v-6.99c0-.76-.18-1.32-.52-1.69-.34-.36-.87-.55-1.6-.55-.59,0-1.1.16-1.54.47s-.79.72-1.04,1.23v7.53h-1.81v-10.57h1.72Z"/>
    <path class="cls-5" d="M643.2,440.86c0-1.65.38-2.96,1.14-3.93s1.77-1.46,3.03-1.46,2.29.46,3.02,1.37l.09-1.17h1.65v10.31c0,1.37-.41,2.45-1.22,3.23-.81.79-1.9,1.18-3.27,1.18-.76,0-1.51-.16-2.24-.49-.73-.32-1.29-.77-1.67-1.34l.94-1.08c.77.96,1.72,1.44,2.84,1.44.88,0,1.56-.25,2.06-.74.49-.49.74-1.19.74-2.09v-.91c-.72.83-1.71,1.25-2.96,1.25s-2.24-.5-3-1.49c-.77-1-1.15-2.35-1.15-4.07h0ZM645.02,441.07c0,1.19.24,2.13.73,2.81s1.17,1.02,2.05,1.02c1.14,0,1.98-.52,2.51-1.55v-4.82c-.55-1.01-1.38-1.51-2.49-1.51-.88,0-1.57.34-2.06,1.03-.5.68-.74,1.7-.74,3.04v-.02Z"/>
    <path class="cls-5" d="M659.23,446.43c-1.43,0-2.6-.47-3.5-1.41s-1.35-2.2-1.35-3.78v-.33c0-1.05.2-1.98.6-2.81.4-.82.96-1.47,1.68-1.93.72-.47,1.5-.7,2.34-.7,1.37,0,2.44.45,3.2,1.36.76.91,1.14,2.2,1.14,3.89v.75h-7.16c.03,1.04.33,1.88.91,2.53.58.64,1.32.96,2.22.96.64,0,1.18-.13,1.62-.39s.83-.61,1.16-1.04l1.1.86c-.89,1.36-2.21,2.04-3.98,2.04h.02ZM659.01,436.96c-.73,0-1.34.27-1.84.8s-.8,1.27-.92,2.23h5.29v-.14c-.05-.92-.3-1.63-.74-2.13-.44-.51-1.04-.76-1.8-.76h.01Z"/>
  </g>
  <g>
    <path class="cls-5" d="M724.66,419.51h6.74v1.53h-8.62v-14.22h1.88v12.69Z"/>
    <path class="cls-5" d="M732.77,415.67c0-1.04.2-1.97.61-2.79.41-.83.97-1.46,1.7-1.91.73-.45,1.55-.67,2.49-.67,1.44,0,2.6.5,3.49,1.49s1.33,2.32,1.33,3.97v.13c0,1.03-.2,1.95-.59,2.77-.39.82-.96,1.45-1.69,1.91s-1.57.68-2.52.68c-1.43,0-2.59-.5-3.48-1.49s-1.33-2.31-1.33-3.96v-.13h0ZM734.59,415.88c0,1.17.27,2.11.82,2.82.54.71,1.27,1.06,2.18,1.06s1.65-.36,2.19-1.08.81-1.73.81-3.02c0-1.16-.27-2.1-.83-2.82-.55-.72-1.28-1.08-2.19-1.08s-1.61.35-2.16,1.06-.82,1.73-.82,3.05h0Z"/>
    <path class="cls-5" d="M746.37,410.48l.06,1.33c.81-1.02,1.86-1.52,3.16-1.52,2.23,0,3.36,1.26,3.38,3.78v6.98h-1.81v-6.99c0-.76-.18-1.33-.52-1.69s-.87-.55-1.6-.55c-.59,0-1.1.16-1.54.47s-.79.72-1.04,1.23v7.53h-1.81v-10.57h1.72Z"/>
    <path class="cls-5" d="M755.26,415.68c0-1.65.38-2.96,1.14-3.93s1.77-1.46,3.03-1.46,2.29.46,3.02,1.37l.09-1.17h1.65v10.31c0,1.37-.41,2.44-1.22,3.23s-1.9,1.18-3.27,1.18c-.76,0-1.51-.16-2.24-.49s-1.29-.77-1.67-1.34l.94-1.08c.78.96,1.72,1.44,2.84,1.44.88,0,1.56-.25,2.06-.74.49-.5.74-1.19.74-2.09v-.91c-.72.83-1.71,1.25-2.96,1.25s-2.24-.5-3-1.49c-.76-1-1.15-2.35-1.15-4.07h0ZM757.08,415.89c0,1.19.24,2.13.73,2.81s1.17,1.02,2.05,1.02c1.14,0,1.98-.52,2.51-1.55v-4.82c-.55-1.01-1.38-1.51-2.49-1.51-.88,0-1.57.34-2.06,1.03-.49.68-.74,1.7-.74,3.04v-.02Z"/>
    <path class="cls-5" d="M774.03,419.51h6.74v1.53h-8.62v-14.22h1.88v12.69Z"/>
    <path class="cls-5" d="M782.63,407.68c0-.29.09-.54.27-.74.18-.2.44-.3.8-.3s.62.1.8.3c.18.2.27.45.27.74s-.09.54-.27.73c-.18.2-.45.29-.8.29s-.62-.1-.8-.29c-.18-.2-.27-.44-.27-.73ZM784.58,421.05h-1.81v-10.57h1.81v10.57Z"/>
    <path class="cls-5" d="M790.96,418.6l2.62-8.12h1.85l-3.79,10.57h-1.38l-3.83-10.57h1.85l2.69,8.12h0Z"/>
    <path class="cls-5" d="M801.42,421.24c-1.43,0-2.6-.47-3.5-1.41s-1.35-2.2-1.35-3.77v-.33c0-1.05.2-1.98.6-2.81s.96-1.47,1.68-1.93c.72-.47,1.5-.7,2.34-.7,1.37,0,2.44.45,3.2,1.36s1.14,2.2,1.14,3.89v.75h-7.16c.03,1.04.33,1.88.91,2.52.58.64,1.32.96,2.22.96.64,0,1.18-.13,1.62-.39s.83-.61,1.16-1.04l1.1.86c-.88,1.36-2.21,2.04-3.98,2.04h.02ZM801.2,411.77c-.73,0-1.34.27-1.84.8-.49.53-.8,1.27-.92,2.23h5.29v-.14c-.05-.92-.3-1.63-.74-2.13s-1.04-.76-1.8-.76h.01Z"/>
    <path class="cls-5" d="M807.2,415.68c0-1.62.38-2.92,1.15-3.91s1.77-1.48,3.02-1.48,2.22.42,2.94,1.27v-5.51h1.81v15h-1.66l-.09-1.13c-.72.89-1.73,1.33-3.02,1.33s-2.22-.5-2.99-1.5-1.16-2.31-1.16-3.93v-.14h0ZM809.01,415.89c0,1.2.25,2.14.74,2.81.5.68,1.18,1.02,2.05,1.02,1.15,0,1.98-.51,2.51-1.54v-4.85c-.54-1-1.37-1.49-2.49-1.49-.88,0-1.58.34-2.07,1.03-.49.68-.74,1.7-.74,3.04v-.02Z"/>
    <path class="cls-5" d="M727.66,437.42h3.96v1.71h-3.96v4.49h-1.82v-4.49h-3.96v-1.71h3.96v-4.15h1.82v4.15Z"/>
    <path class="cls-5" d="M743.88,436.1c-.27-.05-.57-.07-.89-.07-1.18,0-1.99.5-2.41,1.51v7.5h-1.81v-10.57h1.76l.03,1.22c.59-.94,1.43-1.42,2.52-1.42.35,0,.62.05.8.14v1.68h0Z"/>
    <path class="cls-5" d="M749.74,445.24c-1.43,0-2.6-.47-3.5-1.41s-1.35-2.2-1.35-3.77v-.33c0-1.05.2-1.98.6-2.81s.96-1.47,1.68-1.93c.72-.47,1.5-.7,2.34-.7,1.37,0,2.44.45,3.2,1.36s1.14,2.2,1.14,3.89v.75h-7.16c.03,1.04.33,1.88.91,2.52.58.64,1.32.96,2.22.96.64,0,1.18-.13,1.62-.39s.83-.61,1.16-1.04l1.1.86c-.88,1.36-2.21,2.04-3.98,2.04h.02ZM749.52,435.77c-.73,0-1.34.27-1.84.8-.49.53-.8,1.27-.92,2.23h5.29v-.14c-.05-.92-.3-1.63-.74-2.13s-1.04-.76-1.8-.76h.01Z"/>
    <path class="cls-5" d="M755.52,439.68c0-1.62.38-2.92,1.15-3.91s1.77-1.48,3.02-1.48,2.22.42,2.94,1.27v-5.51h1.81v15h-1.66l-.09-1.13c-.72.89-1.73,1.33-3.02,1.33s-2.22-.5-2.99-1.5-1.16-2.31-1.16-3.93v-.14h0ZM757.33,439.89c0,1.2.25,2.14.74,2.81.5.68,1.18,1.02,2.05,1.02,1.15,0,1.98-.51,2.51-1.54v-4.85c-.54-1-1.37-1.49-2.49-1.49-.88,0-1.58.34-2.07,1.03-.49.68-.74,1.7-.74,3.04v-.02Z"/>
    <path class="cls-5" d="M773.76,444c-.7.83-1.73,1.24-3.1,1.24-1.13,0-1.98-.33-2.57-.98-.59-.65-.89-1.62-.89-2.91v-6.88h1.81v6.83c0,1.6.65,2.4,1.95,2.4,1.38,0,2.3-.51,2.75-1.54v-7.69h1.81v10.57h-1.72l-.04-1.04h0Z"/>
    <path class="cls-5" d="M782.5,443.77c.64,0,1.21-.2,1.69-.59.48-.39.75-.88.8-1.46h1.71c-.03.61-.24,1.18-.62,1.73-.38.55-.9.98-1.54,1.31-.64.33-1.32.49-2.04.49-1.44,0-2.58-.48-3.43-1.44s-1.27-2.27-1.27-3.94v-.3c0-1.03.19-1.94.57-2.74s.92-1.42,1.63-1.87c.71-.44,1.54-.66,2.5-.66,1.19,0,2.17.35,2.95,1.06.79.71,1.2,1.63,1.25,2.76h-1.71c-.05-.68-.31-1.25-.78-1.68-.46-.44-1.04-.66-1.72-.66-.92,0-1.63.33-2.13.99s-.76,1.62-.76,2.87v.34c0,1.22.25,2.16.75,2.81.5.66,1.22.99,2.15.99h0Z"/>
    <path class="cls-5" d="M793.11,445.24c-1.43,0-2.6-.47-3.5-1.41s-1.35-2.2-1.35-3.77v-.33c0-1.05.2-1.98.6-2.81s.96-1.47,1.68-1.93c.72-.47,1.5-.7,2.34-.7,1.37,0,2.44.45,3.2,1.36s1.14,2.2,1.14,3.89v.75h-7.16c.03,1.04.33,1.88.91,2.52.58.64,1.32.96,2.22.96.64,0,1.18-.13,1.62-.39s.83-.61,1.16-1.04l1.1.86c-.88,1.36-2.21,2.04-3.98,2.04h.02ZM792.89,435.77c-.73,0-1.34.27-1.84.8-.49.53-.8,1.27-.92,2.23h5.29v-.14c-.05-.92-.3-1.63-.74-2.13s-1.04-.76-1.8-.76h.01Z"/>
    <path class="cls-5" d="M798.88,439.68c0-1.62.38-2.92,1.15-3.91s1.77-1.48,3.02-1.48,2.22.42,2.94,1.27v-5.51h1.81v15h-1.66l-.09-1.13c-.72.89-1.73,1.33-3.02,1.33s-2.22-.5-2.99-1.5-1.16-2.31-1.16-3.93v-.14h0ZM800.69,439.89c0,1.2.25,2.14.74,2.81.5.68,1.18,1.02,2.05,1.02,1.15,0,1.98-.51,2.51-1.54v-4.85c-.54-1-1.37-1.49-2.49-1.49-.88,0-1.58.34-2.07,1.03-.49.68-.74,1.7-.74,3.04v-.02Z"/>
    <path class="cls-5" d="M731.41,463.88c0,1.61-.37,2.9-1.1,3.89-.74.98-1.73,1.47-2.99,1.47s-2.29-.41-3.03-1.22v5.09h-1.81v-14.63h1.65l.09,1.17c.74-.91,1.76-1.37,3.07-1.37s2.27.48,3.01,1.44,1.11,2.29,1.11,3.99v.17h0ZM729.6,463.67c0-1.19-.25-2.13-.76-2.82s-1.2-1.04-2.09-1.04c-1.09,0-1.91.49-2.46,1.46v5.05c.54.96,1.37,1.45,2.48,1.45.87,0,1.55-.34,2.07-1.03.51-.69.77-1.71.77-3.06h0Z"/>
    <path class="cls-5" d="M738.82,460.1c-.27-.05-.57-.07-.89-.07-1.18,0-1.99.5-2.41,1.51v7.5h-1.81v-10.57h1.76l.03,1.22c.59-.94,1.43-1.42,2.52-1.42.35,0,.62.05.8.14v1.68h0Z"/>
    <path class="cls-5" d="M740.49,455.68c0-.29.09-.54.27-.74.18-.2.44-.3.8-.3s.62.1.8.3c.18.2.27.45.27.74s-.09.54-.27.73c-.18.2-.45.29-.8.29s-.62-.1-.8-.29c-.18-.2-.27-.44-.27-.73ZM742.44,469.05h-1.81v-10.57h1.81v10.57Z"/>
    <path class="cls-5" d="M748.82,466.6l2.62-8.12h1.85l-3.79,10.57h-1.38l-3.83-10.57h1.85l2.69,8.12h0Z"/>
    <path class="cls-5" d="M755.03,455.68c0-.29.09-.54.27-.74.18-.2.44-.3.8-.3s.62.1.8.3c.18.2.27.45.27.74s-.09.54-.27.73c-.18.2-.45.29-.8.29s-.62-.1-.8-.29c-.18-.2-.27-.44-.27-.73ZM756.98,469.05h-1.81v-10.57h1.81v10.57Z"/>
    <path class="cls-5" d="M761.83,469.05h-1.81v-15h1.81v15Z"/>
    <path class="cls-5" d="M769.11,469.24c-1.43,0-2.6-.47-3.5-1.41s-1.35-2.2-1.35-3.77v-.33c0-1.05.2-1.98.6-2.81s.96-1.47,1.68-1.93c.72-.47,1.5-.7,2.34-.7,1.37,0,2.44.45,3.2,1.36s1.14,2.2,1.14,3.89v.75h-7.16c.03,1.04.33,1.88.91,2.52.58.64,1.32.96,2.22.96.64,0,1.18-.13,1.62-.39s.83-.61,1.16-1.04l1.1.86c-.88,1.36-2.21,2.04-3.98,2.04h.02ZM768.89,459.77c-.73,0-1.34.27-1.84.8-.49.53-.8,1.27-.92,2.23h5.29v-.14c-.05-.92-.3-1.63-.74-2.13s-1.04-.76-1.8-.76h.01Z"/>
    <path class="cls-5" d="M774.89,463.68c0-1.65.38-2.96,1.14-3.93s1.77-1.46,3.03-1.46,2.29.46,3.02,1.37l.09-1.17h1.65v10.31c0,1.37-.41,2.44-1.22,3.23s-1.9,1.18-3.27,1.18c-.76,0-1.51-.16-2.24-.49s-1.29-.77-1.67-1.34l.94-1.08c.78.96,1.72,1.44,2.84,1.44.88,0,1.56-.25,2.06-.74.49-.5.74-1.19.74-2.09v-.91c-.72.83-1.71,1.25-2.96,1.25s-2.24-.5-3-1.49c-.76-1-1.15-2.35-1.15-4.07h0ZM776.71,463.89c0,1.19.24,2.13.73,2.81s1.17,1.02,2.05,1.02c1.14,0,1.98-.52,2.51-1.55v-4.82c-.55-1.01-1.38-1.51-2.49-1.51-.88,0-1.57.34-2.06,1.03-.49.68-.74,1.7-.74,3.04v-.02Z"/>
    <path class="cls-5" d="M790.93,469.24c-1.43,0-2.6-.47-3.5-1.41s-1.35-2.2-1.35-3.77v-.33c0-1.05.2-1.98.6-2.81s.96-1.47,1.68-1.93c.72-.47,1.5-.7,2.34-.7,1.37,0,2.44.45,3.2,1.36s1.14,2.2,1.14,3.89v.75h-7.16c.03,1.04.33,1.88.91,2.52.58.64,1.32.96,2.22.96.64,0,1.18-.13,1.62-.39s.83-.61,1.16-1.04l1.1.86c-.88,1.36-2.21,2.04-3.98,2.04h.02ZM790.71,459.77c-.73,0-1.34.27-1.84.8-.49.53-.8,1.27-.92,2.23h5.29v-.14c-.05-.92-.3-1.63-.74-2.13s-1.04-.76-1.8-.76h.01Z"/>
    <path class="cls-5" d="M803.29,466.25c0-.49-.18-.87-.55-1.14-.37-.27-1.01-.5-1.92-.7s-1.64-.43-2.18-.7-.93-.6-1.19-.98-.39-.83-.39-1.35c0-.87.37-1.6,1.1-2.2s1.67-.9,2.81-.9c1.2,0,2.17.31,2.92.93s1.12,1.41,1.12,2.37h-1.82c0-.5-.21-.92-.63-1.28s-.95-.54-1.59-.54-1.17.14-1.54.43-.56.66-.56,1.12.17.76.52.99c.35.22.97.43,1.87.63s1.63.44,2.19.72.98.62,1.25,1.01.41.87.41,1.44c0,.94-.38,1.7-1.13,2.27-.75.57-1.73.85-2.94.85-.85,0-1.59-.15-2.25-.45-.65-.3-1.16-.72-1.53-1.25-.37-.54-.55-1.12-.55-1.74h1.81c.03.61.28,1.09.73,1.44.45.35,1.05.53,1.79.53.68,0,1.23-.14,1.65-.42.41-.28.62-.65.62-1.11l-.02.03Z"/>
  </g>
  <g>
    <path class="cls-3" d="M862.24,445.97l6.35-6.35-4.52-4.52c-2.56,1.62-5.98,1.32-8.21-.91-2.23-2.23-2.53-5.65-.91-8.21l-4.52-4.52-31.07,31.07c-.99.99-.99,2.62,0,3.61l14.56,14.56c.99.99,2.62.99,3.61,0l27.66-27.66"/>
    <g>
      <circle class="cls-7" cx="847.02" cy="435.84" r="1.16"/>
      <circle class="cls-7" cx="850.5" cy="439.32" r="1.16"/>
      <circle class="cls-7" cx="853.98" cy="442.8" r="1.16"/>
    </g>
  </g>
  <g>
    <path class="cls-5" d="M124.32,544.4h-1.82v-12.04l-3.64,1.34v-1.64l5.18-1.94h.28v14.29h0Z"/>
    <path class="cls-5" d="M129.84,543.46c0-.31.09-.57.28-.78s.46-.31.83-.31.65.1.84.31.29.47.29.78-.1.55-.29.75c-.19.2-.47.3-.84.3s-.65-.1-.83-.3-.28-.45-.28-.75Z"/>
    <path class="cls-5" d="M148.15,540.68h-5.96l-1.34,3.72h-1.93l5.43-14.22h1.64l5.44,14.22h-1.92l-1.36-3.72ZM142.76,539.15h4.83l-2.42-6.65-2.41,6.65Z"/>
    <path class="cls-5" d="M159.47,543.36c-.7.83-1.73,1.24-3.1,1.24-1.13,0-1.98-.33-2.57-.98-.59-.65-.89-1.62-.89-2.91v-6.88h1.81v6.83c0,1.6.65,2.4,1.95,2.4,1.38,0,2.3-.51,2.75-1.54v-7.69h1.81v10.57h-1.72l-.04-1.04h0Z"/>
    <path class="cls-5" d="M166.43,531.28v2.56h1.97v1.4h-1.97v6.56c0,.42.09.74.26.95s.48.32.9.32c.21,0,.5-.04.86-.12v1.46c-.47.13-.94.19-1.39.19-.81,0-1.42-.24-1.83-.73s-.62-1.18-.62-2.08v-6.55h-1.92v-1.4h1.92v-2.56h1.82Z"/>
    <path class="cls-5" d="M172.32,535.12c.8-.98,1.84-1.47,3.12-1.47,2.23,0,3.36,1.26,3.38,3.78v6.98h-1.81v-6.99c0-.76-.18-1.33-.52-1.69s-.87-.55-1.6-.55c-.59,0-1.1.16-1.54.47-.44.31-.79.72-1.04,1.23v7.53h-1.81v-15h1.81v5.71h0Z"/>
    <path class="cls-5" d="M185.91,544.6c-1.43,0-2.6-.47-3.5-1.41s-1.35-2.2-1.35-3.77v-.33c0-1.05.2-1.98.6-2.81s.96-1.47,1.68-1.93c.72-.47,1.5-.7,2.34-.7,1.37,0,2.44.45,3.2,1.36s1.14,2.2,1.14,3.89v.75h-7.16c.03,1.04.33,1.88.91,2.52s1.32.96,2.22.96c.64,0,1.18-.13,1.62-.39s.83-.61,1.16-1.04l1.1.86c-.88,1.36-2.21,2.04-3.98,2.04h.02ZM185.69,535.13c-.73,0-1.34.27-1.84.8-.49.53-.8,1.27-.92,2.23h5.29v-.14c-.05-.92-.3-1.63-.74-2.13s-1.04-.76-1.8-.76h.01Z"/>
    <path class="cls-5" d="M193.83,533.84l.06,1.33c.81-1.02,1.86-1.52,3.16-1.52,2.23,0,3.36,1.26,3.38,3.78v6.98h-1.81v-6.99c0-.76-.18-1.33-.52-1.69s-.87-.55-1.6-.55c-.59,0-1.1.16-1.54.47-.44.31-.79.72-1.04,1.23v7.53h-1.81v-10.57h1.72Z"/>
    <path class="cls-5" d="M205.61,531.28v2.56h1.97v1.4h-1.97v6.56c0,.42.09.74.26.95s.48.32.9.32c.21,0,.5-.04.86-.12v1.46c-.47.13-.94.19-1.39.19-.81,0-1.42-.24-1.83-.73s-.62-1.18-.62-2.08v-6.55h-1.92v-1.4h1.92v-2.56h1.82Z"/>
    <path class="cls-5" d="M209.7,531.03c0-.29.09-.54.27-.74.18-.2.44-.3.8-.3s.62.1.8.3c.18.2.27.45.27.74s-.09.54-.27.73c-.18.2-.45.29-.8.29s-.62-.1-.8-.29c-.18-.2-.27-.44-.27-.73ZM211.65,544.4h-1.81v-10.57h1.81v10.57Z"/>
    <path class="cls-5" d="M218.78,543.12c.64,0,1.21-.2,1.69-.59s.75-.88.8-1.46h1.71c-.03.61-.24,1.18-.62,1.73-.38.55-.9.98-1.54,1.31s-1.32.49-2.04.49c-1.44,0-2.58-.48-3.43-1.44s-1.27-2.27-1.27-3.94v-.3c0-1.03.19-1.94.57-2.74s.92-1.42,1.63-1.87c.71-.44,1.54-.66,2.5-.66,1.19,0,2.17.35,2.95,1.06.79.71,1.2,1.63,1.25,2.76h-1.71c-.05-.68-.31-1.25-.78-1.68-.46-.44-1.04-.66-1.72-.66-.92,0-1.63.33-2.13.99s-.76,1.62-.76,2.87v.34c0,1.22.25,2.16.75,2.81.5.66,1.22.99,2.15.99h0Z"/>
    <path class="cls-5" d="M231.54,544.4c-.1-.21-.19-.58-.25-1.11-.84.87-1.84,1.31-3.01,1.31-1.04,0-1.9-.29-2.56-.88-.67-.59-1-1.34-1-2.24,0-1.1.42-1.96,1.25-2.56.84-.61,2.01-.91,3.53-.91h1.76v-.83c0-.63-.19-1.13-.57-1.51-.38-.37-.93-.56-1.67-.56-.64,0-1.18.16-1.62.49s-.65.72-.65,1.18h-1.82c0-.53.19-1.04.56-1.53.38-.49.88-.88,1.52-1.17s1.35-.43,2.11-.43c1.22,0,2.17.3,2.86.91s1.05,1.45,1.07,2.51v4.86c0,.97.12,1.74.37,2.31v.16h-1.89,0ZM228.54,543.02c.57,0,1.1-.15,1.61-.44s.88-.67,1.1-1.14v-2.17h-1.42c-2.21,0-3.32.65-3.32,1.94,0,.57.19,1.01.57,1.33s.86.48,1.46.48h0Z"/>
    <path class="cls-5" d="M238.34,531.28v2.56h1.97v1.4h-1.97v6.56c0,.42.09.74.26.95s.48.32.9.32c.21,0,.5-.04.86-.12v1.46c-.47.13-.94.19-1.39.19-.81,0-1.42-.24-1.83-.73s-.62-1.18-.62-2.08v-6.55h-1.92v-1.4h1.92v-2.56h1.82Z"/>
    <path class="cls-5" d="M246.81,544.6c-1.43,0-2.6-.47-3.5-1.41s-1.35-2.2-1.35-3.77v-.33c0-1.05.2-1.98.6-2.81s.96-1.47,1.68-1.93c.72-.47,1.5-.7,2.34-.7,1.37,0,2.44.45,3.2,1.36s1.14,2.2,1.14,3.89v.75h-7.16c.03,1.04.33,1.88.91,2.52s1.32.96,2.22.96c.64,0,1.18-.13,1.62-.39s.83-.61,1.16-1.04l1.1.86c-.88,1.36-2.21,2.04-3.98,2.04h.02ZM246.59,535.13c-.73,0-1.34.27-1.84.8-.49.53-.8,1.27-.92,2.23h5.29v-.14c-.05-.92-.3-1.63-.74-2.13s-1.04-.76-1.8-.76h.01Z"/>
    <path class="cls-5" d="M128.86,554.18v9.67c0,1.34-.43,2.44-1.26,3.29-.84.85-1.97,1.33-3.4,1.44l-.5.02c-1.56,0-2.8-.42-3.72-1.26s-1.39-2-1.41-3.47v-9.69h1.86v9.63c0,1.03.28,1.83.85,2.4s1.37.85,2.42.85,1.87-.28,2.44-.85c.56-.57.84-1.36.84-2.39v-9.64h1.88Z"/>
    <path class="cls-5" d="M137.69,565.6c0-.49-.18-.87-.55-1.14-.37-.27-1.01-.5-1.92-.7s-1.64-.43-2.18-.7-.93-.6-1.19-.98c-.26-.38-.39-.83-.39-1.35,0-.87.37-1.6,1.1-2.2s1.67-.9,2.81-.9c1.2,0,2.17.31,2.92.93s1.12,1.41,1.12,2.37h-1.82c0-.5-.21-.92-.63-1.28s-.95-.54-1.59-.54-1.17.14-1.54.43-.56.66-.56,1.12.17.76.52.99c.35.22.97.43,1.87.63s1.63.44,2.19.72c.56.28.98.62,1.25,1.01s.41.87.41,1.44c0,.94-.38,1.7-1.13,2.27s-1.73.85-2.94.85c-.85,0-1.59-.15-2.25-.45-.65-.3-1.16-.72-1.53-1.25-.37-.54-.55-1.12-.55-1.74h1.81c.03.61.28,1.09.73,1.44s1.05.53,1.79.53c.68,0,1.23-.14,1.65-.42.41-.28.62-.65.62-1.11l-.02.03Z"/>
    <path class="cls-5" d="M146.23,568.6c-1.43,0-2.6-.47-3.5-1.41s-1.35-2.2-1.35-3.77v-.33c0-1.05.2-1.98.6-2.81s.96-1.47,1.68-1.93c.72-.47,1.5-.7,2.34-.7,1.37,0,2.44.45,3.2,1.36s1.14,2.2,1.14,3.89v.75h-7.16c.03,1.04.33,1.88.91,2.52s1.32.96,2.22.96c.64,0,1.18-.13,1.62-.39s.83-.61,1.16-1.04l1.1.86c-.88,1.36-2.21,2.04-3.98,2.04h.02ZM146.01,559.13c-.73,0-1.34.27-1.84.8-.49.53-.8,1.27-.92,2.23h5.29v-.14c-.05-.92-.3-1.63-.74-2.13s-1.04-.76-1.8-.76h.01Z"/>
    <path class="cls-5" d="M157.55,559.46c-.27-.05-.57-.07-.89-.07-1.18,0-1.99.5-2.41,1.51v7.5h-1.81v-10.57h1.76l.03,1.22c.59-.94,1.43-1.42,2.52-1.42.35,0,.62.05.8.14v1.68h0Z"/>
  </g>
  <g>
    <polyline class="cls-2" points="100.96 614.57 100.96 517.77 100.96 467.08 100.96 412.42"/>
    <path class="cls-5" d="M94.61,611.4h12.7c.6,0,.95.68.6,1.16l-6.35,8.95c-.29.41-.91.41-1.2,0l-6.35-8.95c-.35-.49,0-1.16.6-1.16Z"/>
  </g>
  <g>
    <path class="cls-3" d="M487.55,283.32l6.35-6.35-4.52-4.52c-2.56,1.62-5.98,1.32-8.21-.91-2.23-2.23-2.53-5.65-.91-8.21l-4.52-4.52-31.07,31.07c-.99.99-.99,2.62,0,3.61l14.56,14.56c.99.99,2.62.99,3.61,0l27.66-27.66"/>
    <g>
      <circle class="cls-7" cx="472.33" cy="273.2" r="1.16"/>
      <circle class="cls-7" cx="475.8" cy="276.67" r="1.16"/>
      <circle class="cls-7" cx="479.28" cy="280.15" r="1.16"/>
    </g>
  </g>
  <g>
    <rect class="cls-2" x="528.16" y="36.84" width="460.98" height="73.23" rx="6.4" ry="6.4"/>
    <g>
      <path class="cls-5" d="M673.7,62.98l5.81,14.5,5.81-14.5h3.04v17.77h-2.34v-6.92l.22-7.47-5.83,14.39h-1.79l-5.82-14.36.23,7.43v6.92h-2.34v-17.77h3.03-.02Z"/>
      <path class="cls-5" d="M697.63,81c-1.79,0-3.25-.59-4.37-1.76s-1.68-2.75-1.68-4.72v-.41c0-1.31.25-2.48.75-3.51s1.2-1.83,2.1-2.42,1.87-.87,2.92-.87c1.72,0,3.05.57,4,1.7s1.43,2.75,1.43,4.86v.94h-8.95c.03,1.3.41,2.35,1.14,3.16.73.8,1.65,1.2,2.78,1.2.8,0,1.47-.16,2.03-.49.55-.33,1.04-.76,1.45-1.29l1.38,1.07c-1.11,1.7-2.77,2.55-4.98,2.55h0ZM697.35,69.16c-.91,0-1.68.33-2.29,1-.62.66-1,1.59-1.15,2.79h6.62v-.17c-.07-1.15-.38-2.04-.93-2.67s-1.3-.95-2.25-.95Z"/>
      <path class="cls-5" d="M713.08,77.25c0-.61-.23-1.08-.69-1.42s-1.26-.63-2.41-.87c-1.14-.24-2.05-.54-2.72-.88s-1.17-.75-1.49-1.22-.48-1.03-.48-1.68c0-1.08.46-2,1.37-2.75.92-.75,2.09-1.12,3.51-1.12,1.5,0,2.71.39,3.64,1.16.93.77,1.4,1.76,1.4,2.97h-2.27c0-.62-.26-1.15-.79-1.6-.52-.45-1.19-.67-1.98-.67s-1.46.18-1.93.54-.7.83-.7,1.4.21.96.65,1.23,1.21.54,2.34.79,2.04.55,2.74.9,1.22.77,1.56,1.26c.34.49.51,1.09.51,1.8,0,1.18-.47,2.13-1.42,2.84-.94.71-2.17,1.07-3.67,1.07-1.06,0-1.99-.19-2.81-.56s-1.45-.9-1.91-1.57c-.46-.67-.69-1.4-.69-2.18h2.26c.04.76.34,1.36.91,1.8.57.44,1.31.67,2.24.67.85,0,1.54-.17,2.06-.52s.78-.81.78-1.39h-.01Z"/>
      <path class="cls-5" d="M725.97,77.25c0-.61-.23-1.08-.69-1.42s-1.26-.63-2.41-.87c-1.14-.24-2.05-.54-2.72-.88s-1.17-.75-1.49-1.22-.48-1.03-.48-1.68c0-1.08.46-2,1.37-2.75.92-.75,2.09-1.12,3.51-1.12,1.5,0,2.71.39,3.64,1.16.93.77,1.4,1.76,1.4,2.97h-2.27c0-.62-.26-1.15-.79-1.6-.52-.45-1.19-.67-1.98-.67s-1.46.18-1.93.54-.7.83-.7,1.4.21.96.65,1.23,1.21.54,2.34.79,2.04.55,2.74.9,1.22.77,1.56,1.26c.34.49.51,1.09.51,1.8,0,1.18-.47,2.13-1.42,2.84-.94.71-2.17,1.07-3.67,1.07-1.06,0-1.99-.19-2.81-.56s-1.45-.9-1.91-1.57c-.46-.67-.69-1.4-.69-2.18h2.26c.04.76.34,1.36.91,1.8.57.44,1.31.67,2.24.67.85,0,1.54-.17,2.06-.52s.78-.81.78-1.39h-.01Z"/>
      <path class="cls-5" d="M739.33,80.76c-.13-.26-.24-.72-.32-1.39-1.05,1.09-2.3,1.64-3.76,1.64-1.3,0-2.37-.37-3.2-1.1s-1.25-1.67-1.25-2.8c0-1.38.52-2.44,1.57-3.2s2.52-1.14,4.41-1.14h2.2v-1.04c0-.79-.24-1.42-.71-1.89-.47-.47-1.17-.7-2.09-.7-.81,0-1.48.2-2.03.61-.54.41-.82.9-.82,1.48h-2.27c0-.66.23-1.3.7-1.91.47-.61,1.1-1.1,1.9-1.46.8-.36,1.68-.54,2.64-.54,1.52,0,2.71.38,3.58,1.14s1.31,1.81,1.34,3.14v6.08c0,1.21.15,2.18.46,2.89v.2h-2.37.02ZM735.58,79.04c.71,0,1.38-.18,2.01-.55s1.09-.84,1.38-1.43v-2.71h-1.77c-2.77,0-4.15.81-4.15,2.43,0,.71.24,1.26.71,1.66s1.08.6,1.82.6Z"/>
      <path class="cls-5" d="M744.23,74.04c0-2.06.48-3.7,1.43-4.91s2.21-1.83,3.78-1.83,2.87.57,3.77,1.71l.11-1.46h2.06v12.89c0,1.71-.51,3.06-1.52,4.04-1.01.99-2.37,1.48-4.08,1.48-.95,0-1.88-.2-2.8-.61s-1.61-.96-2.09-1.67l1.17-1.36c.97,1.2,2.15,1.79,3.55,1.79,1.1,0,1.96-.31,2.57-.93.62-.62.92-1.49.92-2.61v-1.13c-.9,1.04-2.14,1.56-3.7,1.56s-2.8-.62-3.75-1.87c-.96-1.25-1.43-2.94-1.43-5.09h.01ZM746.5,74.3c0,1.49.31,2.66.92,3.51s1.46,1.28,2.56,1.28c1.42,0,2.47-.65,3.14-1.94v-6.03c-.69-1.26-1.73-1.89-3.11-1.89-1.1,0-1.96.43-2.58,1.28s-.93,2.12-.93,3.8h0Z"/>
      <path class="cls-5" d="M764.28,81c-1.79,0-3.25-.59-4.37-1.76s-1.68-2.75-1.68-4.72v-.41c0-1.31.25-2.48.75-3.51s1.2-1.83,2.1-2.42,1.87-.87,2.92-.87c1.72,0,3.05.57,4,1.7s1.43,2.75,1.43,4.86v.94h-8.95c.03,1.3.41,2.35,1.14,3.16.73.8,1.65,1.2,2.78,1.2.8,0,1.47-.16,2.03-.49.55-.33,1.04-.76,1.45-1.29l1.38,1.07c-1.11,1.7-2.77,2.55-4.98,2.55h0ZM764,69.16c-.91,0-1.68.33-2.29,1-.62.66-1,1.59-1.15,2.79h6.62v-.17c-.07-1.15-.38-2.04-.93-2.67s-1.3-.95-2.25-.95Z"/>
      <path class="cls-5" d="M778.58,80.76v-17.77h5.81c1.93,0,3.38.4,4.35,1.2.97.8,1.46,1.98,1.46,3.54,0,.83-.24,1.56-.71,2.2-.47.64-1.12,1.13-1.93,1.48.96.27,1.72.78,2.28,1.53.56.75.84,1.65.84,2.69,0,1.59-.52,2.85-1.55,3.76s-2.49,1.37-4.38,1.37h-6.17ZM780.92,70.57h3.54c1.03,0,1.85-.26,2.46-.77.61-.51.92-1.21.92-2.09,0-.98-.29-1.69-.85-2.13-.57-.44-1.44-.67-2.6-.67h-3.47v5.66h0ZM780.92,72.45v6.4h3.87c1.09,0,1.95-.28,2.58-.85s.95-1.34.95-2.34c0-2.14-1.16-3.21-3.49-3.21h-3.91Z"/>
      <path class="cls-5" d="M800.18,69.58c-.34-.06-.71-.09-1.11-.09-1.48,0-2.49.63-3.01,1.89v9.38h-2.26v-13.21h2.2l.04,1.53c.74-1.18,1.79-1.77,3.15-1.77.44,0,.77.06,1,.17v2.1h-.01Z"/>
      <path class="cls-5" d="M801.41,74.03c0-1.29.25-2.46.76-3.49s1.22-1.83,2.12-2.39c.91-.56,1.94-.84,3.11-.84,1.8,0,3.25.62,4.36,1.87,1.11,1.24,1.67,2.9,1.67,4.97v.16c0,1.29-.25,2.44-.74,3.46s-1.2,1.82-2.11,2.39c-.92.57-1.97.85-3.16.85-1.79,0-3.24-.62-4.35-1.87s-1.67-2.89-1.67-4.94v-.16h0ZM803.68,74.3c0,1.46.34,2.64,1.02,3.53s1.59,1.33,2.73,1.33,2.06-.45,2.73-1.35,1.01-2.16,1.01-3.78c0-1.45-.34-2.62-1.03-3.52-.69-.9-1.6-1.35-2.74-1.35s-2.01.44-2.7,1.33c-.68.89-1.03,2.16-1.03,3.81h.01Z"/>
      <path class="cls-5" d="M819.96,74.64l-1.42,1.48v4.64h-2.26v-18.75h2.26v11.34l1.21-1.45,4.11-4.35h2.75l-5.14,5.52,5.74,7.69h-2.65s-4.6-6.12-4.6-6.12Z"/>
      <path class="cls-5" d="M834.18,81c-1.79,0-3.25-.59-4.37-1.76s-1.68-2.75-1.68-4.72v-.41c0-1.31.25-2.48.75-3.51s1.2-1.83,2.1-2.42,1.87-.87,2.92-.87c1.72,0,3.05.57,4,1.7s1.43,2.75,1.43,4.86v.94h-8.95c.03,1.3.41,2.35,1.14,3.16.73.8,1.65,1.2,2.78,1.2.8,0,1.47-.16,2.03-.49.55-.33,1.04-.76,1.45-1.29l1.38,1.07c-1.11,1.7-2.77,2.55-4.98,2.55h0ZM833.9,69.16c-.91,0-1.68.33-2.29,1-.62.66-1,1.59-1.15,2.79h6.62v-.17c-.07-1.15-.38-2.04-.93-2.67s-1.3-.95-2.25-.95Z"/>
      <path class="cls-5" d="M848.32,69.58c-.34-.06-.71-.09-1.11-.09-1.48,0-2.49.63-3.01,1.89v9.38h-2.26v-13.21h2.2l.04,1.53c.74-1.18,1.79-1.77,3.15-1.77.44,0,.77.06,1,.17v2.1h-.01Z"/>
    </g>
  </g>
  <g>
    <polyline class="cls-2" points="625.44 125.46 625.44 222.26 625.44 272.95"/>
    <path class="cls-5" d="M619.09,128.63h12.7c.6,0,.95-.68.6-1.16l-6.35-8.95c-.29-.41-.91-.41-1.2,0l-6.35,8.95c-.35.49,0,1.16.6,1.16Z"/>
  </g>
  <g>
    <path class="cls-3" d="M689.93,159.64l6.35-6.35-4.52-4.52c-2.56,1.62-5.98,1.32-8.21-.91-2.23-2.23-2.53-5.65-.91-8.21l-4.52-4.52-31.07,31.07c-.99.99-.99,2.62,0,3.61l14.56,14.56c.99.99,2.62.99,3.61,0l27.66-27.66"/>
    <g>
      <circle class="cls-7" cx="674.71" cy="149.51" r="1.16"/>
      <circle class="cls-7" cx="678.18" cy="152.99" r="1.16"/>
      <circle class="cls-7" cx="681.66" cy="156.47" r="1.16"/>
    </g>
  </g>
  <g>
    <path class="cls-5" d="M724.49,145.96h1.36c.85,0,1.52-.24,2.01-.67s.73-1.03.73-1.77c0-1.67-.83-2.5-2.49-2.5-.78,0-1.41.22-1.87.67s-.7,1.04-.7,1.77h-1.81c0-1.13.41-2.06,1.24-2.81s1.87-1.12,3.14-1.12c1.34,0,2.39.35,3.15,1.06s1.14,1.7,1.14,2.96c0,.62-.2,1.22-.6,1.8s-.95,1.01-1.64,1.3c.78.25,1.39.66,1.81,1.23s.64,1.27.64,2.1c0,1.28-.42,2.29-1.25,3.04s-1.92,1.12-3.25,1.12-2.42-.36-3.26-1.08-1.25-1.68-1.25-2.86h1.82c0,.75.24,1.35.73,1.8s1.14.67,1.96.67c.87,0,1.54-.23,2-.68s.69-1.11.69-1.96-.25-1.46-.76-1.9-1.24-.67-2.2-.68h-1.36v-1.47l.02-.02Z"/>
    <path class="cls-5" d="M733.32,153.01c0-.31.09-.57.28-.78s.46-.31.83-.31.65.1.84.31.29.47.29.78-.1.55-.29.75-.47.3-.84.3-.65-.1-.83-.3-.28-.45-.28-.75Z"/>
    <path class="cls-5" d="M745.66,148.39v5.57h-1.88v-14.22h5.24c1.56,0,2.77.4,3.66,1.19s1.32,1.85,1.32,3.15c0,1.38-.43,2.44-1.29,3.19s-2.1,1.12-3.71,1.12h-3.35.01ZM745.66,146.86h3.37c1,0,1.77-.24,2.3-.71s.8-1.16.8-2.05-.27-1.53-.8-2.04-1.27-.77-2.2-.79h-3.48v5.59h.01Z"/>
    <path class="cls-5" d="M762.64,152.91c-.7.83-1.74,1.24-3.1,1.24-1.13,0-1.98-.33-2.57-.98s-.89-1.62-.89-2.91v-6.88h1.81v6.83c0,1.6.65,2.4,1.95,2.4,1.38,0,2.3-.51,2.75-1.54v-7.69h1.81v10.57h-1.72l-.04-1.04h0Z"/>
    <path class="cls-5" d="M776.08,148.79c0,1.61-.37,2.91-1.11,3.89s-1.74,1.47-2.99,1.47c-1.33,0-2.37-.47-3.1-1.42l-.09,1.22h-1.66v-15h1.81v5.6c.73-.91,1.74-1.36,3.02-1.36s2.29.49,3.02,1.46,1.1,2.3,1.1,3.98v.16h0ZM774.27,148.58c0-1.23-.24-2.18-.71-2.85s-1.16-1.01-2.05-1.01c-1.19,0-2.05.55-2.57,1.66v4.57c.55,1.11,1.42,1.66,2.59,1.66.87,0,1.54-.33,2.02-1.01s.72-1.68.72-3.03h0Z"/>
    <path class="cls-5" d="M780.32,153.95h-1.81v-15h1.81v15Z"/>
    <path class="cls-5" d="M783.22,140.58c0-.29.09-.54.27-.74s.44-.3.8-.3.62.1.8.3.27.45.27.74-.09.54-.27.73-.45.29-.8.29-.62-.1-.8-.29-.27-.44-.27-.73ZM785.17,153.95h-1.81v-10.57h1.81v10.57h0Z"/>
    <path class="cls-5" d="M794.22,151.15c0-.49-.18-.87-.55-1.14s-1.01-.5-1.92-.7-1.64-.43-2.18-.7-.93-.6-1.19-.98-.39-.83-.39-1.35c0-.87.37-1.6,1.1-2.2s1.67-.9,2.81-.9c1.2,0,2.17.31,2.92.93s1.12,1.41,1.12,2.37h-1.82c0-.5-.21-.92-.63-1.28s-.95-.54-1.59-.54-1.17.14-1.54.43-.56.66-.56,1.12.17.76.52.99.97.43,1.87.63,1.63.44,2.19.72.98.62,1.25,1.01.41.87.41,1.44c0,.94-.38,1.7-1.13,2.27s-1.74.85-2.94.85c-.85,0-1.59-.15-2.25-.45s-1.16-.72-1.53-1.25-.55-1.12-.55-1.74h1.81c.03.61.27,1.09.73,1.44s1.05.53,1.79.53c.68,0,1.23-.14,1.65-.42s.62-.65.62-1.11l-.02.03Z"/>
    <path class="cls-5" d="M800.19,144.67c.8-.98,1.84-1.47,3.12-1.47,2.23,0,3.36,1.26,3.38,3.78v6.98h-1.81v-6.99c0-.76-.18-1.33-.52-1.69s-.87-.55-1.6-.55c-.59,0-1.1.16-1.54.47s-.79.72-1.04,1.23v7.53h-1.81v-15h1.81v5.71h0Z"/>
    <path class="cls-5" d="M733.27,171.3c0,1.39-.23,2.61-.7,3.65s-1.13,1.83-1.99,2.38-1.86.82-3.01.82-2.11-.28-2.98-.83-1.54-1.33-2.02-2.35-.72-2.2-.74-3.54v-1.03c0-1.37.24-2.58.71-3.62s1.15-1.85,2.02-2.41,1.86-.83,2.98-.83,2.14.28,3.01.83,1.54,1.35,2.01,2.39.7,2.26.7,3.65v.9h0ZM731.4,170.38c0-1.69-.34-2.98-1.02-3.88s-1.62-1.35-2.84-1.35-2.12.45-2.8,1.35-1.03,2.15-1.05,3.75v1.04c0,1.63.34,2.92,1.03,3.85s1.63,1.4,2.84,1.4,2.15-.44,2.81-1.32,1.01-2.15,1.03-3.79v-1.05h0Z"/>
    <path class="cls-5" d="M740.91,169.01c-.27-.05-.57-.07-.89-.07-1.18,0-1.99.5-2.41,1.51v7.5h-1.81v-10.57h1.76l.03,1.22c.59-.94,1.43-1.42,2.52-1.42.35,0,.62.05.8.14v1.68h0Z"/>
    <path class="cls-5" d="M741.94,172.58c0-1.62.38-2.92,1.15-3.91s1.77-1.48,3.02-1.48,2.22.42,2.94,1.27v-5.51h1.81v15h-1.66l-.09-1.13c-.72.89-1.73,1.33-3.02,1.33s-2.22-.5-2.99-1.5-1.16-2.31-1.16-3.93v-.14h0ZM743.75,172.79c0,1.2.25,2.14.74,2.81s1.18,1.02,2.05,1.02c1.15,0,1.98-.51,2.51-1.54v-4.85c-.54-1-1.37-1.49-2.49-1.49-.89,0-1.58.34-2.07,1.03s-.74,1.7-.74,3.04v-.02Z"/>
    <path class="cls-5" d="M758.05,178.15c-1.43,0-2.6-.47-3.5-1.41s-1.35-2.2-1.35-3.77v-.33c0-1.05.2-1.98.6-2.81s.96-1.47,1.68-1.93,1.5-.7,2.34-.7c1.37,0,2.44.45,3.2,1.36s1.14,2.2,1.14,3.89v.75h-7.16c.03,1.04.33,1.88.91,2.52s1.32.96,2.22.96c.64,0,1.18-.13,1.62-.39s.83-.61,1.16-1.04l1.1.86c-.89,1.36-2.21,2.04-3.98,2.04h.02ZM757.83,168.68c-.73,0-1.34.27-1.84.8s-.8,1.27-.92,2.23h5.29v-.14c-.05-.92-.3-1.63-.74-2.13s-1.04-.76-1.8-.76h.01Z"/>
    <path class="cls-5" d="M769.37,169.01c-.27-.05-.57-.07-.89-.07-1.18,0-1.99.5-2.41,1.51v7.5h-1.81v-10.57h1.76l.03,1.22c.59-.94,1.43-1.42,2.52-1.42.35,0,.62.05.8.14v1.68h0Z"/>
    <path class="cls-5" d="M781.77,173.44c-.18,1.5-.73,2.66-1.67,3.48s-2.18,1.23-3.73,1.23c-1.68,0-3.03-.6-4.04-1.81s-1.52-2.82-1.52-4.83v-1.37c0-1.32.24-2.48.71-3.49s1.14-1.77,2.01-2.31,1.87-.81,3.01-.81c1.51,0,2.72.42,3.63,1.26s1.44,2.01,1.59,3.5h-1.88c-.16-1.14-.52-1.96-1.06-2.47s-1.3-.76-2.28-.76c-1.2,0-2.14.44-2.82,1.33s-1.02,2.15-1.02,3.78v1.38c0,1.54.32,2.77.97,3.68s1.55,1.37,2.71,1.37c1.04,0,1.84-.24,2.4-.71s.93-1.29,1.11-2.47h1.88v.02Z"/>
    <path class="cls-5" d="M789.15,169.01c-.27-.05-.57-.07-.89-.07-1.18,0-1.99.5-2.41,1.51v7.5h-1.81v-10.57h1.76l.03,1.22c.59-.94,1.43-1.42,2.52-1.42.35,0,.62.05.8.14v1.68h0Z"/>
    <path class="cls-5" d="M795.01,178.15c-1.43,0-2.6-.47-3.5-1.41s-1.35-2.2-1.35-3.77v-.33c0-1.05.2-1.98.6-2.81s.96-1.47,1.68-1.93,1.5-.7,2.34-.7c1.37,0,2.44.45,3.2,1.36s1.14,2.2,1.14,3.89v.75h-7.16c.03,1.04.33,1.88.91,2.52s1.32.96,2.22.96c.64,0,1.18-.13,1.62-.39s.83-.61,1.16-1.04l1.1.86c-.89,1.36-2.21,2.04-3.98,2.04h.02ZM794.79,168.68c-.73,0-1.34.27-1.84.8s-.8,1.27-.92,2.23h5.29v-.14c-.05-.92-.3-1.63-.74-2.13s-1.04-.76-1.8-.76h.01Z"/>
    <path class="cls-5" d="M807.75,177.95c-.1-.21-.19-.58-.25-1.11-.84.87-1.84,1.31-3.01,1.31-1.04,0-1.9-.29-2.56-.88s-1-1.34-1-2.24c0-1.1.42-1.96,1.25-2.56s2.01-.91,3.53-.91h1.76v-.83c0-.63-.19-1.13-.57-1.51s-.93-.56-1.67-.56c-.64,0-1.18.16-1.62.49s-.65.72-.65,1.18h-1.82c0-.53.19-1.04.56-1.53s.88-.88,1.52-1.17,1.35-.43,2.11-.43c1.22,0,2.17.3,2.86.91s1.05,1.45,1.07,2.51v4.86c0,.97.12,1.74.37,2.31v.16h-1.89.01ZM804.75,176.57c.57,0,1.1-.15,1.61-.44s.88-.67,1.1-1.14v-2.17h-1.42c-2.21,0-3.32.65-3.32,1.94,0,.57.19,1.01.57,1.33s.86.48,1.46.48Z"/>
    <path class="cls-5" d="M814.55,164.83v2.56h1.97v1.4h-1.97v6.56c0,.42.09.74.26.95s.48.32.9.32c.21,0,.5-.04.86-.12v1.46c-.48.13-.94.19-1.39.19-.81,0-1.42-.24-1.83-.73s-.62-1.18-.62-2.08v-6.55h-1.92v-1.4h1.92v-2.56h1.82Z"/>
    <path class="cls-5" d="M823.02,178.15c-1.43,0-2.6-.47-3.5-1.41s-1.35-2.2-1.35-3.77v-.33c0-1.05.2-1.98.6-2.81s.96-1.47,1.68-1.93,1.5-.7,2.34-.7c1.37,0,2.44.45,3.2,1.36s1.14,2.2,1.14,3.89v.75h-7.16c.03,1.04.33,1.88.91,2.52s1.32.96,2.22.96c.64,0,1.18-.13,1.62-.39s.83-.61,1.16-1.04l1.1.86c-.89,1.36-2.21,2.04-3.98,2.04h.02ZM822.8,168.68c-.73,0-1.34.27-1.84.8s-.8,1.27-.92,2.23h5.29v-.14c-.05-.92-.3-1.63-.74-2.13s-1.04-.76-1.8-.76h.01Z"/>
    <path class="cls-5" d="M828.79,172.58c0-1.62.38-2.92,1.15-3.91s1.77-1.48,3.02-1.48,2.22.42,2.94,1.27v-5.51h1.81v15h-1.66l-.09-1.13c-.72.89-1.73,1.33-3.02,1.33s-2.22-.5-2.99-1.5-1.16-2.31-1.16-3.93v-.14h0ZM830.6,172.79c0,1.2.25,2.14.74,2.81s1.18,1.02,2.05,1.02c1.15,0,1.98-.51,2.51-1.54v-4.85c-.54-1-1.37-1.49-2.49-1.49-.89,0-1.58.34-2.07,1.03s-.74,1.7-.74,3.04v-.02Z"/>
  </g>
  <g>
    <polyline class="cls-2" points="952.66 257.32 952.66 160.51 952.66 109.82"/>
    <path class="cls-5" d="M946.31,254.15h12.7c.6,0,.95.68.6,1.16l-6.35,8.95c-.29.41-.91.41-1.2,0l-6.35-8.95c-.35-.49,0-1.16.6-1.16h0Z"/>
  </g>
  <rect class="cls-2" x="881.14" y="272" width="191.04" height="95.52" rx="11.74" ry="11.74"/>
  <g>
    <path class="cls-5" d="M1049.96,147.79h1.97v1.47h-1.97v3.31h-1.8v-3.29l-6.49.02v-1.06l6.33-9.88h1.92l.04,9.44h0ZM1043.72,147.81l4.42-.02-.03-6.97-.21.39-4.18,6.6Z"/>
    <path class="cls-5" d="M1053.8,151.6c0-.31.09-.57.28-.78.19-.21.46-.31.83-.32.37,0,.65.1.85.31.19.21.29.47.29.78s-.09.55-.29.75c-.19.2-.47.3-.84.31-.37,0-.65-.1-.84-.3s-.28-.45-.28-.75h0Z"/>
    <path class="cls-5" d="M1074.7,147.96c-.17,1.5-.72,2.67-1.65,3.49s-2.17,1.23-3.72,1.24c-1.68,0-3.03-.59-4.04-1.79s-1.53-2.81-1.54-4.83v-1.37c-.01-1.32.22-2.48.69-3.49.47-1,1.13-1.78,2-2.32.86-.54,1.87-.81,3-.82,1.51,0,2.72.41,3.64,1.25s1.45,2,1.6,3.5h-1.88c-.17-1.13-.52-1.95-1.07-2.46-.54-.51-1.31-.76-2.28-.76-1.2,0-2.14.45-2.81,1.34-.68.89-1.01,2.15-1.01,3.79v1.38c.01,1.54.34,2.77.99,3.68.65.91,1.55,1.36,2.71,1.36,1.04,0,1.84-.24,2.39-.72s.92-1.3,1.1-2.47h1.88Z"/>
    <path class="cls-5" d="M1076.5,147.08c0-1.04.2-1.97.6-2.8s.97-1.47,1.69-1.92,1.55-.68,2.48-.68c1.44,0,2.6.49,3.5,1.48.89.99,1.34,2.32,1.35,3.97v.13c0,1.03-.19,1.95-.58,2.77s-.95,1.46-1.68,1.92-1.57.69-2.52.69c-1.43,0-2.59-.49-3.49-1.48-.89-.99-1.34-2.31-1.35-3.95v-.13h0ZM1078.32,147.29c0,1.17.28,2.11.83,2.82s1.28,1.06,2.19,1.06,1.65-.37,2.18-1.09.8-1.73.8-3.03c0-1.16-.28-2.1-.84-2.81s-1.29-1.07-2.2-1.07-1.61.36-2.15,1.07-.81,1.73-.81,3.05h0Z"/>
    <path class="cls-5" d="M1090.07,141.85l.06,1.33c.8-1.02,1.86-1.53,3.16-1.54,2.23,0,3.36,1.25,3.39,3.77l.03,6.98h-1.81l-.03-6.99c0-.76-.19-1.32-.53-1.69-.34-.36-.88-.54-1.6-.54-.59,0-1.1.16-1.54.47-.44.31-.78.73-1.03,1.23l.03,7.53h-1.81l-.04-10.56h1.72Z"/>
    <path class="cls-5" d="M1105.58,149.55c0-.49-.19-.87-.56-1.13-.37-.27-1.01-.5-1.93-.69s-1.64-.42-2.18-.7-.94-.59-1.19-.97c-.26-.38-.39-.83-.39-1.35,0-.87.36-1.6,1.09-2.2s1.67-.9,2.8-.91c1.2,0,2.17.3,2.92.92s1.12,1.41,1.13,2.37h-1.82c0-.49-.21-.91-.63-1.27s-.95-.53-1.59-.53-1.17.15-1.54.44c-.37.29-.55.66-.55,1.12s.18.76.52.98c.35.22.97.43,1.87.63.9.2,1.63.44,2.2.71.56.28.98.61,1.25,1.01s.41.87.41,1.44c0,.94-.37,1.7-1.12,2.27s-1.73.86-2.94.87c-.85,0-1.6-.14-2.25-.44s-1.16-.71-1.53-1.25-.56-1.12-.56-1.74h1.81c.04.6.28,1.08.73,1.43.45.35,1.05.53,1.79.53.68,0,1.23-.14,1.64-.42s.62-.65.62-1.11h0Z"/>
    <path class="cls-5" d="M1116.27,151.27c-.7.83-1.73,1.25-3.09,1.25-1.13,0-1.98-.32-2.58-.97-.59-.65-.89-1.62-.9-2.9l-.03-6.88h1.81l.03,6.82c0,1.6.66,2.4,1.96,2.4,1.38,0,2.3-.52,2.75-1.55l-.03-7.69h1.81l.04,10.56h-1.72l-.04-1.04h-.01Z"/>
    <path class="cls-5" d="M1122.43,141.73l.05,1.17c.77-.91,1.81-1.37,3.13-1.38,1.48,0,2.49.56,3.02,1.69.35-.51.81-.92,1.37-1.24.56-.31,1.23-.47,2-.48,2.32,0,3.5,1.21,3.55,3.67l.03,7.08h-1.81l-.03-6.97c0-.75-.18-1.32-.52-1.69-.35-.37-.93-.56-1.74-.56-.67,0-1.23.21-1.67.61-.44.4-.7.94-.77,1.62l.03,7.01h-1.82l-.03-6.92c0-1.54-.76-2.3-2.26-2.3-1.19,0-1.99.51-2.43,1.52l.03,7.71h-1.81l-.04-10.56h1.71v.02Z"/>
    <path class="cls-5" d="M1142.69,152.42c-1.43,0-2.6-.46-3.5-1.4-.9-.94-1.36-2.19-1.36-3.77v-.33c0-1.05.19-1.99.59-2.81.4-.83.96-1.47,1.67-1.94.72-.47,1.5-.7,2.34-.71,1.37,0,2.44.44,3.21,1.35.76.9,1.15,2.2,1.16,3.88v.75l-7.16.03c.03,1.04.34,1.88.92,2.52s1.33.96,2.23.95c.64,0,1.18-.13,1.62-.4.44-.26.83-.61,1.16-1.04l1.11.86c-.88,1.36-2.21,2.05-3.98,2.06h-.01ZM1142.43,142.95c-.73,0-1.34.27-1.83.8s-.8,1.28-.91,2.23l5.29-.02v-.14c-.06-.92-.31-1.63-.75-2.13s-1.04-.75-1.8-.75h0Z"/>
    <path class="cls-5" d="M1053.82,169.9c0,1.39-.22,2.61-.69,3.65-.46,1.04-1.13,1.83-1.98,2.38s-1.86.83-3,.83-2.11-.27-2.98-.81c-.87-.55-1.54-1.33-2.03-2.35-.48-1.02-.73-2.2-.75-3.54v-1.03c0-1.37.22-2.58.7-3.62.47-1.05,1.14-1.86,2.01-2.42s1.86-.84,2.98-.85c1.14,0,2.14.27,3.02.81.87.55,1.54,1.34,2.02,2.39.47,1.04.71,2.26.72,3.64v.9l-.02.02ZM1051.95,168.99c0-1.69-.35-2.98-1.03-3.88-.68-.9-1.63-1.35-2.85-1.34-1.18,0-2.12.46-2.79,1.36-.68.9-1.02,2.16-1.04,3.76v1.04c0,1.63.36,2.92,1.05,3.85.69.93,1.64,1.4,2.84,1.39,1.21,0,2.15-.45,2.81-1.33s1-2.15,1.01-3.8v-1.05h0Z"/>
    <path class="cls-5" d="M1061.45,167.58c-.27-.04-.57-.07-.89-.07-1.19,0-1.99.51-2.41,1.52l.03,7.5h-1.81l-.04-10.56h1.76l.03,1.21c.59-.95,1.43-1.42,2.51-1.43.35,0,.62.04.8.13v1.68l.02.02Z"/>
    <path class="cls-5" d="M1062.5,171.15c0-1.62.37-2.93,1.14-3.92s1.77-1.49,3.01-1.49,2.22.42,2.94,1.26l-.02-5.51h1.81l.06,14.99h-1.66l-.09-1.13c-.72.89-1.72,1.33-3.01,1.34-1.22,0-2.22-.49-3-1.49s-1.17-2.31-1.17-3.92v-.14h-.01ZM1064.31,171.35c0,1.2.26,2.13.75,2.81.5.68,1.18,1.01,2.05,1.01,1.15,0,1.98-.52,2.5-1.55l-.02-4.85c-.54-.99-1.38-1.49-2.5-1.48-.88,0-1.57.35-2.07,1.03-.49.69-.74,1.7-.73,3.04h.02Z"/>
    <path class="cls-5" d="M1078.62,176.65c-1.43,0-2.6-.46-3.5-1.4-.9-.94-1.36-2.19-1.36-3.77v-.33c0-1.05.19-1.98.59-2.81.4-.82.96-1.47,1.67-1.94s1.5-.7,2.34-.71c1.37,0,2.44.44,3.21,1.35.77.9,1.15,2.2,1.16,3.88v.75l-7.16.03c.03,1.04.34,1.88.92,2.52.58.64,1.33.96,2.22.95.64,0,1.18-.13,1.62-.4.44-.26.83-.61,1.16-1.04l1.11.86c-.88,1.36-2.21,2.05-3.98,2.06h0ZM1078.36,167.18c-.73,0-1.34.27-1.83.8s-.8,1.28-.91,2.23l5.29-.02v-.14c-.06-.92-.31-1.63-.75-2.13-.45-.5-1.04-.75-1.8-.75h0Z"/>
    <path class="cls-5" d="M1089.9,167.47c-.27-.04-.57-.07-.89-.06-1.19,0-1.99.51-2.41,1.52l.03,7.5h-1.81l-.04-10.56h1.76l.03,1.21c.59-.95,1.43-1.42,2.51-1.43.35,0,.62.04.8.13v1.68h.02Z"/>
    <path class="cls-5" d="M1102.32,171.86c-.17,1.5-.72,2.67-1.65,3.49s-2.17,1.23-3.72,1.24c-1.68,0-3.03-.59-4.04-1.79s-1.53-2.81-1.54-4.83v-1.37c0-1.32.22-2.48.69-3.49.47-1,1.13-1.78,2-2.32.86-.54,1.87-.81,3-.82,1.51,0,2.72.41,3.64,1.25.91.84,1.45,2,1.6,3.5h-1.88c-.17-1.13-.52-1.95-1.07-2.46-.55-.51-1.31-.76-2.28-.75-1.2,0-2.14.45-2.81,1.34s-1.01,2.15-1.01,3.79v1.38c.01,1.54.34,2.77.99,3.68.65.91,1.55,1.36,2.71,1.36,1.04,0,1.84-.24,2.4-.72.55-.47.92-1.3,1.1-2.47h1.88,0Z"/>
    <path class="cls-5" d="M1109.69,167.4c-.27-.04-.57-.07-.89-.06-1.18,0-1.99.51-2.41,1.52l.03,7.5h-1.81l-.04-10.56h1.76l.03,1.21c.59-.95,1.43-1.42,2.51-1.43.35,0,.62.04.8.13v1.68h.02Z"/>
    <path class="cls-5" d="M1115.58,176.52c-1.43,0-2.6-.46-3.5-1.4-.9-.94-1.36-2.19-1.36-3.77v-.33c0-1.05.19-1.98.59-2.81s.96-1.47,1.67-1.94c.72-.47,1.5-.7,2.34-.71,1.37,0,2.44.44,3.21,1.35.76.9,1.15,2.2,1.16,3.88v.75l-7.16.03c.03,1.04.34,1.88.92,2.52s1.33.96,2.23.95c.64,0,1.18-.13,1.62-.4.44-.26.83-.61,1.16-1.04l1.11.86c-.88,1.36-2.21,2.05-3.98,2.06h-.01ZM1115.32,167.05c-.73,0-1.34.27-1.83.8s-.8,1.28-.91,2.23l5.29-.02v-.14c-.06-.92-.31-1.63-.75-2.13s-1.04-.75-1.8-.75h0Z"/>
    <path class="cls-5" d="M1128.32,176.27c-.11-.21-.19-.58-.26-1.11-.84.88-1.84,1.32-3,1.32-1.04,0-1.9-.29-2.57-.87-.67-.59-1.01-1.33-1.01-2.24,0-1.1.41-1.96,1.25-2.57.83-.61,2.01-.92,3.53-.93h1.76v-.84c0-.63-.2-1.13-.58-1.51-.38-.37-.94-.56-1.67-.56-.64,0-1.18.17-1.62.49-.43.33-.65.72-.65,1.18h-1.82c0-.52.18-1.03.56-1.52.37-.49.88-.88,1.52-1.17s1.34-.43,2.11-.44c1.22,0,2.17.3,2.86.9s1.05,1.44,1.08,2.51l.02,4.86c0,.97.13,1.74.38,2.31v.16h-1.89v.03ZM1125.32,174.91c.57,0,1.1-.15,1.61-.45s.87-.68,1.1-1.15v-2.17h-1.42c-2.21,0-3.32.67-3.31,1.96,0,.57.19,1.01.57,1.33s.87.47,1.46.47h0Z"/>
    <path class="cls-5" d="M1135.07,163.12v2.56h1.98v1.39h-1.97l.02,6.57c0,.42.09.74.27.95s.48.32.9.31c.21,0,.5-.04.86-.12v1.46c-.47.13-.93.2-1.38.2-.81,0-1.42-.24-1.83-.73-.41-.49-.62-1.18-.62-2.08l-.02-6.55h-1.92v-1.39h1.92v-2.57h1.8-.01Z"/>
    <path class="cls-5" d="M1143.59,176.41c-1.43,0-2.6-.46-3.5-1.4-.9-.94-1.36-2.19-1.36-3.77v-.33c0-1.05.19-1.99.59-2.81.4-.83.96-1.47,1.67-1.94.72-.47,1.5-.7,2.34-.71,1.37,0,2.44.44,3.21,1.34.76.9,1.15,2.2,1.16,3.88v.75l-7.16.03c.03,1.04.34,1.88.92,2.52s1.33.96,2.23.95c.64,0,1.18-.13,1.62-.4.44-.26.83-.61,1.16-1.04l1.11.86c-.88,1.36-2.21,2.05-3.98,2.06h-.01ZM1143.33,166.94c-.73,0-1.34.27-1.83.8s-.8,1.28-.91,2.23l5.29-.02v-.14c-.06-.92-.31-1.63-.75-2.13s-1.04-.75-1.8-.75h0Z"/>
    <path class="cls-5" d="M1149.34,170.82c0-1.62.37-2.93,1.14-3.92.76-.99,1.77-1.49,3.01-1.49s2.22.42,2.94,1.26l-.02-5.51h1.81l.06,14.99h-1.66l-.09-1.13c-.72.89-1.72,1.33-3.01,1.34-1.22,0-2.22-.49-3-1.49s-1.17-2.31-1.17-3.92v-.14h-.01ZM1151.15,171.02c0,1.2.26,2.13.75,2.81s1.18,1.01,2.05,1.01c1.15,0,1.98-.52,2.5-1.55l-.02-4.85c-.54-.99-1.38-1.49-2.5-1.49-.89,0-1.58.35-2.07,1.03-.49.69-.74,1.7-.73,3.04h.02Z"/>
  </g>
  <g>
    <path class="cls-3" d="M1016.51,158.06l6.35-6.35-4.52-4.52c-2.56,1.62-5.98,1.32-8.21-.91-2.23-2.23-2.53-5.65-.91-8.21l-4.52-4.52-31.07,31.07c-.99.99-.99,2.62,0,3.61l14.56,14.56c.99.99,2.62.99,3.61,0l27.66-27.66"/>
    <g>
      <circle class="cls-7" cx="1001.29" cy="147.94" r="1.16"/>
      <circle class="cls-7" cx="1004.77" cy="151.41" r="1.16"/>
      <circle class="cls-7" cx="1008.24" cy="154.89" r="1.16"/>
    </g>
  </g>
  <path class="cls-2" d="M1073,293h29.05c4.39,0,7.95,3.56,7.95,7.95v47.1c0,4.39-3.56,7.95-7.95,7.95h-24.05"/>
  <path class="cls-5" d="M1086,362.53v-12.7c0-.6-.68-.95-1.16-.6l-8.95,6.35c-.41.29-.41.91,0,1.2l8.95,6.35c.49.35,1.16,0,1.16-.6Z"/>
  <g>
    <path class="cls-5" d="M1132.87,300.57l.7-7.09,7.29-.03v1.67l-5.75.02-.42,3.88c.7-.41,1.49-.62,2.37-.62,1.29,0,2.33.42,3.09,1.27.76.85,1.15,2.01,1.16,3.47,0,1.46-.39,2.62-1.17,3.47s-1.89,1.27-3.31,1.28c-1.26,0-2.28-.34-3.08-1.03s-1.25-1.66-1.37-2.89h1.71c.11.81.41,1.42.88,1.83.47.41,1.09.62,1.86.61.84,0,1.5-.29,1.97-.87s.71-1.37.71-2.38c0-.95-.27-1.71-.79-2.29s-1.21-.86-2.07-.86c-.79,0-1.41.18-1.85.52l-.48.39-1.45-.37v.02Z"/>
    <path class="cls-5" d="M1143.52,306.71c0-.31.09-.57.28-.78.19-.21.46-.31.83-.32.37,0,.65.1.85.31.19.21.29.47.29.78s-.09.55-.29.75c-.19.2-.47.3-.84.31-.37,0-.65-.1-.84-.3-.19-.2-.28-.45-.28-.75Z"/>
    <path class="cls-5" d="M1158.68,305.11l4.02-11.74h2.05l-5.22,14.23h-1.66l-5.32-14.19h2.04l4.09,11.71h0Z"/>
    <path class="cls-5" d="M1172.5,307.55c-.1-.21-.19-.58-.26-1.11-.84.88-1.84,1.32-3,1.32-1.04,0-1.9-.29-2.57-.87-.67-.59-1.01-1.33-1.01-2.24,0-1.1.41-1.96,1.25-2.57s2.01-.92,3.53-.93h1.76v-.84c0-.63-.2-1.13-.58-1.51-.38-.37-.94-.56-1.67-.55-.64,0-1.18.17-1.62.49-.44.33-.65.72-.65,1.18h-1.82c0-.52.18-1.03.56-1.52.37-.49.88-.88,1.52-1.17s1.34-.43,2.11-.44c1.22,0,2.17.3,2.87.9.69.61,1.05,1.44,1.08,2.51l.02,4.86c0,.97.13,1.74.38,2.31v.16h-1.89v.02ZM1169.5,306.19c.57,0,1.1-.15,1.61-.45s.87-.68,1.1-1.15v-2.17h-1.42c-2.21.01-3.32.67-3.31,1.96,0,.57.19,1.01.57,1.33.38.32.86.48,1.46.47h0Z"/>
    <path class="cls-5" d="M1178.82,307.53h-1.81l-.06-14.99h1.81l.06,14.99Z"/>
    <path class="cls-5" d="M1181.67,294.15c0-.29.09-.54.27-.74s.44-.3.79-.31.62.1.8.3.28.45.28.74-.09.54-.27.73c-.18.2-.45.29-.8.3s-.62-.1-.8-.29-.27-.44-.27-.73h0ZM1183.67,307.51h-1.81l-.04-10.56h1.81l.04,10.56Z"/>
    <path class="cls-5" d="M1186.1,302.13c0-1.62.37-2.93,1.14-3.92.76-.99,1.77-1.49,3.01-1.49s2.22.42,2.94,1.26l-.02-5.51h1.81l.06,14.99h-1.66l-.09-1.13c-.72.89-1.72,1.33-3.01,1.34-1.22,0-2.22-.49-3-1.49s-1.17-2.31-1.17-3.92v-.14h-.01ZM1187.91,302.33c0,1.2.26,2.14.75,2.81s1.18,1.01,2.05,1.01c1.15,0,1.98-.52,2.5-1.55l-.02-4.85c-.54-.99-1.38-1.49-2.5-1.48-.89,0-1.58.35-2.07,1.03-.49.69-.74,1.7-.73,3.04h.02Z"/>
    <path class="cls-5" d="M1204.36,307.43c-.11-.21-.19-.58-.26-1.11-.84.88-1.84,1.32-3,1.32-1.04,0-1.9-.29-2.57-.88-.67-.59-1.01-1.33-1.01-2.24,0-1.1.41-1.96,1.25-2.57s2.01-.92,3.53-.93h1.76v-.84c0-.63-.2-1.13-.58-1.51-.38-.37-.94-.56-1.67-.55-.64,0-1.18.17-1.62.49-.43.33-.65.72-.65,1.18h-1.82c0-.52.18-1.03.56-1.52.37-.49.88-.88,1.52-1.17s1.34-.43,2.11-.44c1.22,0,2.17.3,2.86.9.69.61,1.05,1.44,1.08,2.51l.02,4.86c0,.97.13,1.74.38,2.31v.16h-1.89v.03ZM1201.36,306.07c.57,0,1.1-.15,1.61-.45s.87-.68,1.1-1.15v-2.17h-1.42c-2.21.01-3.32.67-3.31,1.96,0,.57.19,1.01.57,1.33.38.32.87.48,1.46.47h0Z"/>
    <path class="cls-5" d="M1211.12,294.28v2.56h1.98v1.39h-1.97l.02,6.57c0,.42.09.74.27.95.18.21.48.32.9.31.21,0,.5-.04.86-.12v1.46c-.47.13-.93.2-1.38.2-.81,0-1.42-.24-1.83-.73-.41-.49-.62-1.18-.62-2.08l-.02-6.55h-1.92v-1.39h1.92v-2.57h1.8-.01Z"/>
    <path class="cls-5" d="M1219.64,307.57c-1.43,0-2.6-.46-3.5-1.4s-1.36-2.19-1.36-3.77v-.33c0-1.05.19-1.99.59-2.81s.96-1.47,1.67-1.94c.72-.47,1.5-.7,2.34-.71,1.37,0,2.44.44,3.21,1.35.76.9,1.15,2.2,1.16,3.88v.75l-7.16.03c.03,1.04.34,1.88.92,2.52s1.33.96,2.23.95c.64,0,1.18-.13,1.62-.4.44-.26.83-.61,1.16-1.04l1.11.86c-.88,1.36-2.21,2.05-3.98,2.06h-.01ZM1219.38,298.1c-.73,0-1.34.27-1.83.8s-.8,1.28-.91,2.24l5.29-.02v-.14c-.06-.92-.31-1.63-.75-2.13s-1.04-.75-1.8-.75h0Z"/>
    <path class="cls-5" d="M1140.46,327.95l-5.96.02-1.32,3.73h-1.93l5.38-14.23h1.64l5.49,14.19h-1.92l-1.37-3.71h-.01ZM1135.06,326.44l4.83-.02-2.45-6.64-2.39,6.66h.01Z"/>
    <path class="cls-5" d="M1149.62,330.36c.64,0,1.21-.2,1.69-.59.48-.39.75-.88.79-1.47h1.71c-.03.6-.24,1.18-.62,1.72-.38.55-.89.99-1.53,1.31-.64.33-1.32.49-2.03.5-1.44,0-2.58-.47-3.44-1.43-.85-.96-1.28-2.27-1.29-3.94v-.3c0-1.03.18-1.94.56-2.75.37-.8.91-1.43,1.62-1.87.71-.45,1.54-.67,2.5-.67,1.19,0,2.17.35,2.96,1.05s1.21,1.63,1.27,2.76h-1.71c-.05-.68-.32-1.24-.78-1.67-.47-.44-1.04-.66-1.73-.65-.92,0-1.63.34-2.13,1s-.75,1.62-.75,2.87v.34c0,1.22.26,2.15.76,2.81s1.22.98,2.15.98Z"/>
    <path class="cls-5" d="M1160.09,330.32c.64,0,1.21-.2,1.69-.59s.75-.88.79-1.47h1.71c-.03.6-.24,1.18-.62,1.72-.38.55-.89.99-1.53,1.31-.64.33-1.32.49-2.03.5-1.44,0-2.58-.47-3.44-1.43-.85-.96-1.28-2.27-1.29-3.94v-.3c0-1.03.18-1.94.56-2.75.37-.8.91-1.43,1.62-1.87s1.54-.67,2.5-.67c1.19,0,2.17.35,2.96,1.05s1.21,1.63,1.27,2.76h-1.71c-.05-.68-.32-1.24-.78-1.67-.47-.44-1.04-.66-1.73-.65-.92,0-1.63.34-2.13,1s-.75,1.62-.75,2.87v.34c0,1.22.26,2.15.76,2.81s1.22.98,2.15.98Z"/>
    <path class="cls-5" d="M1170.71,331.75c-1.43,0-2.6-.46-3.5-1.4s-1.36-2.19-1.36-3.77v-.33c0-1.05.19-1.98.59-2.81.4-.82.96-1.47,1.67-1.94s1.5-.7,2.34-.71c1.37,0,2.44.44,3.21,1.35.77.9,1.15,2.2,1.16,3.88v.75l-7.16.03c.03,1.04.34,1.88.92,2.52.58.64,1.33.96,2.22.95.64,0,1.18-.13,1.62-.4.44-.26.83-.61,1.16-1.04l1.11.86c-.88,1.36-2.21,2.05-3.98,2.06h0ZM1170.45,322.28c-.73,0-1.34.27-1.83.8s-.8,1.28-.91,2.23l5.29-.02v-.14c-.06-.92-.31-1.63-.75-2.13-.45-.5-1.04-.75-1.8-.75h0Z"/>
    <path class="cls-5" d="M1183.06,328.71c0-.49-.19-.87-.56-1.14-.37-.27-1.01-.5-1.93-.69s-1.64-.42-2.18-.7-.94-.6-1.2-.97-.39-.83-.39-1.35c0-.87.36-1.6,1.09-2.2s1.66-.91,2.8-.91c1.2,0,2.17.3,2.92.92s1.12,1.41,1.13,2.37h-1.82c0-.49-.21-.91-.63-1.27s-.95-.53-1.59-.53-1.17.15-1.54.44-.55.66-.55,1.12.17.76.52.98.97.43,1.87.63,1.63.44,2.2.71c.56.28.98.61,1.25,1.01s.41.87.41,1.44c0,.94-.37,1.7-1.12,2.28s-1.73.86-2.94.87c-.85,0-1.59-.14-2.25-.44-.65-.3-1.16-.71-1.53-1.25s-.56-1.12-.56-1.74h1.81c.03.6.28,1.08.73,1.43s1.05.53,1.79.53c.68,0,1.23-.14,1.64-.42s.62-.65.62-1.11h.01Z"/>
    <path class="cls-5" d="M1193.38,328.67c0-.49-.19-.87-.56-1.14-.37-.27-1.01-.5-1.93-.69s-1.64-.42-2.18-.69-.94-.6-1.19-.97c-.26-.38-.39-.83-.39-1.35,0-.87.36-1.6,1.09-2.2s1.67-.91,2.8-.91c1.2,0,2.17.3,2.92.92s1.12,1.41,1.13,2.37h-1.82c0-.49-.21-.91-.63-1.27s-.95-.53-1.59-.53-1.17.15-1.54.44-.55.66-.55,1.12.18.76.52.98.97.43,1.87.63,1.63.44,2.2.71c.56.28.98.61,1.25,1.01s.41.87.41,1.44c0,.94-.37,1.7-1.12,2.28-.75.57-1.73.86-2.94.87-.85,0-1.6-.14-2.25-.44s-1.16-.71-1.53-1.25-.56-1.12-.56-1.74h1.81c.04.6.28,1.08.73,1.43s1.05.53,1.79.53c.68,0,1.23-.14,1.64-.42s.62-.65.62-1.11v-.02Z"/>
    <path class="cls-5" d="M1212.17,318.72l-4.57.02.05,12.69h-1.87l-.05-12.68-4.56.02v-1.53l10.99-.04v1.53h.01Z"/>
    <path class="cls-5" d="M1212.58,326.02c0-1.04.2-1.97.6-2.79.4-.83.97-1.47,1.69-1.92s1.55-.68,2.48-.68c1.44,0,2.6.49,3.5,1.48.89.99,1.34,2.32,1.35,3.97v.13c0,1.03-.19,1.95-.58,2.77-.39.82-.95,1.46-1.68,1.92-.73.46-1.57.69-2.52.69-1.43,0-2.59-.49-3.49-1.48-.89-.99-1.34-2.31-1.35-3.95v-.13h0ZM1214.4,326.23c0,1.17.28,2.11.83,2.82.55.71,1.27,1.06,2.19,1.06s1.65-.37,2.18-1.09c.54-.72.8-1.73.8-3.03,0-1.16-.28-2.1-.84-2.81-.55-.72-1.28-1.07-2.2-1.07s-1.61.36-2.15,1.07c-.54.71-.81,1.73-.81,3.05Z"/>
    <path class="cls-5" d="M1227.41,326.46l-1.13,1.19v3.71h-1.79l-.06-14.99h1.81l.03,9.07.96-1.17,3.28-3.49h2.2l-4.09,4.42,4.61,6.14h-2.12l-3.7-4.87h0Z"/>
    <path class="cls-5" d="M1238.81,331.5c-1.43,0-2.6-.46-3.5-1.4s-1.36-2.19-1.36-3.77v-.33c0-1.05.19-1.99.59-2.81.4-.83.96-1.47,1.67-1.94.72-.47,1.5-.7,2.34-.71,1.37,0,2.44.44,3.21,1.35.76.9,1.15,2.2,1.16,3.88v.75l-7.16.03c.03,1.04.34,1.88.92,2.52s1.33.96,2.23.95c.64,0,1.18-.13,1.62-.4.44-.26.83-.61,1.16-1.04l1.11.86c-.88,1.36-2.21,2.05-3.98,2.06h-.01ZM1238.55,322.03c-.73,0-1.34.27-1.83.8s-.8,1.28-.91,2.23l5.29-.02v-.14c-.06-.92-.31-1.63-.75-2.13s-1.04-.75-1.8-.75h0Z"/>
    <path class="cls-5" d="M1246.69,320.71l.06,1.33c.8-1.02,1.86-1.53,3.16-1.54,2.23,0,3.36,1.25,3.39,3.77l.03,6.98h-1.81l-.03-6.99c0-.76-.19-1.33-.53-1.69-.34-.36-.88-.54-1.6-.54-.59,0-1.1.16-1.54.47-.44.31-.78.73-1.03,1.23l.03,7.53h-1.81l-.04-10.56h1.72Z"/>
    <path class="cls-5" d="M1138.95,355.68c-.1-.21-.19-.58-.26-1.11-.84.88-1.84,1.32-3,1.32-1.04,0-1.9-.29-2.57-.87-.67-.59-1.01-1.33-1.01-2.24,0-1.1.41-1.96,1.25-2.57s2.01-.92,3.53-.93h1.76v-.84c0-.63-.2-1.13-.58-1.51s-.94-.56-1.67-.56c-.64,0-1.18.17-1.62.5s-.65.72-.65,1.18h-1.82c0-.52.18-1.03.56-1.52.37-.49.88-.88,1.52-1.17s1.34-.43,2.11-.44c1.22,0,2.17.3,2.87.9.69.61,1.05,1.44,1.08,2.51l.02,4.86c0,.97.13,1.74.38,2.31v.16h-1.89v.02ZM1135.95,354.32c.57,0,1.1-.15,1.61-.45s.87-.68,1.1-1.15v-2.17h-1.42c-2.21.01-3.32.67-3.31,1.96,0,.57.19,1.01.57,1.33.38.32.86.47,1.46.47h0Z"/>
    <path class="cls-5" d="M1144.98,345.09l.06,1.33c.8-1.02,1.86-1.53,3.16-1.54,2.23,0,3.36,1.25,3.39,3.77l.03,6.98h-1.81l-.03-6.99c0-.76-.19-1.33-.53-1.69-.34-.36-.88-.54-1.6-.54-.59,0-1.1.16-1.54.47-.44.31-.79.73-1.03,1.23l.03,7.53h-1.81l-.04-10.56h1.72Z"/>
    <path class="cls-5" d="M1153.89,350.25c0-1.62.37-2.93,1.14-3.92s1.77-1.49,3.01-1.49,2.22.42,2.94,1.26l-.02-5.51h1.81l.06,14.99h-1.66l-.09-1.13c-.72.89-1.72,1.33-3.01,1.34-1.22,0-2.22-.49-3-1.49s-1.17-2.31-1.17-3.92v-.14h-.01ZM1155.7,350.45c0,1.2.26,2.13.75,2.81.5.68,1.18,1.01,2.05,1.01,1.15,0,1.98-.52,2.5-1.55l-.02-4.85c-.54-.99-1.38-1.49-2.5-1.48-.88,0-1.57.35-2.07,1.03-.49.69-.74,1.7-.73,3.04h.02Z"/>
    <path class="cls-5" d="M1178.87,348.96l-6.16.02.02,5.04,7.16-.03v1.53l-9.03.03-.05-14.22,8.94-.03v1.53l-7.05.03.02,4.58,6.16-.02v1.53h0Z"/>
    <path class="cls-5" d="M1185.17,353.05l2.59-8.12h1.85l-3.75,10.57h-1.38l-3.87-10.55h1.85l2.72,8.1h0Z"/>
    <path class="cls-5" d="M1195.63,355.66c-1.43,0-2.6-.46-3.5-1.4s-1.36-2.19-1.36-3.77v-.33c0-1.05.19-1.98.59-2.81s.96-1.47,1.67-1.94c.72-.47,1.5-.7,2.34-.71,1.37,0,2.44.44,3.21,1.35.76.9,1.15,2.2,1.16,3.88v.75l-7.16.03c.03,1.04.34,1.88.92,2.52s1.33.96,2.23.95c.64,0,1.18-.13,1.62-.4.44-.26.83-.61,1.16-1.04l1.11.86c-.88,1.36-2.21,2.05-3.98,2.06h-.01ZM1195.37,346.19c-.73,0-1.34.27-1.83.8s-.8,1.28-.91,2.23l5.29-.02v-.14c-.06-.92-.31-1.63-.75-2.13s-1.04-.75-1.8-.75h0Z"/>
    <path class="cls-5" d="M1203.51,344.87l.06,1.33c.8-1.02,1.86-1.53,3.16-1.54,2.23,0,3.36,1.25,3.39,3.77l.03,6.98h-1.81l-.03-6.99c0-.76-.19-1.33-.53-1.69-.34-.36-.88-.54-1.6-.54-.59,0-1.1.16-1.54.47-.44.31-.78.73-1.03,1.23l.03,7.53h-1.81l-.04-10.56h1.72Z"/>
    <path class="cls-5" d="M1215.28,342.27v2.56h1.98v1.39h-1.97l.02,6.57c0,.42.09.74.27.95.18.21.48.32.9.31.21,0,.5-.04.86-.12v1.46c-.47.13-.93.2-1.38.2-.81,0-1.42-.24-1.83-.73-.41-.49-.62-1.18-.62-2.08l-.02-6.55h-1.92v-1.39h1.92v-2.57h1.8-.01Z"/>
    <path class="cls-5" d="M1224.65,355.36l-.05-14.22h4.01c1.24-.02,2.33.25,3.28.79.95.54,1.69,1.32,2.21,2.33.52,1.01.79,2.17.8,3.47v.91c0,1.34-.25,2.52-.76,3.53s-1.25,1.79-2.21,2.33c-.96.54-2.08.83-3.35.84h-3.94v.02ZM1226.48,342.68l.04,11.15h1.97c1.45-.01,2.57-.47,3.37-1.37s1.2-2.18,1.19-3.85v-.83c0-1.62-.39-2.87-1.15-3.76s-1.84-1.34-3.23-1.35h-2.19Z"/>
    <path class="cls-5" d="M1244,355.29c-.11-.21-.19-.58-.26-1.11-.84.88-1.84,1.32-3,1.32-1.04,0-1.9-.29-2.57-.87-.67-.59-1.01-1.33-1.01-2.24,0-1.1.41-1.96,1.25-2.57.83-.61,2.01-.92,3.53-.93h1.76v-.84c0-.63-.2-1.13-.58-1.51-.38-.37-.94-.56-1.67-.56-.64,0-1.18.17-1.62.49-.43.33-.65.72-.65,1.18h-1.82c0-.52.18-1.03.56-1.52.37-.49.88-.88,1.52-1.17s1.34-.43,2.11-.44c1.22,0,2.17.3,2.86.9.69.61,1.05,1.44,1.08,2.51l.02,4.86c0,.97.13,1.74.38,2.31v.16h-1.89v.03ZM1241,353.93c.57,0,1.1-.15,1.61-.45s.87-.68,1.1-1.15v-2.17h-1.42c-2.21.01-3.32.67-3.31,1.96,0,.57.19,1.01.57,1.33.38.32.87.48,1.46.47h0Z"/>
    <path class="cls-5" d="M1250.76,342.14v2.56h1.98v1.39h-1.97l.02,6.57c0,.42.09.74.27.95.18.21.48.32.9.31.21,0,.49-.04.86-.12v1.46c-.47.13-.93.2-1.38.2-.81,0-1.42-.24-1.83-.73-.41-.49-.62-1.18-.62-2.08l-.02-6.55h-1.92v-1.39h1.92v-2.57h1.8-.01Z"/>
    <path class="cls-5" d="M1261.41,355.22c-.1-.21-.19-.58-.26-1.11-.84.88-1.84,1.32-3,1.32-1.04,0-1.9-.29-2.57-.87-.67-.59-1.01-1.33-1.01-2.24,0-1.1.41-1.96,1.25-2.57.83-.61,2.01-.92,3.53-.93h1.76v-.84c0-.63-.2-1.13-.58-1.51-.38-.37-.94-.56-1.67-.56-.64,0-1.18.17-1.62.49-.44.33-.65.72-.65,1.18h-1.82c0-.52.18-1.03.56-1.52.37-.49.88-.88,1.52-1.17s1.34-.43,2.11-.44c1.22,0,2.17.3,2.87.9.69.61,1.05,1.44,1.08,2.51l.02,4.86c0,.97.13,1.74.38,2.31v.16h-1.89v.03ZM1258.41,353.86c.57,0,1.1-.15,1.61-.45s.87-.68,1.1-1.15v-2.17h-1.42c-2.21.01-3.32.67-3.31,1.96,0,.57.19,1.01.57,1.33.38.32.86.48,1.46.47h0Z"/>
  </g>
  <g>
    <path class="cls-5" d="M914.07,326.44h-2.39v-18.14h2.39v18.14Z"/>
    <path class="cls-5" d="M920.26,312.96l.07,1.7c1.03-1.3,2.38-1.94,4.04-1.94,2.85,0,4.29,1.61,4.31,4.82v8.91h-2.3v-8.92c0-.97-.23-1.69-.67-2.16-.44-.46-1.12-.7-2.04-.7-.75,0-1.4.2-1.97.6-.57.4-1,.92-1.32,1.57v9.61h-2.3v-13.48h2.18Z"/>
    <path class="cls-5" d="M936.61,323.31l3.34-10.36h2.36l-4.83,13.48h-1.76l-4.89-13.48h2.36l3.43,10.36Z"/>
    <path class="cls-5" d="M943.73,319.57c0-1.32.26-2.51.78-3.56.52-1.05,1.24-1.87,2.17-2.44.93-.57,1.98-.86,3.17-.86,1.84,0,3.32.64,4.46,1.91,1.13,1.27,1.7,2.96,1.7,5.07v.16c0,1.31-.25,2.49-.75,3.53-.5,1.04-1.22,1.86-2.16,2.44-.93.58-2.01.87-3.22.87-1.83,0-3.31-.64-4.44-1.91-1.13-1.27-1.7-2.95-1.7-5.05v-.16ZM946.05,319.85c0,1.5.35,2.7,1.04,3.6.69.91,1.62,1.36,2.79,1.36s2.1-.46,2.79-1.38,1.03-2.2,1.03-3.86c0-1.48-.35-2.68-1.05-3.6s-1.63-1.38-2.8-1.38-2.06.45-2.75,1.36c-.7.91-1.05,2.2-1.05,3.89Z"/>
    <path class="cls-5" d="M958.91,309.38c0-.37.11-.69.34-.95s.57-.39,1.02-.39.79.13,1.02.39c.23.26.35.57.35.95s-.12.69-.35.93c-.23.25-.57.37-1.02.37s-.79-.12-1.02-.37-.34-.56-.34-.93ZM961.4,326.44h-2.31v-13.48h2.31v13.48Z"/>
    <path class="cls-5" d="M970.5,324.81c.82,0,1.54-.25,2.16-.75.61-.5.96-1.12,1.02-1.87h2.18c-.04.77-.31,1.51-.8,2.21-.49.7-1.14,1.25-1.96,1.67s-1.68.62-2.6.62c-1.84,0-3.3-.61-4.38-1.84-1.08-1.23-1.63-2.9-1.63-5.03v-.39c0-1.31.24-2.48.72-3.5.48-1.02,1.17-1.81,2.08-2.38s1.97-.85,3.2-.85c1.51,0,2.77.45,3.77,1.36,1,.91,1.54,2.08,1.6,3.53h-2.18c-.07-.87-.4-1.59-.99-2.15-.59-.56-1.33-.84-2.2-.84-1.17,0-2.08.42-2.72,1.26-.64.84-.97,2.06-.97,3.66v.44c0,1.55.32,2.75.96,3.59.64.84,1.55,1.26,2.74,1.26Z"/>
    <path class="cls-5" d="M984.04,326.69c-1.83,0-3.31-.6-4.46-1.8-1.15-1.2-1.72-2.81-1.72-4.82v-.42c0-1.34.25-2.53.77-3.58.51-1.05,1.22-1.87,2.14-2.47.92-.59,1.91-.89,2.98-.89,1.75,0,3.12.58,4.09,1.73.97,1.16,1.46,2.81,1.46,4.96v.96h-9.13c.03,1.33.42,2.4,1.17,3.22.74.82,1.69,1.23,2.83,1.23.81,0,1.5-.17,2.07-.5.57-.33,1.06-.77,1.48-1.32l1.41,1.1c-1.13,1.74-2.83,2.6-5.08,2.6ZM983.76,314.6c-.93,0-1.71.34-2.34,1.02-.63.68-1.02,1.63-1.17,2.85h6.75v-.17c-.07-1.17-.38-2.08-.95-2.72-.57-.64-1.33-.97-2.29-.97Z"/>
    <path class="cls-5" d="M999.82,322.86c0-.62-.23-1.11-.7-1.45s-1.29-.64-2.46-.89c-1.17-.25-2.09-.55-2.78-.9-.68-.35-1.19-.76-1.52-1.25-.33-.48-.49-1.05-.49-1.72,0-1.1.47-2.04,1.4-2.8.93-.76,2.13-1.15,3.58-1.15,1.53,0,2.77.39,3.72,1.18.95.79,1.43,1.8,1.43,3.03h-2.32c0-.63-.27-1.17-.8-1.63-.54-.46-1.21-.69-2.03-.69s-1.5.18-1.97.55c-.47.37-.71.84-.71,1.43,0,.56.22.98.66,1.26.44.28,1.24.55,2.39.81,1.15.26,2.08.57,2.8.92.71.36,1.24.79,1.59,1.29.34.5.52,1.12.52,1.84,0,1.2-.48,2.17-1.45,2.9-.96.73-2.21,1.09-3.75,1.09-1.08,0-2.04-.19-2.87-.57-.83-.38-1.48-.92-1.95-1.6-.47-.68-.7-1.43-.7-2.22h2.31c.04.77.35,1.39.93,1.84.58.45,1.34.68,2.29.68.87,0,1.57-.18,2.1-.53.53-.35.79-.82.79-1.41Z"/>
    <path class="cls-5" d="M1021.83,321.69h-7.6l-1.71,4.75h-2.47l6.93-18.14h2.09l6.94,18.14h-2.45l-1.73-4.75ZM1014.95,319.73h6.17l-3.09-8.49-3.08,8.49Z"/>
    <path class="cls-5" d="M1030.85,319.34v7.1h-2.39v-18.14h6.69c1.99,0,3.54.51,4.67,1.52,1.12,1.01,1.69,2.36,1.69,4.03,0,1.76-.55,3.12-1.65,4.07-1.1.95-2.68,1.43-4.73,1.43h-4.27ZM1030.85,317.38h4.3c1.28,0,2.26-.3,2.94-.91s1.02-1.48,1.02-2.62-.34-1.95-1.02-2.6c-.68-.65-1.62-.99-2.8-1.01h-4.44v7.13Z"/>
    <path class="cls-5" d="M1047.13,326.44h-2.39v-18.14h2.39v18.14Z"/>
  </g>
</svg>